<svg viewBox="0 0 915.75 400" xmlns="http://www.w3.org/2000/svg"><g><g><g><g><g><line x1="58" y1="378" x2="53" y2="378" style="visibility: inherit;" fill="rgb(0, 0, 0)" stroke="rgb(204, 204, 204)" stroke-width="1px"></line><line x1="58" y1="330.75" x2="53" y2="330.75" style="visibility: inherit;" fill="rgb(0, 0, 0)" stroke="rgb(204, 204, 204)" stroke-width="1px"></line><line x1="58" y1="283.5" x2="53" y2="283.5" style="visibility: inherit;" fill="rgb(0, 0, 0)" stroke="rgb(204, 204, 204)" stroke-width="1px"></line><line x1="58" y1="236.24999999999997" x2="53" y2="236.24999999999997" style="visibility: inherit;" fill="rgb(0, 0, 0)" stroke="rgb(204, 204, 204)" stroke-width="1px"></line><line x1="58" y1="188.99999999999997" x2="53" y2="188.99999999999997" style="visibility: inherit;" fill="rgb(0, 0, 0)" stroke="rgb(204, 204, 204)" stroke-width="1px"></line><line x1="58" y1="141.75" x2="53" y2="141.75" style="visibility: inherit;" fill="rgb(0, 0, 0)" stroke="rgb(204, 204, 204)" stroke-width="1px"></line><line x1="58" y1="94.5" x2="53" y2="94.5" style="visibility: inherit;" fill="rgb(0, 0, 0)" stroke="rgb(204, 204, 204)" stroke-width="1px"></line><line x1="58" y1="47.25" x2="53" y2="47.25" style="visibility: inherit;" fill="rgb(0, 0, 0)" stroke="rgb(204, 204, 204)" stroke-width="1px"></line><line x1="58" y1="0" x2="53" y2="0" style="visibility: inherit;" fill="rgb(0, 0, 0)" stroke="rgb(204, 204, 204)" stroke-width="1px"></line></g><g transform="translate(48, 0)"><text x="0" y="378" dx="0em" dy="0.3em" style="text-anchor: end; visibility: hidden; font-family: &quot;Helvetica Neue&quot;, sans-serif; font-size: 12px; font-weight: 200;" fill="rgb(50, 49, 63)" stroke="none" stroke-width="1px">-0.1</text><text x="0" y="330.75" dx="0em" dy="0.3em" style="text-anchor: end; visibility: inherit; font-family: &quot;Helvetica Neue&quot;, sans-serif; font-size: 12px; font-weight: 200;" fill="rgb(50, 49, 63)" stroke="none" stroke-width="1px">0</text><text x="0" y="283.5" dx="0em" dy="0.3em" style="text-anchor: end; visibility: inherit; font-family: &quot;Helvetica Neue&quot;, sans-serif; font-size: 12px; font-weight: 200;" fill="rgb(50, 49, 63)" stroke="none" stroke-width="1px">0.1</text><text x="0" y="236.24999999999997" dx="0em" dy="0.3em" style="text-anchor: end; visibility: inherit; font-family: &quot;Helvetica Neue&quot;, sans-serif; font-size: 12px; font-weight: 200;" fill="rgb(50, 49, 63)" stroke="none" stroke-width="1px">0.2</text><text x="0" y="188.99999999999997" dx="0em" dy="0.3em" style="text-anchor: end; visibility: inherit; font-family: &quot;Helvetica Neue&quot;, sans-serif; font-size: 12px; font-weight: 200;" fill="rgb(50, 49, 63)" stroke="none" stroke-width="1px">0.3</text><text x="0" y="141.75" dx="0em" dy="0.3em" style="text-anchor: end; visibility: inherit; font-family: &quot;Helvetica Neue&quot;, sans-serif; font-size: 12px; font-weight: 200;" fill="rgb(50, 49, 63)" stroke="none" stroke-width="1px">0.4</text><text x="0" y="94.5" dx="0em" dy="0.3em" style="text-anchor: end; visibility: inherit; font-family: &quot;Helvetica Neue&quot;, sans-serif; font-size: 12px; font-weight: 200;" fill="rgb(50, 49, 63)" stroke="none" stroke-width="1px">0.5</text><text x="0" y="47.25" dx="0em" dy="0.3em" style="text-anchor: end; visibility: inherit; font-family: &quot;Helvetica Neue&quot;, sans-serif; font-size: 12px; font-weight: 200;" fill="rgb(50, 49, 63)" stroke="none" stroke-width="1px">0.6</text><text x="0" y="0" dx="0em" dy="0.3em" style="text-anchor: end; visibility: hidden; font-family: &quot;Helvetica Neue&quot;, sans-serif; font-size: 12px; font-weight: 200;" fill="rgb(50, 49, 63)" stroke="none" stroke-width="1px">0.7</text></g><line x1="58" y1="0" x2="58" y2="378" fill="rgb(0, 0, 0)" stroke="rgb(204, 204, 204)" stroke-width="1px"></line></g></g><g transform="translate(58, 0)" clip-path="url(#clip_0)"><clipPath id="clip_0"><rect width="857" height="378"></rect></clipPath><g><g><g><line x1="0" y1="0" x2="0" y2="378" fill="rgb(0, 0, 0)" stroke="rgb(60, 60, 60)" stroke-width="1px" opacity="0.25"></line><line x1="85.775" y1="0" x2="85.775" y2="378" fill="rgb(0, 0, 0)" stroke="rgb(60, 60, 60)" stroke-width="1px" opacity="0.25"></line><line x1="171.55" y1="0" x2="171.55" y2="378" fill="rgb(0, 0, 0)" stroke="rgb(60, 60, 60)" stroke-width="1px" opacity="0.25"></line><line x1="257.325" y1="0" x2="257.325" y2="378" fill="rgb(0, 0, 0)" stroke="rgb(60, 60, 60)" stroke-width="1px" opacity="0.25"></line><line x1="343.1" y1="0" x2="343.1" y2="378" fill="rgb(0, 0, 0)" stroke="rgb(60, 60, 60)" stroke-width="1px" opacity="0.25"></line><line x1="428.875" y1="0" x2="428.875" y2="378" fill="rgb(0, 0, 0)" stroke="rgb(60, 60, 60)" stroke-width="1px" opacity="0.25"></line><line x1="514.65" y1="0" x2="514.65" y2="378" fill="rgb(0, 0, 0)" stroke="rgb(60, 60, 60)" stroke-width="1px" opacity="0.25"></line><line x1="600.425" y1="0" x2="600.425" y2="378" fill="rgb(0, 0, 0)" stroke="rgb(60, 60, 60)" stroke-width="1px" opacity="0.25"></line><line x1="686.2" y1="0" x2="686.2" y2="378" fill="rgb(0, 0, 0)" stroke="rgb(60, 60, 60)" stroke-width="1px" opacity="0.25"></line><line x1="771.975" y1="0" x2="771.975" y2="378" fill="rgb(0, 0, 0)" stroke="rgb(60, 60, 60)" stroke-width="1px" opacity="0.25"></line><line x1="857.75" y1="0" x2="857.75" y2="378" fill="rgb(0, 0, 0)" stroke="rgb(60, 60, 60)" stroke-width="1px" opacity="0.25"></line></g><g><line x1="0" y1="378" x2="857.75" y2="378" fill="rgb(0, 0, 0)" stroke="rgb(60, 60, 60)" stroke-width="1px" opacity="0.25"></line><line x1="0" y1="330.75" x2="857.75" y2="330.75" fill="rgb(0, 0, 0)" stroke="rgb(60, 60, 60)" stroke-width="1px" opacity="0.25"></line><line x1="0" y1="283.5" x2="857.75" y2="283.5" fill="rgb(0, 0, 0)" stroke="rgb(60, 60, 60)" stroke-width="1px" opacity="0.25"></line><line x1="0" y1="236.24999999999997" x2="857.75" y2="236.24999999999997" fill="rgb(0, 0, 0)" stroke="rgb(60, 60, 60)" stroke-width="1px" opacity="0.25"></line><line x1="0" y1="188.99999999999997" x2="857.75" y2="188.99999999999997" fill="rgb(0, 0, 0)" stroke="rgb(60, 60, 60)" stroke-width="1px" opacity="0.25"></line><line x1="0" y1="141.75" x2="857.75" y2="141.75" fill="rgb(0, 0, 0)" stroke="rgb(60, 60, 60)" stroke-width="1px" opacity="0.25"></line><line x1="0" y1="94.5" x2="857.75" y2="94.5" fill="rgb(0, 0, 0)" stroke="rgb(60, 60, 60)" stroke-width="1px" opacity="0.25"></line><line x1="0" y1="47.25" x2="857.75" y2="47.25" fill="rgb(0, 0, 0)" stroke="rgb(60, 60, 60)" stroke-width="1px" opacity="0.25"></line><line x1="0" y1="0" x2="857.75" y2="0" fill="rgb(0, 0, 0)" stroke="rgb(60, 60, 60)" stroke-width="1px" opacity="0.25"></line></g></g></g><g><g><line x1="0" y1="330.75" x2="857.75" y2="330.75" fill="rgb(0, 0, 0)" stroke="rgb(153, 153, 153)" stroke-width="1.5px"></line></g></g><g><g><line x1="85.775" y1="0" x2="85.775" y2="378" fill="rgb(0, 0, 0)" stroke="rgb(153, 153, 153)" stroke-width="1.5px"></line></g></g><g><g><g><g><g><path style="fill: none;" stroke="rgb(255, 112, 67)" stroke-width="2px" d="M86.28965,206.09792616963387L87.404725,199.15735883304947L87.91937499999999,138.30584097161505L89.291775,191.6530352592659L89.463325,224.74755425045103L89.72064999999999,246.84693616938304L90.40684999999999,261.8411339820325L90.664175,255.33926819612117L91.9508,116.36043566515639L92.208125,149.1248354032923L93.923625,102.06777593247193L94.609825,133.6650782290963L94.95292500000001,78.37087813949711L96.668425,4.965454662816853L97.7835,36.170472518656425L99.15589999999999,-36.138935033175244L99.413225,6.991996648313773L100.1852,-59.31633701230243L102.158025,-0.5275082835565854L103.6162,35.75768768766028L105.50325,66.92950106665734L105.932125,94.97786852780143L107.21875,120.1738534034098L107.73339999999999,142.51072430087098L108.162275,128.40022361759813L108.7627,132.6777525419178L109.27735000000001,152.9220167652903L110.90707499999999,94.92261273567362L112.27947499999999,119.33157341321112L112.451025,46.27445969522364L113.13722499999999,75.14026270214407L114.166525,101.2846404700299L114.9385,112.53299714325533L115.6247,130.404233692034L116.99709999999999,150.50321084035073L117.34020000000001,73.41073762747669L121.97205,99.4992534036179L122.05782500000001,27.84694487053258L123.51599999999999,49.94780008930877L123.77332500000001,37.81491382679883L124.03065000000001,67.31159485869068L125.31727500000001,93.8858537235314L125.5746,22.82904863894288L125.66037499999999,53.03876205025688L126.518125,53.660157461170456L127.9763,56.05721970184925L128.14785,80.49404720313305L129.949125,104.31204288047792L131.4073,126.34885302083043L131.836175,146.19619805832534L134.15210000000002,164.62069796163647L135.00985,180.5495395344656L135.5245,195.4117556720353L135.69605,208.973566493642L136.12492500000002,218.81868451346463L136.2107,153.07310152463796L137.497325,85.97170435481229L139.04127499999998,110.24420961942599L139.212825,131.94389553636321L140.24212500000002,151.45996712966L140.84255000000002,125.57169824729158L140.928325,146.09569591863806L141.099875,159.5245379716438L141.3572,82.08102807015655L141.52875,106.7335083228017L142.55804999999998,67.42601881309207L143.4158,93.76904243550416L144.4451,115.02930111466173L144.873975,136.5457754001305L147.104125,61.43190455151529L147.447225,26.236203712677252L147.790325,56.69750747233513L147.8761,84.11175301774665L148.476525,101.69488323673517L149.24849999999998,124.6058901409994L149.5916,50.863595086634916L149.93470000000002,78.02877847681151L150.363575,68.29156617539314L150.706675,27.937324329471608L151.47865000000002,3.997908837711236L151.82174999999998,36.668473339169964L151.9933,65.97767339598624L152.16485,92.3312512112675L152.765275,116.17475583952648L153.19415,137.62576700804047L153.36569999999998,109.45817995598748L153.79457499999998,130.6111303196647L153.966125,150.60481503988316L154.309225,168.61382077393287L154.652325,184.82141624433945L155.166975,160.87622390090178L155.25275,177.55277378330703L157.225575,192.86205649585403L157.568675,113.14319976200198L160.39925,134.639492986693L160.999675,154.24706685976082L161.51432499999999,171.88778292434685L162.71517500000002,167.86547009294924L163.05827499999998,184.0398609093837L163.6587,178.39367351821625L163.83025,99.14084067359181L164.3449,112.30902518692449L164.51645,43.05062025904499L165.71730000000002,13.591342700586097L165.803075,-3.844198073183918L166.660825,29.003880513931392L166.91815,58.66377216047118L167.690125,68.32759379330855L168.033225,94.55567075680568L168.376325,118.17319032489144L169.14829999999998,139.429809152904L169.234075,68.06072423145099L169.748725,0.4069121508730973L169.83450000000002,33.43808342522891L170.263375,62.88488225389278L171.292675,56.705192186556246L171.807325,83.99713648487221L172.06465,104.92114612005349L172.836625,127.50407931270644L175.409875,147.82650277944697L176.52495000000002,163.63087332978395L177.0396,86.72467680999148L177.296925,110.98544626278817L177.468475,132.9584123589468L177.811575,152.73660727196284L178.326225,104.15739930994198L178.7551,126.78936656301249L179.61285,147.1830735994861L180.1275,163.74483956148737L180.556375,177.05417993509485L181.41412499999998,192.34916612176022L181.843,206.18389643566192L185.016675,217.01918913892786L185.35977499999998,151.06567766573988L185.44555,168.98381348565678L185.53132499999998,103.16632633952406L187.07527499999998,120.10806845863141L188.10457499999998,141.0860248741407L188.19035000000002,160.0519102152245L188.705,177.10280967224185L189.305425,192.45663350360758L191.535575,204.97500732360288L192.564875,217.5524951338655L193.5084,228.39519975119404L193.765725,238.43815224204207L194.02305,247.66921450384112L195.73854999999998,205.66579596314813L196.2532,123.68949324922119L196.85362500000002,138.7880366857747L197.368275,157.64572738090726L198.74067499999998,132.37695624804556L198.99800000000002,152.20360245671188L199.941525,93.91917640069602L200.19885,117.56357816087768L200.456175,44.480809750073206L200.54195,73.07054079276605L204.65915,98.83842880071046L204.916475,119.85387864871558L205.1738,140.34088088353468L205.259575,159.38175966189365L207.146625,176.50813850314236L208.175925,180.8319227026208L208.347475,195.16279131104469L208.690575,208.72080559327895L209.033675,143.3064041954167L209.376775,162.04183638962468L211.52115,178.90962548796404L211.606925,193.99366974247692L212.55044999999998,206.49227572612563L213.23665,218.89592611459912L213.57975,230.08084921832315L213.75130000000001,239.96214641025722L215.209475,238.16669421596728L216.4961,206.599671650811L216.83920000000003,124.58666086052074L218.98357500000003,145.13667058355452L220.355975,115.42318412769919L220.44175,61.386635412666976L221.728375,81.87833180811293L222.07147500000002,106.7288668651392L223.44387500000002,129.1301888781449L223.52965,149.2321035976487L224.64472500000002,166.47174374251935L225.4167,181.58743490590354L225.84557499999997,112.75365023537103L226.27444999999997,134.54529817882133L226.531775,59.71433845503236L226.96065000000002,-5.989498776550022L227.21797500000002,27.66276831269289L228.247275,57.96411558543883L228.93347500000002,85.23551963214192L229.53390000000002,101.91856820291463L230.134325,124.52436871491375L230.9063,142.63301469793305L231.2494,161.44116749831431L231.335175,178.20151980165755L231.42094999999998,127.99814146294517L231.5925,148.26831428087254L231.84982499999998,166.49517459012418L232.45025,178.09225202504817L233.22222499999998,106.5944507289147L234.079975,79.2073781705443L234.42307499999998,104.09846375771701L234.594625,67.99856576644646L234.85195,94.21732648206233L235.280825,117.75655824880687L235.53815,46.741124108317194L235.62392499999999,75.14186243884154L235.7097,100.59804711556177L237.339425,40.82335228279351L238.1114,61.997232672012046L238.62605,79.32880820565111L239.226475,104.47060914427317L239.31225000000003,126.24004393705809L240.08422499999998,144.82264815070488L240.68465,68.85425793071215L242.485925,94.97979748419158L242.82902500000003,118.49684421456709L243.686775,139.62811725498196L244.02987499999998,158.7320199188104L244.80185,175.93360670393744L245.91692500000002,191.12548618977164L246.17424999999997,203.5897964316169L246.68890000000002,216.1194806441643L246.86045000000001,227.55738284734204L249.7768,237.87562505530417L250.29145,247.06679230175476L251.74962499999998,255.38804674089351L251.921175,262.9105772849391L252.607375,269.69450829131523L252.8647,275.80001521751154L253.03625,281.28543539335465L254.58020000000002,286.2318918540978L255.78105000000002,290.68159042915244L255.9526,289.84591651367543L257.49655,291.4025188512452L257.83965,295.2346036726798L258.52585,298.78307351722754L259.984025,301.9796844922673L260.49867500000005,304.85667098195097L262.557275,213.12139299417026L263.58657500000004,224.88387067537835L263.67235,235.24974330450075L263.929675,244.22167434266197L264.01545,252.87416050114032L264.187,260.4992484505288L264.35855,267.52323932250715L264.70165,273.84589567604087L265.04475,279.53218864939475L265.47362499999997,284.64963546881125L265.645175,244.9180399728874L266.93179999999995,253.17659319817352L269.84815,260.93303828878106L270.19125,173.7149991758997L270.3628,189.41810497360908L270.791675,203.55121843564248L271.56365,130.558328752554L272.59295000000003,58.19237155146374L273.4507,85.44161180046297L273.62225,109.89830256154795L273.7938,131.47227934288384L273.879575,151.3999472047901L274.222675,169.15231416697648L274.48,185.07717635997912L275.1662,199.64052714201515L275.5093,212.74212424719417L276.71015,224.54099954156277L277.2248,231.44602233757232L277.65367499999996,241.36434372595L277.73945,243.24786292908593L277.911,251.67986069975746L278.168325,259.58652540617004L278.339875,266.65199605440796L278.511425,272.9960325731264L278.5972,278.75639580250726L279.197625,283.95124729479295L279.45495,288.47472952906804L279.883825,291.72058618162185L281.51355,295.51163800740983L282.3713,295.52257473335936L282.88595,298.4496121829716L283.4006,301.17015342646573L283.7437,279.8676186984796L284.773,284.9533277737519L284.858775,288.88314617759795L287.00315,289.884087020935L287.775125,293.9706614209249L289.2333,297.64798695382797L290.77725000000004,300.958174176848L290.863025,301.4727533499921L291.034575,222.42273558144217L291.89232499999997,233.21180062262252L292.235425,242.33594503791392L293.86515,251.17705482057883L294.808675,242.62734895180586L295.494875,251.4349192520762L296.009525,259.363011131357L296.0953,266.50170720190187L296.26685,178.4429330936393L296.4384,193.67362851899776L296.867275,207.33982352616124L299.01165000000003,219.68057080687655L299.097425,230.78451152963865L299.955175,240.7649116008589L300.12672499999996,155.8265209873708L300.55559999999997,173.26171731771768L301.75645000000003,189.0015643431701L302.2711,203.1763881946169L303.043075,215.93339170258312L304.3297,227.4150159201718L304.6728,237.74019773677264L304.84435,240.6897692430789L305.959425,249.69563178856154L306.988725,257.80106579338593L308.01802499999997,265.09564941890613L308.10380000000004,271.6531875172339L308.875775,277.56203231862924L309.390425,282.87615399645335L310.8486,287.6210882135025L311.36325,291.9043094665817L311.449025,295.78852647999037L312.135225,299.2846569340745L312.649875,302.2588888157594L313.16452499999997,239.85154600285176L313.5934,248.93901724525708L315.56622500000003,257.1200817248978L316.16665,264.48303975657444L316.595525,271.1096372097357L317.7106,277.0732651224396L318.311025,282.44093861019564L319.59765,287.25908400567727L320.62695,291.4174009408267L320.884275,295.24834677687693L322.085125,298.5536950806803L322.1709,276.4857508045459L322.34245000000004,281.9040844382665L325.08725,286.7874424465139L325.173025,291.1834757126247L325.2588,294.441618954856L325.85922500000004,298.07245705937044L326.80275,301.33801462425015L328.089375,304.276726351737L328.51825,306.92402555336866L331.0915,309.18409620335973L332.206575,311.33198978851385L332.97855,313.27375419750945L333.750525,315.02115347220126L334.265175,316.58884764820596L334.608275,317.9776502172076L336.06645,319.2514971631697L336.238,320.40132491629697L336.323775,321.42893476940435L337.353075,232.29491947582878L338.897025,242.13978540740777L340.35519999999997,250.997728629491L341.0414,258.9729416849446L343.01422499999995,266.1506334348528L343.7862,272.5466790679701L343.95775000000003,278.3662901833899L344.1293,145.0389496667904L344.4724,163.609998373722L344.558175,180.09225768911986L345.50169999999997,195.15361311496625L345.759025,208.50213768000603L346.445225,220.18912236316683L346.70255000000003,220.8668954678507L347.474525,231.85493837071638L348.76115,241.7443149829493L349.10425,250.6448158929872L349.2758,255.23663226754616L350.562425,262.7816745667858L351.67749999999995,269.5758147086981L353.650325,274.8784832816973L354.93695,280.4387503679086L355.022725,285.4698415352841L355.62315,289.99783203488056L356.052025,294.0701564713013L356.4809,297.737862008544L356.82399999999996,301.0390701750507L356.99555000000004,304.01010683115635L358.36795,301.823649769452L359.9119,304.70888068863167L359.997675,307.2209975444234L360.5981,309.5738808920643L360.855425,311.6512222508187L362.914025,313.5600157427426L363.17135,315.27682588824354L363.771775,316.82248167093445L364.02909999999997,234.8791463961826L364.114875,244.36597078358767L364.286425,253.00437088890945L364.3722,260.7787422902948L366.0877,267.61203149267135L366.516575,273.9178778735527L367.28855000000004,279.5971697695013L369.34715,284.688246526744L370.03335,289.28924547889176L371.2342,293.4206676208229L371.319975,297.147416221194L371.74885,300.50732537546094L372.77815,257.8153745004982L375.265625,260.815022883068L375.43717499999997,267.8057239895318L375.608725,273.74422513651143L376.294925,279.4427579749282L377.7531,284.5733582593789L378.181975,289.18685991327084L380.069025,293.23870818400485L380.32635,296.9707258217105L380.755225,300.3092979913267L381.35564999999997,303.35330904948523L381.69875,306.0841658809287L381.8703,308.54605730460605L382.38495,309.9720607914316L382.470725,311.76169453720337L382.98537500000003,313.62577451759654L383.5858,315.3275908067293L384.10044999999997,316.8578848988831L384.357775,318.13471399703803L385.81595,319.3786490496324L386.84525,320.5119145217234L387.102575,235.00746176564937L387.70300000000003,244.39202239147642L389.0754,253.00587257473308L389.24694999999997,260.6782021855888L389.76160000000004,267.67958316525016L390.1047,273.61589581954655L390.27625,278.5136691408292L391.47709999999995,283.66231490465424L392.935275,287.7804505284943L394.650775,292.07001545336703L396.194725,295.9284440544861L396.36627500000003,299.40997442611615L396.537825,236.03320758648417L396.79515000000004,245.50295201636285L397.05247499999996,254.02304649976134L398.51065,261.63673432434115L399.454175,250.06222151009302L399.53995,258.1286139364963L400.655025,265.3326800354653L403.228275,271.87342632010575L403.399825,277.760889362052L405.45842500000003,283.05870206125525L405.801525,248.70262624890756L405.973075,256.9073270118638L406.487725,264.2884484818343L406.74505,270.93459518469245L406.9166,265.7859200362879L407.688575,272.21891015093195L408.289,278.07199942160247L409.404075,283.3397938468033L410.090275,288.0648853592253L411.20535,292.3332306604543L411.37690000000003,296.0556083018445L411.634225,299.5246475542959L412.66352500000005,302.64699973810104L413.006625,305.4568604184543L413.4355,307.9857265818138L413.60705,310.2596586645859L414.4648,312.1494411976234L414.80789999999996,314.00900422195457L417.295375,315.67987348133204L417.72425,317.1839712425519L418.324675,318.48507854322634L420.46905000000004,298.8092925934199L420.554825,301.36650338067443L421.241025,304.24948420191254L422.098775,306.8888562983076L422.78497500000003,309.1422994910896L423.3854,311.2988957565326L423.7285,313.2431134076087L424.67202499999996,314.7425187788458L425.186675,316.3422699238704L425.701325,317.73126208178815L427.588375,315.92291375749664L428.5319,317.40394385534546L428.960775,318.7385494698109L429.73275,264.38537102839547L429.81852499999997,240.45205485732433L430.847825,249.47988639692437L431.79134999999997,257.57149943786834L432.04867500000006,171.89504400263408L432.906425,187.77864703568977L432.9922,199.78349542945466L436.93784999999997,212.87997690734124L437.36672500000003,219.2925517192202L437.4525,230.31877758181548L438.31025,240.31516581842115L444.571825,249.35864642025956L445.51534999999996,257.49763251330194L445.60112499999997,264.81457520114543L445.77267500000005,271.4079177223488L445.944225,277.34210060323875L446.20155,282.64103158669707L446.287325,287.3056121828291L448.43170000000003,291.61368946392537L448.860575,295.5272529258657L449.11789999999996,204.5498881221707L449.8041,217.16987114675896L450.74762499999997,228.52650685186438L451.51959999999997,238.74881955452489L451.77692499999995,247.94892915011403L451.8627,256.2281265639152L453.149325,263.68025758113436L454.52172500000006,270.3869980685053L455.03637499999996,276.39905820001405L455.379475,281.83323707618626L456.15145000000007,286.6995805749743L456.32300000000004,290.77127449656564L457.09497500000003,294.6966014737937L457.43807499999997,298.3014681847441L457.95272500000004,301.54626785619985L458.3816,304.45969884309704L460.61175000000003,307.08166281324804L461.383725,309.4482036346988L462.67035,311.2757979078409L463.270775,218.7522825339422L463.785425,229.9445938502835L464.128525,240.02513446525512L464.21430000000004,249.0976153860907L465.84402500000004,167.93314324472135L466.10134999999997,184.21228296745224L466.61600000000004,198.86119933594824L469.18925,212.0496823013088L469.7039,223.91326751592104L470.047,234.5942145670862L470.304325,244.20966355968218L470.99052500000005,252.86286357315214L471.162075,260.6496677512392L472.62025000000006,266.5992553098021L472.706025,273.0140115347223L474.33575,278.61006960213626L474.42152500000003,197.5767123068015L474.67885,210.89387491327287L475.450825,222.76319032593153L476.13702500000005,233.56176145687922L476.308575,243.2732994927337L476.39435000000003,249.86599229634135L478.53872499999994,163.49632243091165L478.79605000000004,180.22138602531822L479.739575,100.79406304654663L479.9969,123.78953000751596L480.16844999999995,144.32666336459633L480.34000000000003,162.96337283816382L481.3693,179.66643709093134L482.82747499999994,182.77200312450353L484.62874999999997,197.56730192036767L485.229175,116.41118897019038L485.915375,131.09164301471296L486.258475,151.0564845524703L486.8589,169.02552630208208L486.94467499999996,185.19796803923492L487.03045,199.7331415712718L487.8882,212.69552662073528L490.11835,224.49668470411558L490.54722499999997,235.12092068543188L491.919625,244.66163320318003L492.34849999999994,238.7263146130008L492.86315,247.90388827512524L493.20624999999995,256.1780368207979L493.29202499999997,263.6342502432246L493.97822499999995,269.646645748363L494.23555000000005,275.75447746552175L494.321325,280.7874021956666L494.492875,285.76462647283165L494.7502,290.2618992981084L495.522175,292.0737828573675L495.86527499999994,295.94128346989373L496.208375,299.36771848395307L496.46569999999997,276.0922439986006L496.551475,281.5556285435142L497.066125,286.4705117005869L497.58077499999996,206.33443560529622L497.75232500000004,218.77573012705633L498.00965,229.34664995130288L501.01177499999994,239.48614287665237L502.04107500000003,248.61226385495738L503.67080000000004,167.1691268711836L503.84235,183.09063960578004L505.21475,197.85650523721534L505.472075,211.13638624745036L505.64362500000004,223.0968801963099L505.7294,179.09852220902758L507.359125,193.28856725057886L509.41772499999996,206.90737627352112L509.67504999999994,192.95928258065732L510.79012500000005,206.7381712618263L511.47632500000003,219.1392274012677L512.2483,230.2993471125226L512.505625,230.31897693867631L512.677175,240.36178916390372L512.76295,249.40031453396946L513.9638,257.532171047563L514.65,264.85335125044105L516.5370499999999,271.3248518095772L517.0517,277.26106652197484L517.309025,282.5958163134209L517.90945,277.7005257360892L519.0245249999999,283.0034228819093L519.196075,287.7444734535349L519.2818500000001,226.6965573872685L519.8822749999999,237.10020340790385L521.426225,179.43514068701901L523.39905,194.48973546426626L523.827925,208.110072952519L523.9137000000001,215.53796917677835L525.5434250000001,227.05850197506768L525.714975,237.42355684905786L526.229625,243.78274797024915L528.459775,252.4794083978765L528.88865,260.2916452687412L530.003725,267.33746947658926L530.346825,273.6760301275212L531.890775,277.5352090164862L532.5769750000001,282.85458432419676L534.5498,287.6375948469363L534.807125,291.9487086278667L534.8929,295.8013448544565L535.236,299.29594000234215L535.321775,302.4413262878717L535.664875,305.27192047609634L537.551925,307.791630009178L539.52475,310.0834537530217L540.639825,312.14748075165807L542.0122250000001,314.00660051606707L542.95575,315.6798505488272L544.32815,223.60415764181928L545.529,234.3171675550561L545.614775,191.72019744047108L545.8720999999999,205.14368804212137L547.330275,217.70404605492106L547.673375,228.91916979632515L549.388875,239.08470151378276L549.560425,248.25083144504038L550.761275,256.4953916609127L551.1901499999999,263.92081025002943L552.391,270.6035461642612L552.476775,276.6181887315156L552.648325,282.0312994503774L553.0772000000001,286.90285407755954L555.4789,291.2875574045257L556.250875,294.89682904000966L556.8513,298.34625308915275L557.1944,301.5861321080115L557.70905,304.4920703519929L558.2237,233.21387230302824L558.652575,225.49180597316564L558.9099,236.0145893834651L559.08145,242.54161253058498L560.368075,251.3602207525097L561.14005,259.2991845956614L561.8262500000001,266.444246421859L563.2844249999999,272.8747541880059L563.7133,278.66171832163167L563.88485,283.865178584567L564.91415,288.553646644513L565.0857000000001,292.77328198006165L565.6003499999999,296.5709425167777L566.62965,299.9886398574594L567.058525,303.0110855574206L567.916275,305.7770518787022L568.774025,308.2732286120041L570.2321999999999,310.52024673204875L571.175725,312.54321642620494L571.347275,314.3638018450421L571.690375,315.9895707948162L572.9770000000001,317.29977755991996L576.493775,318.64472094698294L576.7511,319.85524321964573L577.0942,320.94424857233037L578.2950500000001,321.9237619626588L579.238575,322.806380133754L579.839,323.6002267339164L581.2971749999999,241.12184802338484L581.5545000000001,250.07596924285593L581.983375,258.14306252342914L582.4122500000001,265.40321835406826L582.9268999999999,271.89084990198796L583.9562,277.776618463177L584.041975,283.0686281404303L585.50015,287.83674842847046L585.757475,292.12374208628523L586.3579,295.9863397144621L588.673825,299.3808156219135L588.845375,267.26969913545344L589.4458000000001,273.6169209382215L590.30355,279.3280602784108L590.98975,284.47022890369453L591.1613,289.097594872001L591.761725,293.1143083288222L592.5337,296.8651730788304L593.39145,300.25229830496494L593.477225,303.3006715800135L594.334975,306.04539319805224L594.678075,308.5156032258145L594.76385,310.7390203726774L596.393575,312.73430826835204L596.82245,314.5346833220634L596.9939999999999,316.1554968283933L597.3371,317.6144430243696L598.1090750000001,318.9279987219327L599.6530250000001,320.08484352559026L601.368525,321.1490300768331L601.7974,322.1087947434529L602.569375,322.15594323691823L603.084025,323.015140505586L603.1698,323.7872295605724L603.255575,324.483360155903L603.5129000000001,325.1100100587153L603.770225,325.6740034202048L605.6572749999999,326.1803526323416L607.11545,326.6373032875101L607.201225,326.7642204475916L607.5443250000001,327.16277305595725L607.9732,327.52148448508365L608.573625,327.8443078733806L609.3456,328.13412794506473L609.51715,328.3956785384052L610.3749,328.60943910627657L610.8895500000001,328.81768231227187L611.0611,328.9978181955295L611.57575,329.16981169018834L611.7473,329.32748411387524L611.91885,329.4677445646255L612.94815,329.4552949508544L613.1197,329.4909003442987L613.29125,329.6164470046578L615.264075,329.7262790885405L616.0360499999999,329.59786506475535L616.293375,329.708428814842L617.6657749999999,329.8116368336979L618.523525,329.9051408246312L618.6093,329.989263436957L618.78085,330.06465272763114L619.2955,330.13164692812035L619.81015,330.1898745300728L620.410575,330.2443944277487L620.8394499999999,330.2922147061338L621.439875,329.77452656739143L621.954525,329.87201476794354L623.0696,329.9565857890415L625.29975,330.0357159861775L627.01525,330.10389153857693L627.272575,330.16145032077725L627.615675,330.22018137064305L627.70145,330.2680487974292L628.301875,330.30701483879733L629.76005,330.3512964570008L630.703575,330.3902515074744L631.6471,330.3246022851289L632.247525,322.14016877630536L632.7621750000001,322.9829781891631L634.820775,323.7592269428128L638.8522,324.4358187539179L639.5384,325.06696087921847L639.8815,325.6244135123955L640.996575,326.0520404150308L641.9400999999999,326.4082654747564L642.2832,326.8416954189418L642.9694000000001,327.23172322599993L643.0551750000001,327.0118521334729L643.398275,327.38269007045045L644.17025,327.6013018086971L644.256025,327.9160730566461L645.113775,327.85115180842985L645.1995499999999,328.13965663104875L645.285325,328.3310462038781L645.971525,328.57048856923575L647.687025,327.938995516684L649.7456249999999,327.07031101261344L650.0887250000001,326.7571755791435L650.260275,327.1563115726169L650.34605,327.51310629936364L650.6033749999999,327.83679003678833L651.37535,328.12788009491334L651.4611249999999,328.3900836364636L652.2330999999999,278.8582068135926L652.4904250000001,283.21810960029853L653.3481750000001,287.971191620129L653.77705,292.24895135637905L656.86495,296.09904495546334L657.636925,299.5640756845693L657.808475,302.68033057095585L658.151575,305.48728906490186L658.666225,306.982004297177L658.92355,309.35842929697037L659.5239750000001,311.4975413061619L659.7813,313.4227787265873L660.210175,311.76561258223916L660.4675,313.65329016733705L661.1537000000001,315.3628400488663L661.4968,316.8989650300713L661.8399,318.28403754755004L662.69765,319.5305859153641L662.7834250000001,320.58990927682873L663.812725,321.6041497005214L664.1558249999999,295.9675731730333L664.75625,299.4454131220464L665.09935,301.7340204114929L666.042875,304.63286400990626L667.0721749999999,307.2214190139497L668.444575,298.15430163807787L670.5889500000001,301.40378341794417L671.875575,304.31966528642545L673.076425,306.96269312514397L673.419525,299.88855454635797L673.762625,302.9692410645978L674.4488249999999,305.72558905346057L674.963475,308.22659945782596L675.04925,216.12559089925804L676.507425,227.4436841714405L677.2794,237.7597694642564L677.79405,247.03632955377287L678.4802500000001,255.40762337408944L678.737575,262.9418187918885L680.624625,269.72256368839356L680.88195,275.8237189153756L682.0828,281.31622310578155L682.4259,286.2585981854736L683.1120999999999,290.7070145728236L683.369425,294.7112314422767L683.884075,298.3151026654101L685.428025,301.5583051342836L685.599575,304.4774605392579L687.1435250000001,307.035756903216L687.315075,215.1993799900932L687.5724,225.96002022885588L688.859025,236.37365143117285L689.11635,245.77146071449198L689.45945,254.26898794998476L690.059875,261.91668923762217L691.17495,268.7992683565626L691.6896,274.9943302556285L692.89045,280.5698775158294L693.91975,285.1301392798991L694.520175,289.69211971927024L695.206375,209.9851078763754L695.892575,222.06159145609888L695.97835,232.93042949416952L696.4072249999999,242.7120401374583L696.750325,251.51581359315674L697.8654,259.4381085223743L698.2085,266.56929767013685L699.40935,272.98735382152586L700.4386499999999,278.76261019700456L700.524425,283.96117456549723L701.12485,288.64003176207234L701.81105,292.84991613967617L702.3257,296.6251472974723L702.8403500000001,252.52598522408954L703.440775,169.86195736799382L703.612325,185.9502715916074L704.3843,200.4259354636642L704.55585,212.99598675062413L704.641625,224.75197236916563L706.27135,234.3042929844362L706.528675,243.94695140507542L707.30065,252.6267070822721L708.415725,260.4386955993896L709.35925,231.5274669794015L709.616575,241.44903309951175L710.474325,250.3641469700034L711.846725,258.32669164743083L712.79025,172.40707275872882L714.3342,188.2412246668826L715.19195,156.45142696241956L715.277725,173.88001692241804L715.7066,189.56698706698154L715.792375,203.6849278713918L716.3928000000001,216.38654876997975L716.7359,227.8226854853413L716.821675,238.11541693680718L716.90745,247.37531259900243L718.194075,255.7125194213919L718.7945,263.2162674792527L718.880275,269.9692774261164L719.223375,276.0460964213425L719.3949250000001,281.51646424865254L720.1669,286.25256074251706L720.51,290.7008824269352L720.767325,294.6385263938049L722.997475,298.2494540815061L723.08325,301.38481406311746L723.855225,304.3212960446526L724.1125499999999,306.9641354606733L724.45565,307.157745232539L724.712975,309.2978723201364L725.570725,311.4430822718033L725.6564999999999,313.3736304123302L725.742275,315.1080286037117L725.82805,316.58157405238063L726.256925,316.53904214484135L726.7715750000001,317.9598478494522L727.114675,319.2385222898517L727.286225,320.381187306636L728.658625,321.37184432458287L729.173275,321.801525452537L729.25905,322.6963560093665L729.94525,323.43723795794466L730.4599000000001,324.16080589577274L731.574975,280.79853981868666L732.1754,285.2365136426947L733.03315,289.7875806464787L734.5771000000001,293.88163993424496L735.2633,297.56827034949947L737.236125,300.4241754537793L737.83655,293.2118551188086L738.3512000000001,296.9639319378175L738.608525,300.3185662327442L741.26755,303.35955230875913L741.3533249999999,306.0814738555321L742.725725,308.5224473104092L742.8115,310.10793707596173L743.66925,312.1721321030877L743.926575,314.02988509694535L744.0981250000001,315.70183462822257L745.04165,317.2066061042889L745.5563,318.56090324906796L745.813625,319.7798072915223L746.156725,320.8676566261899L747.529125,321.85563467849954L747.700675,322.74449386515914L747.7864500000001,318.3628645806196L748.12955,319.6014598371401L748.386875,320.71599560932646L748.558425,321.6077205326229L749.759275,322.5152540879908L750.102375,244.4129865894433L751.0459000000001,244.25325705078689L751.303225,252.88472665668235L753.018725,260.66722102153926L753.704925,267.6599077748236L754.562675,273.6623803377429L754.64845,279.36887798311824L755.591975,284.50487794520717L757.5648,289.0993963483774L757.993675,293.21739883158835L759.4518499999999,296.45107053757516L761.4246750000001,299.8809268716646L761.596225,302.96776940915043L763.22595,303.2245022221779L763.311725,304.77549183050166L763.654825,307.3705515922252L763.997925,309.67787740777226L765.541875,311.736243422183L766.056525,313.6375402230197L766.1423,315.3458262489593L769.7448499999999,316.7161576425752L770.43105,318.0882553853739L771.11725,319.3211325017943L771.203025,320.4314851291478L772.6612,321.2912369663269L773.3474,285.5575318957642L773.776275,290.04185071217495L774.119375,294.08256481850873L775.0629,296.3830526211685L776.0922,299.8000415717505L776.349525,290.75137767388907L776.521075,294.7327366876109L776.8641749999999,272.72719093032214L777.550375,278.5294324088174L780.8956,283.7462733442853L782.696875,288.4464460511747L783.211525,292.6758241832027L783.2973000000001,296.4831685405763L783.46885,299.34819309548664L784.755475,302.48827803107616L785.3559,305.31437981998187L787.3287250000001,301.5840466786199L787.500275,304.3575110228753L787.671825,306.97301271485355L788.61535,309.35070581072927L788.872675,311.4902043327781L790.3308499999999,313.02338337466944L790.8455,314.795800017409L791.9605750000001,316.13854828216955L793.676075,317.59450860981633L794.44805,318.90986905543053L795.6489,320.09305696828403L795.8204499999999,321.15442258843694L795.9920000000001,322.11391273792606L796.763975,319.23364718248865L797.53595,320.33592928192394L798.2221499999999,321.3771673745636L799.93765,322.2980061477474L800.1092,323.14319990033374L800.366525,323.89015316922485L800.538075,324.5759378936203L801.052725,325.1919725566785L802.082025,325.7464797940564L802.1678,326.246119285826L802.7682249999999,326.6961440520323L803.0255500000001,326.77823025377126L803.454425,327.170295608564L804.05485,326.31696986185653L804.2264,326.5401718767924L805.5988,326.96097162834786" fill="none"></path></g></g></g></g><g opacity="0.2"><g><g><g><path style="fill: none;" stroke="rgb(255, 112, 67)" stroke-width="2px" d="M86.28965,206.09792616963387L87.404725,192.91084823012352L87.91937499999999,34.249745428562164L89.291775,321.7668421268463L89.463325,327.1783999800682L89.72064999999999,328.2961971759796L90.40684999999999,325.07213097810745L90.664175,224.81087636947632L91.9508,-596.0165845155717L92.208125,329.76203513145447L93.923625,-173.7757204771043L94.609825,328.8006844818592L94.95292500000001,-278.72648495435726L96.668425,-487.7552928328515L97.7835,252.76726868748665L99.15589999999999,-552.9328109622003L99.413225,323.2401433289051L100.1852,-556.5660883784295L101.128725,328.27882048487663L101.55760000000001,-569.8035221099855L101.72915,330.6924344301224L102.158025,250.60827818512917L103.6162,330.16510677337646L105.50325,322.61117470264435L105.932125,327.2773091197014L107.21875,330.6583851277828L107.73339999999999,330.55373069643974L108.162275,8.790414601564407L108.7627,169.16074168682098L109.27735000000001,326.5386166870594L110.90707499999999,-404.94406628608715L112.27947499999999,330.6309541761875L112.451025,-588.6626111268998L113.13722499999999,326.90409046411514L114.166525,330.03969606757164L114.9385,211.2341324687004L115.6247,287.6218694150448L116.99709999999999,327.7263430953026L117.34020000000001,-607.7604677081109L121.97205,330.43978241086006L122.05782500000001,-607.4920724630357L123.51599999999999,246.2094688117504L123.77332500000001,-70.07371205091476L124.03065000000001,329.9212135076523L125.31727500000001,330.73479187488556L125.5746,-611.1005662679673L125.66037499999999,322.7904615998268L126.518125,59.21317872405052L127.9763,77.49351409077644L128.14785,299.1660755574703L129.949125,317.5692306160927L131.4073,323.7602048814297L131.836175,324.076618373394L134.15210000000002,329.8181925415993L135.00985,323.42435878515244L135.5245,328.76463559269905L135.69605,330.69556054472923L136.12492500000002,307.20632967352867L136.2107,-437.3244177103044L137.497325,-516.7350511550904L139.04127499999998,328.304195523262L139.212825,326.9252128601074L140.24212500000002,326.84894692897797L140.84255000000002,-107.11749422550207L140.928325,330.59389141201973L141.099875,280.25587034225464L141.3572,-614.244930624962L141.52875,328.4151303470135L142.55804999999998,-286.06772857904446L143.4158,330.6911952495575L144.4451,306.25173819065094L144.873975,330.0848416686058L147.104125,-614.2498310208322L147.447225,-290.380414903164L147.790325,330.73653799295425L147.8761,330.74867632985115L148.476525,259.8903602063656L149.24849999999998,330.7431563436985L149.5916,-612.638051390648L149.93470000000002,322.4560799896717L150.363575,-19.32419854402542L151.47865000000002,-211.41870278120052L151.82174999999998,330.6567234992981L151.9933,329.72266298532486L152.16485,329.48285338282585L152.765275,330.74138206243515L153.19415,330.66469368338585L153.36569999999998,-144.02626204490673L153.79457499999998,320.9715698361397L153.966125,330.5342699289322L154.309225,330.6837601661682L154.652325,330.68077486753464L155.166975,-54.61853939294815L155.25275,327.6342212855816L157.225575,330.6394031345844L157.568675,-604.2974649667741L160.39925,328.09908297657967L160.999675,330.7094449996948L161.51432499999999,330.6495418846607L162.71517500000002,131.66561615467072L163.05827499999998,329.60589838027954L163.6587,127.57908028364182L163.83025,-614.120843589306L164.3449,230.82062047719955L164.51645,-580.2652477025987L165.803075,-160.7620714902879L166.660825,324.6332075893879L166.91815,325.60005006194115L167.690125,155.3011829853058L168.033225,330.60639587044716L168.376325,330.7292718887329L169.14829999999998,330.73808696866035L169.234075,-574.2571370601655L169.748725,-608.4740667343141L169.83450000000002,330.71716171503067L170.263375,327.904897749424L171.292675,1.0882033109664917L171.807325,329.6237538456917L172.06465,293.2366247177124L172.836625,330.7498873472214L175.409875,330.72783556580544L176.52495000000002,305.8698734343052L177.0396,-605.4296253919603L177.296925,329.331954985857L177.468475,330.7147678434849L177.811575,330.74008655548096L178.326225,-333.05486458539974L178.7551,330.4768170118332L179.61285,330.72623026371L180.1275,312.80058217048645L180.556375,296.83813405036926L181.41412499999998,330.00392881035805L181.843,330.69637727737427L185.016675,314.5367586314678L185.35977499999998,-442.5155704021455L185.44555,330.2469490170479L185.53132499999998,-489.1907708644868L187.07527499999998,272.5836810171604L188.10457499999998,329.8875584900379L188.19035000000002,330.7448179721832L188.705,330.5608559846878L189.305425,330.64100843667984L191.535575,317.6403426826L192.564875,330.7498591840267L193.5084,325.9795209467411L193.765725,328.8247076869011L194.02305,330.7487608194351L195.73854999999998,-172.364913403988L196.2532,-614.0971301794053L196.85362500000002,274.67491087317467L197.368275,327.36492481827736L198.74067499999998,-95.04196125268942L198.99800000000002,330.64340230822563L199.941525,-430.64061570167553L200.19885,330.36317852139473L200.456175,-613.2640628814698L200.54195,330.3781050145626L204.65915,330.7494085729122L204.916475,308.99291825294495L205.1738,324.7238930761814L205.259575,330.7496620416641L207.146625,330.6455427110195L208.175925,219.7459792792797L208.347475,324.1406051516533L208.690575,330.74293103814125L209.033675,-445.42319494485866L209.376775,330.6607226729393L211.52115,330.7197245657444L211.606925,329.7500657737255L212.55044999999998,318.97972789406776L213.23665,330.5287781059742L213.57975,330.7451559305191L213.75130000000001,328.89382016658783L215.209475,222.00762462615967L216.4961,-77.50352892279625L216.83920000000003,-613.5304303765298L218.98357500000003,330.08675676584244L220.355975,-151.99819225072872L220.44175,-424.94230020046245L221.728375,266.30359840393066L222.07147500000002,330.38368132710457L223.44387500000002,330.74208614230156L223.52965,330.1493353843689L224.64472500000002,321.6285045146942L225.4167,317.6286549568176L225.84557499999997,-506.75041007995617L226.27444999999997,330.67012917995453L226.531775,-613.7642975449563L226.96065000000002,-597.3240326642991L227.21797500000002,330.5331715643406L228.247275,330.67624059319496L228.93347500000002,330.6781556904316L229.53390000000002,252.06600514054298L230.134325,327.97657307982445L230.9063,305.6108283698559L231.2494,330.7145425379276L231.335175,329.044690400362L231.42094999999998,-323.8322632312776L231.5925,330.69986951351166L231.84982499999998,330.5369172692299L232.45025,282.4659488797188L233.22222499999998,-536.8857606053353L234.079975,-167.27627474069607L234.42307499999998,328.118233948946L234.594625,-256.9005160331727L234.85195,330.18617284297943L235.280825,329.60964408516884L235.53815,-592.3977829813958L235.62392499999999,330.7485073506832L235.7097,329.7037091553211L237.339425,-497.1489011049272L238.1114,252.5621561408043L238.62605,235.31298798322678L239.226475,330.74681755900383L239.31225000000003,322.1649570465088L240.08422499999998,312.06608605384827L240.68465,-614.861253976822L242.485925,330.10965344309807L242.82902500000003,330.15026476979256L243.686775,329.8095746040344L244.02987499999998,330.66714388132095L244.80185,330.7478877604008L245.91692500000002,327.8524015545845L246.17424999999997,315.7685886025429L246.68890000000002,328.88663855195045L246.86045000000001,330.4985026717186L249.7768,330.7398049235344L250.29145,329.78729751706123L251.74962499999998,330.2793366909027L251.921175,330.6133521795273L252.607375,330.7498873472214L252.8647,330.74957755208015L253.03625,330.6542169749737L254.58020000000002,330.75L255.78105000000002,330.7288776040077L255.9526,282.32485127449036L257.49655,305.4119398891926L257.83965,329.72336706519127L258.52585,330.71930211782455L259.984025,330.74918326735497L260.49867500000005,330.7495493888855L262.557275,-612.4961088895799L263.58657500000004,330.74616980552673L263.67235,328.5425969660282L263.929675,324.96905368566513L264.01545,330.74653592705727L264.187,329.12503999471664L264.35855,330.7391571700573L264.70165,330.7498028576374L265.04475,330.7088254094124L265.47362499999997,330.70665684342384L265.645175,-112.66631948947912L266.93179999999995,327.5035722255707L269.84815,330.7410441040993L270.19125,-611.2473528385163L270.3628,330.7460571527481L270.791675,330.7492395937443L271.56365,-526.3776783943177L272.59295000000003,-593.1012432575227L273.4507,330.68477404117584L273.62225,330.00851941108704L273.7938,325.63807037472725L273.879575,330.7489579617977L274.222675,328.92361682653427L274.48,328.40093609690666L275.1662,330.7106841802597L275.5093,330.65649819374084L276.71015,330.7308771908283L277.2248,293.5912275016308L277.65367499999996,330.6292362213135L277.73945,260.19953575730324L277.911,327.5678406357765L278.168325,330.7465077638626L278.339875,330.24123188853264L278.511425,330.09236124157906L278.5972,330.5996648669243L279.197625,330.70491072535515L279.45495,329.186069637537L279.883825,320.93329605460167L281.51355,329.631104439497L282.3713,295.62100526690483L282.88595,324.79294922947884L283.4006,325.6550246179104L283.7437,88.1448061466217L284.773,330.7247094511986L284.858775,324.2515118122101L287.00315,298.89255461096764L287.775125,330.74983102083206L289.2333,330.7439167499542L290.77725000000004,330.7498591840267L290.863025,306.10396590828896L291.034575,-489.02742433547985L291.89232499999997,330.31338599324226L292.235425,324.4532447755337L293.86515,330.7470428645611L294.808675,165.67999613285065L295.494875,330.7030519545078L296.009525,330.7158380448818L296.0953,330.74997183680534L296.26685,-614.0860338807107L296.4384,330.7498873472214L296.867275,330.3355785906315L299.01165000000003,330.747296333313L299.097425,330.7199780344963L299.955175,330.58851224184036L300.12672499999996,-608.6189945340158L300.55559999999997,330.17848429083824L301.75645000000003,330.66018757224083L302.2711,330.7498028576374L303.043075,330.74642327427864L304.3297,330.74963387846947L304.6728,330.66683408617973L304.84435,267.2359127998352L305.959425,330.7483946979046L306.988725,330.74997183680534L308.01802499999997,330.7469020485878L308.10380000000004,330.67103040218353L308.875775,330.74163553118706L309.390425,330.7032490968704L310.8486,330.3254961669445L311.36325,330.4533007442951L311.449025,330.74647960066795L312.135225,330.74983102083206L312.649875,329.02697575092316L313.16452499999997,-321.81453931331646L313.5934,330.7262584269047L315.56622500000003,330.7496620416641L316.16665,330.7496620416641L316.595525,330.749014288187L317.7106,330.7459163367748L318.311025,330.75L319.59765,330.622392565012L320.62695,328.842253357172L320.884275,329.72685930132866L322.085125,328.3018298149109L322.1709,77.87425231933594L322.34245000000004,330.66908714175224L325.08725,330.7376645207405L325.173025,330.74777510762215L325.2588,323.7649081349373L325.85922500000004,330.75L326.80275,330.72803270816803L328.089375,330.7251318991184L328.51825,330.74971836805344L331.0915,329.5247320532799L332.206575,330.6630320549011L332.97855,330.74963387846947L333.750525,330.7477469444275L334.265175,330.6980952322483L334.608275,330.4768733382225L336.06645,330.7161196768284L336.238,330.74977469444275L336.323775,330.67742344737053L337.353075,-569.9112181663514L338.897025,330.74357879161835L340.35519999999997,330.7192176282406L341.0414,330.7498591840267L343.01422499999995,330.7498591840267L343.7862,330.11108976602554L343.95775000000003,330.74279022216797L344.1293,-1054.9071149826052L344.4724,330.7494367361069L344.558175,328.4325915277004L345.50169999999997,330.70581194758415L345.759025,328.6388587653637L346.445225,325.37198451161385L346.70255000000003,226.96685341000557L347.474525,330.74732449650764L348.76115,330.7487044930458L349.10425,330.74932408332825L349.2758,296.5629796385765L350.562425,330.687055259943L351.67749999999995,330.7230759859085L353.650325,322.6025004386902L354.93695,330.4811541438103L355.022725,330.7496620416641L355.62315,330.7497465312481L356.052025,330.7210763990879L356.4809,330.747211843729L356.82399999999996,330.7499436736107L356.99555000000004,330.7494367361069L358.36795,282.14553621411324L359.9119,330.6759589612484L359.997675,329.8300492465496L360.5981,330.74983102083206L360.855425,330.34729447960854L362.914025,330.7391571700573L363.17135,330.728117197752L363.771775,330.73338371515274L364.02909999999997,-502.610871076584L364.114875,329.74739027023315L364.286425,330.74997183680534L364.3722,330.74808490276337L366.0877,329.1116343140602L366.516575,330.67049530148506L367.28855000000004,330.71079683303833L369.34715,330.5079373419285L370.03335,330.6982360482216L371.2342,330.6034668982029L371.319975,330.6881536245346L371.74885,330.7465077638626L372.77815,-126.41218337416655L375.265625,287.81185832619667L375.43717499999997,330.7220339477062L375.608725,327.1907354593277L376.294925,330.7295535206795L377.7531,330.7487608194351L378.181975,330.7083747982979L380.069025,329.7053426206112L380.32635,330.55888456106186L380.755225,330.35644751787186L381.35564999999997,330.7494085729122L381.69875,330.6618773639202L381.8703,330.7030801177025L382.38495,322.8060921728611L382.470725,327.8683982491493L382.98537500000003,330.402494341135L383.5858,330.6439374089241L384.10044999999997,330.63053172826767L384.357775,329.62617588043213L385.81595,330.57406452298164L386.84525,330.71130377054214L387.102575,-534.5326130390168L387.70300000000003,328.85306802392006L389.0754,330.5305242240429L389.24694999999997,329.7291686832905L389.76160000000004,330.69201198220253L390.1047,327.0427097082138L390.27625,322.5936290323734L391.47709999999995,330.00012677907944L392.935275,324.84367114305496L394.650775,330.6760997772217L396.194725,330.65430146455765L396.36627500000003,330.7437477707863L396.537825,-334.3576939702035L396.79515000000004,330.7306518852711L397.05247499999996,330.7038968503475L398.51065,330.1599247455597L399.454175,145.89160618185997L399.53995,330.72614577412605L400.655025,330.1692749261856L403.228275,330.74014288187027L403.399825,330.7480567395687L405.45842500000003,330.739016354084L405.801525,-60.50205606222153L405.973075,330.74963387846947L406.487725,330.71854171156883L406.74505,330.74991551041603L406.9166,219.44784370064735L407.688575,330.1158211827278L408.289,330.7498028576374L409.404075,330.7499436736107L410.090275,330.59070897102356L411.20535,330.7483383715153L411.37690000000003,329.5570070743561L411.634225,330.7460008263588L412.66352500000005,330.74816939234734L413.006625,330.7456065416336L413.4355,330.74552205204964L413.60705,330.72504740953445L414.4648,329.1574839949608L414.80789999999996,330.74507144093513L417.295375,330.71769681572914L417.72425,330.72085109353065L418.324675,330.1950442492962L420.46905000000004,121.7272190451622L420.554825,324.38140046596527L421.241025,330.1963115930557L422.098775,330.64320516586304L422.78497500000003,329.4232882261276L423.3854,330.70826214551926L423.7285,330.74107226729393L424.67202499999996,328.23716711997986L425.186675,330.74003022909164L425.701325,330.23219150304794L427.588375,299.6477788388729L428.5319,330.7332147359848L428.960775,330.75L429.73275,-224.79323494434368L429.81852499999997,25.052209317684174L430.847825,330.7303702533245L431.79134999999997,330.39601680636406L432.04867500000006,-599.1930549144746L432.906425,330.7310743331909L432.9922,307.8271309733391L436.93784999999997,330.7483102083206L437.36672500000003,277.0057250261307L437.4525,329.5548103451729L438.31025,330.28265994787216L444.571825,330.74997183680534L445.51534999999996,330.7485073506832L445.60112499999997,330.667059391737L445.77267500000005,330.7480004131794L445.944225,330.7497465312481L446.20155,330.33141043782234L446.287325,329.2868375480175L448.43170000000003,330.3863849937916L448.860575,330.74932408332825L449.11789999999996,-614.2463951110841L449.8041,330.74971836805344L450.74762499999997,330.73622819781303L451.51959999999997,330.74963387846947L451.77692499999995,330.74991551041603L451.8627,330.740903288126L453.149325,330.7494367361069L454.52172500000006,330.7476624548435L455.03637499999996,330.5075993835926L455.379475,330.7408469617367L456.15145000000007,330.49667206406593L456.32300000000004,327.41651979088783L457.09497500000003,330.0245442688465L457.43807499999997,330.74526858329773L457.95272500000004,330.74946489930153L458.3816,330.68057772517204L460.61175000000003,330.67933854460716L461.383725,330.74707102775574L462.67035,327.7241463661194L463.270775,-613.9593558311464L463.785425,330.67539569735527L464.128525,330.75L464.21430000000004,330.7499436736107L465.84402500000004,-562.5471060276033L466.10134999999997,330.72454047203064L466.61600000000004,330.7014466524124L469.18925,330.74602898955345L469.7039,330.68553444743156L470.047,330.72273802757263L470.304325,330.7487044930458L470.99052500000005,330.7416636943817L471.162075,330.730905354023L472.62025000000006,320.1455433368683L472.706025,330.74681755900383L474.33575,328.9745922088623L474.42152500000003,-531.7235033512117L474.67885,330.7483383715153L475.450825,329.5870290398598L476.13702500000005,330.7489016354084L476.308575,330.67714181542397L476.39435000000003,309.2002275288105L478.53872499999994,-613.830706357956L478.79605000000004,330.7469583749771L479.739575,-614.0518437623979L479.9969,330.74873265624046L480.16844999999995,329.16086357831955L480.34000000000003,330.6937581002712L481.3693,329.994015365839L482.82747499999994,210.7220974266529L484.62874999999997,330.72499108314514L485.229175,-613.9938275814058L485.915375,263.2157294154167L486.258475,330.7400583922863L486.8589,330.7469020485878L486.94467499999996,330.7499436736107L487.03045,330.5497033596039L487.8882,329.3569920659065L490.11835,330.70710745453835L490.54722499999997,330.73904451727867L491.919625,330.52804586291313L492.34849999999994,185.3084473013878L492.86315,330.5020512342453L493.20624999999995,330.6453737318516L493.29202499999997,330.7401710450649L493.97822499999995,323.75820529460907L494.23555000000005,330.7249629199505L494.321325,326.0837247669697L494.492875,330.5596449673176L494.7502,330.7373547255993L495.522175,308.3807348906994L495.86527499999994,330.7487889826298L496.208375,330.205633610487L496.46569999999997,66.61297363042831L496.551475,330.72608944773674L497.066125,330.70446011424065L497.58077499999996,-514.8902492523194L497.75232500000004,330.74738082289696L498.00965,324.4849283695221L501.01177499999994,330.74157920479774L502.04107500000003,330.7473526597023L503.67080000000004,-565.8191059827806L503.84235,326.3842542171478L505.21475,330.7492959201336L505.472075,330.6553153395653L505.64362500000004,330.74132573604584L505.7294,-216.88669967651379L507.359125,320.99897262454033L509.41772499999996,329.47665748000145L509.67504999999994,67.42643934488297L510.79012500000005,330.74816939234734L511.47632500000003,330.74873265624046L512.2483,330.74042451381683L512.505625,230.49564537405968L512.677175,330.7470991909504L512.76295,330.7470428645611L513.9638,330.7188796699047L514.65,330.74397307634354L516.5370499999999,329.5683568418026L517.0517,330.6869989335537L517.309025,330.6085644364357L517.90945,233.6429105401039L519.0245249999999,330.72949719429016L519.196075,330.4139285981655L519.2818500000001,-322.73468720912945L519.8822749999999,330.7330175936222L521.426225,-339.5504238009454L523.39905,329.98108845949173L523.827925,330.6931103467941L523.9137000000001,282.3890351951122L525.5434250000001,330.7432971596718L525.714975,330.70905071496964L526.229625,301.0154680609703L528.459775,330.7493522465229L528.88865,330.6017771065235L530.003725,330.7498873472214L530.346825,330.7230759859085L531.890775,312.26781901717186L532.5769750000001,330.7289620935917L534.5498,330.6846895515919L534.807125,330.74873265624046L534.8929,330.4750708937645L535.236,330.747296333313L535.321775,330.7498028576374L535.664875,330.74726817011833L537.551925,330.4690158069134L539.52475,330.70986744761467L540.639825,330.7237237393856L542.0122250000001,330.73867839574814L542.95575,330.739100843668L544.32815,-605.0770785212518L545.529,330.7342567741871L545.614775,-191.65253359079372L545.8720999999999,325.95510345697403L547.330275,330.74726817011833L547.673375,329.8552834689617L549.388875,330.5744869709015L549.560425,330.7460008263588L550.761275,330.6964336037636L551.1901499999999,330.74957755208015L552.391,330.74816939234734L552.476775,330.74997183680534L552.648325,330.7492959201336L553.0772000000001,330.7468457221985L555.4789,330.7498873472214L556.250875,327.3802737593651L556.8513,329.39106953144073L557.1944,330.7450432777405L557.70905,330.64551454782486L558.2237,-408.28991013765346L558.652575,155.99320900440216L558.9099,330.71964007616043L559.08145,301.28482085466385L560.368075,330.72769474983215L561.14005,330.7498591840267L561.8262500000001,330.7498028576374L563.2844249999999,330.74932408332825L563.7133,330.7443955242634L563.88485,330.69632095098495L564.91415,330.7498591840267L565.0857000000001,330.75L565.6003499999999,330.7498873472214L566.62965,330.74791592359543L567.058525,330.2130968570709L567.916275,330.67074877023697L568.774025,330.7388192117214L570.2321999999999,330.7434098124504L571.175725,330.7499436736107L571.347275,330.74907061457634L571.690375,330.621491342783L572.9770000000001,329.0916384458542L576.493775,330.7492114305496L576.7511,330.7499436736107L577.0942,330.7452967464924L578.2950500000001,330.73938247561455L579.238575,330.7499436736107L579.839,330.7448461353779L581.2971749999999,-501.18356037139904L581.5545000000001,330.6630602180958L581.983375,330.7469020485878L582.4122500000001,330.74462082982063L582.9268999999999,330.2795338332653L583.9562,330.74853551387787L584.041975,330.69671523571014L585.50015,330.74983102083206L585.757475,330.7066850066185L586.3579,330.74971836805344L588.673825,329.93109878897667L588.845375,-21.730349242687225L589.4458000000001,330.7419171631336L590.30355,330.7283143401146L590.98975,330.7497465312481L591.1613,330.74388858675957L591.761725,329.26472944021225L592.5337,330.6229558289051L593.39145,330.73642534017563L593.477225,330.73603105545044L594.334975,330.7478877604008L594.678075,330.7474934756756L594.76385,330.74977469444275L596.393575,330.6918993294239L596.82245,330.7380588054657L596.9939999999999,330.7428183853626L597.3371,330.7449587881565L598.1090750000001,330.75L599.6530250000001,330.4964467585087L601.368525,330.7267090380192L601.7974,330.74667674303055L602.569375,322.5802796781063L603.084025,330.74791592359543L603.1698,330.73603105545044L603.255575,330.74853551387787L603.5129000000001,330.7498591840267L603.770225,330.7499436736107L605.6572749999999,330.73749554157257L607.11545,330.7498591840267L607.201225,327.90647488832474L607.5443250000001,330.7497465312481L607.9732,330.7498873472214L608.573625,330.74971836805344L609.3456,330.7425085902214L609.51715,330.74963387846947L610.3749,330.5332842171192L610.8895500000001,330.69187116622925L611.0611,330.61904114484787L611.57575,330.71775314211845L611.7473,330.74653592705727L611.91885,330.73008862137794L612.94815,329.3432484269142L613.1197,329.8113488852978L613.29125,330.7463669478893L615.264075,330.7147678434849L616.0360499999999,328.44213885068893L616.293375,330.70350256562233L617.6657749999999,330.7405090034008L618.523525,330.74667674303055L618.6093,330.7463669478893L618.78085,330.7431563436985L619.2955,330.73459473252296L619.81015,330.7139229476452L620.410575,330.7350735068321L620.8394499999999,330.72259721159935L621.439875,325.1153333187103L621.954525,330.7494085729122L623.0696,330.7177249789238L625.29975,330.7478877604008L627.01525,330.7174715101719L627.272575,330.67947936058044L627.615675,330.7487608194351L627.70145,330.698855638504L628.301875,330.65770921111107L629.76005,330.74983102083206L630.703575,330.7408469617367L631.6471,329.73375928401947L632.247525,248.4802671968937L632.7621750000001,330.56826290488243L634.820775,330.7454657256603L638.8522,330.5251450538635L639.5384,330.7472400069237L639.8815,330.641487210989L640.996575,329.9006825387478L641.9400999999999,329.61429101228714L642.2832,330.7425649166107L642.9694000000001,330.74197348952293L643.0551750000001,325.03301230072975L643.398275,330.7202315032482L644.17025,329.5688074529171L644.256025,330.749014288187L645.113775,327.26686057448387L645.1995499999999,330.7362000346184L645.285325,330.0535523593426L645.971525,330.7254698574543L647.687025,322.25555804371834L649.7456249999999,319.25215047597885L650.0887250000001,323.93895667791367L650.260275,330.74853551387787L650.34605,330.7242588400841L650.6033749999999,330.7499436736107L651.37535,330.7476906180382L651.4611249999999,330.74991551041603L652.2330999999999,-166.92868459224712L652.4904250000001,322.4572346806526L653.3481750000001,330.74892979860306L653.77705,330.7487889826298L656.86495,330.7498873472214L657.636925,330.7493522465229L657.808475,330.7266245484352L658.151575,330.74991551041603L658.666225,320.43444138765335L658.92355,330.7462542951107L659.5239750000001,330.7495493888855L659.7813,330.74991551041603L660.210175,296.85111728310585L660.4675,330.642388433218L661.1537000000001,330.7487889826298L661.4968,330.72408986091614L661.8399,330.7496902048588L662.69765,330.74952122569084L662.7834250000001,330.1238195300102L663.812725,330.7323135137558L664.1558249999999,65.2383844256401L664.75625,330.74597266316414L665.09935,322.3314860165119L666.042875,330.72245639562607L667.0721749999999,330.51841405034065L668.444575,216.55024525523186L670.5889500000001,330.6491194367409L671.875575,330.5626021027565L673.076425,330.7499436736107L673.419525,236.2213073372841L673.762625,330.69541972875595L674.4488249999999,330.5327209532261L674.963475,330.73569309711456L675.04925,-612.7834861278535L676.507425,329.3065236210823L677.2794,330.60453709959984L677.79405,330.5253703594208L678.4802500000001,330.74926775693893L678.737575,330.74957755208015L680.624625,330.74926775693893L680.88195,330.7341159582138L682.0828,330.7487608194351L682.4259,330.73997390270233L683.1120999999999,330.7427620589733L683.369425,330.74918326735497L683.884075,330.7499436736107L685.428025,330.74712735414505L685.599575,330.7498591840267L687.1435250000001,330.06042417883873L687.315075,-611.3280122280122L687.5724,322.8057823777199L688.859025,330.0963322520256L689.11635,330.35174426436424L689.45945,330.74673306941986L690.059875,330.7460008263588L691.17495,330.74248042702675L691.6896,330.7498873472214L692.89045,330.7498028576374L693.91975,326.17249515652657L694.520175,330.7499436736107L695.206375,-507.37799870967876L695.892575,330.7499436736107L695.97835,330.74997183680534L696.4072249999999,330.74653592705727L696.750325,330.74977469444275L697.8654,330.7387628853321L698.2085,330.75L699.40935,330.7498591840267L700.4386499999999,330.739917576313L700.524425,330.7482538819313L701.12485,330.7497465312481L701.81105,330.73887553811073L702.3257,330.602227717638L702.8403500000001,-144.3664734363557L703.440775,-574.1142933368684L703.612325,330.7450996041298L704.3843,330.70691031217575L704.55585,326.1264483332634L704.641625,330.55584293603897L706.27135,320.27517852187157L706.528675,330.7308771908283L707.30065,330.744508177042L708.415725,330.7465922534466L709.35925,-28.67359060049057L709.616575,330.74312818050385L710.474325,330.6001718044281L711.846725,329.98959374427795L712.79025,-600.8694972395898L714.3342,330.7485918402672L715.19195,-129.65675237774855L715.277725,330.73732656240463L715.7066,330.74971836805344L715.792375,330.746395111084L716.3928000000001,330.7011368572712L716.7359,330.74791592359543L716.821675,330.75L716.90745,330.7143735587597L718.194075,330.74738082289696L718.7945,330.75L718.880275,330.7463669478893L719.223375,330.7374673783779L719.3949250000001,330.74977469444275L720.1669,328.8774291872978L720.51,330.73577758669853L720.767325,330.07732209563255L722.997475,330.7478032708168L723.08325,329.60305389761925L723.855225,330.74963387846947L724.1125499999999,330.7496902048588L724.45565,308.9002331793308L724.712975,328.5590161085129L725.570725,330.74997183680534L725.6564999999999,330.7485636770725L725.742275,330.7176123261452L725.82805,329.8434830904007L726.256925,316.15625497698784L726.7715750000001,330.7470991909504L727.114675,330.7465922534466L727.286225,330.665172457695L728.658625,330.28775748610497L729.173275,325.66865560412407L729.25905,330.74983102083206L729.94525,330.1051754951477L730.4599000000001,330.6729173362255L731.574975,-109.4618548750878L732.1754,325.1782780587673L733.03315,330.74718368053436L734.5771000000001,330.7281735241413L735.2633,330.7479440867901L737.236125,326.12732139229774L737.83655,228.30097210407257L738.3512000000001,330.732623308897L738.608525,330.51027488708496L741.26755,330.7284269928932L741.3533249999999,330.57876777648926L742.725725,330.4912084043026L742.8115,324.37734496593475L743.66925,330.7498873472214L743.926575,330.7496620416641L744.0981250000001,330.74938040971756L745.04165,330.7495493888855L745.5563,330.74957755208015L745.813625,330.7499436736107L746.156725,330.65830063819885L747.529125,330.74743714928627L747.700675,330.74422654509544L747.7864500000001,278.92820101976395L748.12955,330.74881714582443L748.386875,330.74681755900383L748.558425,329.6332448422909L749.759275,330.6830560863018L750.102375,-458.50742089748394L751.0459000000001,242.81569120287895L751.303225,330.5679531097412L753.018725,330.7096703052521L753.704925,330.5940885543823L754.562675,327.6846334040165L754.64845,330.7273567914963L755.591975,330.7288776040077L757.5648,330.45006197690964L757.993675,330.2794211804867L759.4518499999999,325.5541158914566L761.4246750000001,330.74963387846947L761.596225,330.7493522465229L763.22595,305.5350975394249L763.311725,318.7343983054161L763.654825,330.72608944773674L763.997925,330.4438097476959L765.541875,330.2615375518799L766.056525,330.7492114305496L766.1423,330.72040048241615L769.7448499999999,329.0491401851177L770.43105,330.43713507056236L771.11725,330.4170265495777L771.203025,330.4246587753296L772.6612,329.0290035009384L773.3474,-36.045813739299774L773.776275,330.4007200598717L774.119375,330.4489917755127L775.0629,317.0874428451061L776.0922,330.55294212698936L776.349525,209.31340259313583L776.521075,330.56496781110764L776.8641749999999,74.6772791147232L777.550375,330.7496057152748L780.8956,330.6978417634964L782.696875,330.7480004131794L783.211525,330.74022737145424L783.2973000000001,330.74926775693893L783.46885,325.1334140896797L784.755475,330.7490424513817L785.3559,330.7492959201336L787.3287250000001,268.01104840636253L787.500275,329.31869012117386L787.671825,330.51252794265747L788.61535,330.7499436736107L788.872675,330.7456910312176L790.3308499999999,326.8219947516918L790.8455,330.7475498020649L791.9605750000001,328.22328266501427L793.676075,330.6981515586376L794.44805,330.748113065958L795.6489,330.7417481839657L795.8204499999999,330.70671316981316L795.9920000000001,330.74932408332825L796.763975,293.3112571835518L797.53595,330.25646817684174L798.2221499999999,330.7483102083206L799.93765,330.58555510640144L800.1092,330.7499436736107L800.366525,330.61273258924484L800.538075,330.7480004131794L801.052725,330.73628452420235L802.082025,330.73704493045807L802.1678,330.74287471175194L802.7682249999999,330.7463669478893L803.0255500000001,327.51700606942177L803.454425,330.6988838016987L804.05485,318.63703814148903L804.2264,328.5489900112152L805.5988,330.74816939234734" fill="none"></path></g></g></g></g></g></g><g transform="translate(58, 378)" clip-path="url(#clip_1)"><clipPath id="clip_1"><rect width="857" height="22"></rect></clipPath><g><g><line x1="0" y1="0" x2="0" y2="5" style="visibility: inherit;" fill="rgb(0, 0, 0)" stroke="rgb(204, 204, 204)" stroke-width="1px"></line><line x1="85.775" y1="0" x2="85.775" y2="5" style="visibility: inherit;" fill="rgb(0, 0, 0)" stroke="rgb(204, 204, 204)" stroke-width="1px"></line><line x1="171.55" y1="0" x2="171.55" y2="5" style="visibility: inherit;" fill="rgb(0, 0, 0)" stroke="rgb(204, 204, 204)" stroke-width="1px"></line><line x1="257.325" y1="0" x2="257.325" y2="5" style="visibility: inherit;" fill="rgb(0, 0, 0)" stroke="rgb(204, 204, 204)" stroke-width="1px"></line><line x1="343.1" y1="0" x2="343.1" y2="5" style="visibility: inherit;" fill="rgb(0, 0, 0)" stroke="rgb(204, 204, 204)" stroke-width="1px"></line><line x1="428.875" y1="0" x2="428.875" y2="5" style="visibility: inherit;" fill="rgb(0, 0, 0)" stroke="rgb(204, 204, 204)" stroke-width="1px"></line><line x1="514.65" y1="0" x2="514.65" y2="5" style="visibility: inherit;" fill="rgb(0, 0, 0)" stroke="rgb(204, 204, 204)" stroke-width="1px"></line><line x1="600.425" y1="0" x2="600.425" y2="5" style="visibility: inherit;" fill="rgb(0, 0, 0)" stroke="rgb(204, 204, 204)" stroke-width="1px"></line><line x1="686.2" y1="0" x2="686.2" y2="5" style="visibility: inherit;" fill="rgb(0, 0, 0)" stroke="rgb(204, 204, 204)" stroke-width="1px"></line><line x1="771.975" y1="0" x2="771.975" y2="5" style="visibility: inherit;" fill="rgb(0, 0, 0)" stroke="rgb(204, 204, 204)" stroke-width="1px"></line><line x1="857.75" y1="0" x2="857.75" y2="5" style="visibility: inherit;" fill="rgb(0, 0, 0)" stroke="rgb(204, 204, 204)" stroke-width="1px"></line></g><g transform="translate(0, 8)"><text x="0" y="0" dx="0em" dy="0.95em" style="text-anchor: middle; visibility: hidden; font-family: &quot;Helvetica Neue&quot;, sans-serif; font-size: 12px; font-weight: 200;" fill="rgb(50, 49, 63)" stroke="none" stroke-width="1px">-100k</text><text x="85.775" y="0" dx="0em" dy="0.95em" style="text-anchor: middle; visibility: inherit; font-family: &quot;Helvetica Neue&quot;, sans-serif; font-size: 12px; font-weight: 200;" fill="rgb(50, 49, 63)" stroke="none" stroke-width="1px">0</text><text x="171.55" y="0" dx="0em" dy="0.95em" style="text-anchor: middle; visibility: inherit; font-family: &quot;Helvetica Neue&quot;, sans-serif; font-size: 12px; font-weight: 200;" fill="rgb(50, 49, 63)" stroke="none" stroke-width="1px">100k</text><text x="257.325" y="0" dx="0em" dy="0.95em" style="text-anchor: middle; visibility: inherit; font-family: &quot;Helvetica Neue&quot;, sans-serif; font-size: 12px; font-weight: 200;" fill="rgb(50, 49, 63)" stroke="none" stroke-width="1px">200k</text><text x="343.1" y="0" dx="0em" dy="0.95em" style="text-anchor: middle; visibility: inherit; font-family: &quot;Helvetica Neue&quot;, sans-serif; font-size: 12px; font-weight: 200;" fill="rgb(50, 49, 63)" stroke="none" stroke-width="1px">300k</text><text x="428.875" y="0" dx="0em" dy="0.95em" style="text-anchor: middle; visibility: inherit; font-family: &quot;Helvetica Neue&quot;, sans-serif; font-size: 12px; font-weight: 200;" fill="rgb(50, 49, 63)" stroke="none" stroke-width="1px">400k</text><text x="514.65" y="0" dx="0em" dy="0.95em" style="text-anchor: middle; visibility: inherit; font-family: &quot;Helvetica Neue&quot;, sans-serif; font-size: 12px; font-weight: 200;" fill="rgb(50, 49, 63)" stroke="none" stroke-width="1px">500k</text><text x="600.425" y="0" dx="0em" dy="0.95em" style="text-anchor: middle; visibility: inherit; font-family: &quot;Helvetica Neue&quot;, sans-serif; font-size: 12px; font-weight: 200;" fill="rgb(50, 49, 63)" stroke="none" stroke-width="1px">600k</text><text x="686.2" y="0" dx="0em" dy="0.95em" style="text-anchor: middle; visibility: inherit; font-family: &quot;Helvetica Neue&quot;, sans-serif; font-size: 12px; font-weight: 200;" fill="rgb(50, 49, 63)" stroke="none" stroke-width="1px">700k</text><text x="771.975" y="0" dx="0em" dy="0.95em" style="text-anchor: middle; visibility: inherit; font-family: &quot;Helvetica Neue&quot;, sans-serif; font-size: 12px; font-weight: 200;" fill="rgb(50, 49, 63)" stroke="none" stroke-width="1px">800k</text><text x="857.75" y="0" dx="0em" dy="0.95em" style="text-anchor: middle; visibility: hidden; font-family: &quot;Helvetica Neue&quot;, sans-serif; font-size: 12px; font-weight: 200;" fill="rgb(50, 49, 63)" stroke="none" stroke-width="1px">900k</text></g><line x1="0" y1="0" x2="857.75" y2="0" fill="rgb(0, 0, 0)" stroke="rgb(204, 204, 204)" stroke-width="1px"></line></g></g></g></g></svg>