<svg viewBox="0 0 915.75 400" xmlns="http://www.w3.org/2000/svg"><g><g><g><g><g><line x1="34" y1="378" x2="29" y2="378" style="visibility: inherit;" fill="rgb(0, 0, 0)" stroke="rgb(204, 204, 204)" stroke-width="1px"></line><line x1="34" y1="336" x2="29" y2="336" style="visibility: inherit;" fill="rgb(0, 0, 0)" stroke="rgb(204, 204, 204)" stroke-width="1px"></line><line x1="34" y1="294" x2="29" y2="294" style="visibility: inherit;" fill="rgb(0, 0, 0)" stroke="rgb(204, 204, 204)" stroke-width="1px"></line><line x1="34" y1="252" x2="29" y2="252" style="visibility: inherit;" fill="rgb(0, 0, 0)" stroke="rgb(204, 204, 204)" stroke-width="1px"></line><line x1="34" y1="210" x2="29" y2="210" style="visibility: inherit;" fill="rgb(0, 0, 0)" stroke="rgb(204, 204, 204)" stroke-width="1px"></line><line x1="34" y1="168" x2="29" y2="168" style="visibility: inherit;" fill="rgb(0, 0, 0)" stroke="rgb(204, 204, 204)" stroke-width="1px"></line><line x1="34" y1="126" x2="29" y2="126" style="visibility: inherit;" fill="rgb(0, 0, 0)" stroke="rgb(204, 204, 204)" stroke-width="1px"></line><line x1="34" y1="84" x2="29" y2="84" style="visibility: inherit;" fill="rgb(0, 0, 0)" stroke="rgb(204, 204, 204)" stroke-width="1px"></line><line x1="34" y1="42" x2="29" y2="42" style="visibility: inherit;" fill="rgb(0, 0, 0)" stroke="rgb(204, 204, 204)" stroke-width="1px"></line><line x1="34" y1="0" x2="29" y2="0" style="visibility: inherit;" fill="rgb(0, 0, 0)" stroke="rgb(204, 204, 204)" stroke-width="1px"></line></g><g transform="translate(24, 0)"><text x="0" y="378" dx="0em" dy="0.3em" style="text-anchor: end; visibility: hidden; font-family: &quot;Helvetica Neue&quot;, sans-serif; font-size: 12px; font-weight: 200;" fill="rgb(50, 49, 63)" stroke="none" stroke-width="1px">12</text><text x="0" y="336" dx="0em" dy="0.3em" style="text-anchor: end; visibility: inherit; font-family: &quot;Helvetica Neue&quot;, sans-serif; font-size: 12px; font-weight: 200;" fill="rgb(50, 49, 63)" stroke="none" stroke-width="1px">14</text><text x="0" y="294" dx="0em" dy="0.3em" style="text-anchor: end; visibility: inherit; font-family: &quot;Helvetica Neue&quot;, sans-serif; font-size: 12px; font-weight: 200;" fill="rgb(50, 49, 63)" stroke="none" stroke-width="1px">16</text><text x="0" y="252" dx="0em" dy="0.3em" style="text-anchor: end; visibility: inherit; font-family: &quot;Helvetica Neue&quot;, sans-serif; font-size: 12px; font-weight: 200;" fill="rgb(50, 49, 63)" stroke="none" stroke-width="1px">18</text><text x="0" y="210" dx="0em" dy="0.3em" style="text-anchor: end; visibility: inherit; font-family: &quot;Helvetica Neue&quot;, sans-serif; font-size: 12px; font-weight: 200;" fill="rgb(50, 49, 63)" stroke="none" stroke-width="1px">20</text><text x="0" y="168" dx="0em" dy="0.3em" style="text-anchor: end; visibility: inherit; font-family: &quot;Helvetica Neue&quot;, sans-serif; font-size: 12px; font-weight: 200;" fill="rgb(50, 49, 63)" stroke="none" stroke-width="1px">22</text><text x="0" y="126" dx="0em" dy="0.3em" style="text-anchor: end; visibility: inherit; font-family: &quot;Helvetica Neue&quot;, sans-serif; font-size: 12px; font-weight: 200;" fill="rgb(50, 49, 63)" stroke="none" stroke-width="1px">24</text><text x="0" y="84" dx="0em" dy="0.3em" style="text-anchor: end; visibility: inherit; font-family: &quot;Helvetica Neue&quot;, sans-serif; font-size: 12px; font-weight: 200;" fill="rgb(50, 49, 63)" stroke="none" stroke-width="1px">26</text><text x="0" y="42" dx="0em" dy="0.3em" style="text-anchor: end; visibility: inherit; font-family: &quot;Helvetica Neue&quot;, sans-serif; font-size: 12px; font-weight: 200;" fill="rgb(50, 49, 63)" stroke="none" stroke-width="1px">28</text><text x="0" y="0" dx="0em" dy="0.3em" style="text-anchor: end; visibility: hidden; font-family: &quot;Helvetica Neue&quot;, sans-serif; font-size: 12px; font-weight: 200;" fill="rgb(50, 49, 63)" stroke="none" stroke-width="1px">30</text></g><line x1="34" y1="0" x2="34" y2="378" fill="rgb(0, 0, 0)" stroke="rgb(204, 204, 204)" stroke-width="1px"></line></g></g><g transform="translate(34, 0)" clip-path="url(#clip_0)"><clipPath id="clip_0"><rect width="881" height="378"></rect></clipPath><g><g><g><line x1="0" y1="0" x2="0" y2="378" fill="rgb(0, 0, 0)" stroke="rgb(60, 60, 60)" stroke-width="1px" opacity="0.25"></line><line x1="88.17500000000001" y1="0" x2="88.17500000000001" y2="378" fill="rgb(0, 0, 0)" stroke="rgb(60, 60, 60)" stroke-width="1px" opacity="0.25"></line><line x1="176.35000000000002" y1="0" x2="176.35000000000002" y2="378" fill="rgb(0, 0, 0)" stroke="rgb(60, 60, 60)" stroke-width="1px" opacity="0.25"></line><line x1="264.525" y1="0" x2="264.525" y2="378" fill="rgb(0, 0, 0)" stroke="rgb(60, 60, 60)" stroke-width="1px" opacity="0.25"></line><line x1="352.70000000000005" y1="0" x2="352.70000000000005" y2="378" fill="rgb(0, 0, 0)" stroke="rgb(60, 60, 60)" stroke-width="1px" opacity="0.25"></line><line x1="440.875" y1="0" x2="440.875" y2="378" fill="rgb(0, 0, 0)" stroke="rgb(60, 60, 60)" stroke-width="1px" opacity="0.25"></line><line x1="529.05" y1="0" x2="529.05" y2="378" fill="rgb(0, 0, 0)" stroke="rgb(60, 60, 60)" stroke-width="1px" opacity="0.25"></line><line x1="617.2249999999999" y1="0" x2="617.2249999999999" y2="378" fill="rgb(0, 0, 0)" stroke="rgb(60, 60, 60)" stroke-width="1px" opacity="0.25"></line><line x1="705.4000000000001" y1="0" x2="705.4000000000001" y2="378" fill="rgb(0, 0, 0)" stroke="rgb(60, 60, 60)" stroke-width="1px" opacity="0.25"></line><line x1="793.575" y1="0" x2="793.575" y2="378" fill="rgb(0, 0, 0)" stroke="rgb(60, 60, 60)" stroke-width="1px" opacity="0.25"></line><line x1="881.75" y1="0" x2="881.75" y2="378" fill="rgb(0, 0, 0)" stroke="rgb(60, 60, 60)" stroke-width="1px" opacity="0.25"></line></g><g><line x1="0" y1="378" x2="881.75" y2="378" fill="rgb(0, 0, 0)" stroke="rgb(60, 60, 60)" stroke-width="1px" opacity="0.25"></line><line x1="0" y1="336" x2="881.75" y2="336" fill="rgb(0, 0, 0)" stroke="rgb(60, 60, 60)" stroke-width="1px" opacity="0.25"></line><line x1="0" y1="294" x2="881.75" y2="294" fill="rgb(0, 0, 0)" stroke="rgb(60, 60, 60)" stroke-width="1px" opacity="0.25"></line><line x1="0" y1="252" x2="881.75" y2="252" fill="rgb(0, 0, 0)" stroke="rgb(60, 60, 60)" stroke-width="1px" opacity="0.25"></line><line x1="0" y1="210" x2="881.75" y2="210" fill="rgb(0, 0, 0)" stroke="rgb(60, 60, 60)" stroke-width="1px" opacity="0.25"></line><line x1="0" y1="168" x2="881.75" y2="168" fill="rgb(0, 0, 0)" stroke="rgb(60, 60, 60)" stroke-width="1px" opacity="0.25"></line><line x1="0" y1="126" x2="881.75" y2="126" fill="rgb(0, 0, 0)" stroke="rgb(60, 60, 60)" stroke-width="1px" opacity="0.25"></line><line x1="0" y1="84" x2="881.75" y2="84" fill="rgb(0, 0, 0)" stroke="rgb(60, 60, 60)" stroke-width="1px" opacity="0.25"></line><line x1="0" y1="42" x2="881.75" y2="42" fill="rgb(0, 0, 0)" stroke="rgb(60, 60, 60)" stroke-width="1px" opacity="0.25"></line><line x1="0" y1="0" x2="881.75" y2="0" fill="rgb(0, 0, 0)" stroke="rgb(60, 60, 60)" stroke-width="1px" opacity="0.25"></line></g></g></g><g><g><line x1="0" y1="630" x2="881.75" y2="630" fill="rgb(0, 0, 0)" stroke="rgb(153, 153, 153)" stroke-width="1.5px"></line></g></g><g><g><line x1="88.17500000000001" y1="0" x2="88.17500000000001" y2="378" fill="rgb(0, 0, 0)" stroke="rgb(153, 153, 153)" stroke-width="1.5px"></line></g></g><g><g><g><g><g><path style="fill: none;" stroke="rgb(255, 112, 67)" stroke-width="2px" d="M118.15450000000001,-28.68062746948914L118.8599,15.707254653434973L120.27069999999999,20.634137019920786L120.6234,29.065950428804626L125.38485,32.35246208187033L125.473025,22.97385177548466L126.972,25.19189796012631L127.23652500000001,24.482375494541543L127.50105,27.956333412023923L128.823675,42.349968743766055L129.0882,49.19621360832912L129.17637499999998,69.2181135702296L130.058125,70.74818674984289L131.5571,55.59642255002632L131.73345,48.51815844601805L133.585125,51.77597938923151L135.0841,66.2834543189864L135.524975,71.75552259016399L137.9057,73.7332101351659L138.78745,78.65856524133193L139.3165,87.79903366064417L139.49285,104.37441637327294L139.933725,96.62587432684381L140.0219,77.76823909454635L141.344525,98.72252002708001L142.93167499999998,91.03907079690083L143.108025,94.80241256734149L144.166125,106.27978101823106L144.78335,122.7315388165139L144.871525,117.65469267908469L145.047875,109.17262690261674L145.3124,118.37383845243164L145.48875,109.61559672554847L146.54684999999998,70.16089186246154L147.4286,82.74185227988039L148.48669999999998,106.64150614165231L148.927575,109.62362192099948L151.22012500000002,116.76171147463629L151.572825,115.17332518756649L151.92552500000002,125.07547628172196L152.0137,124.18726732673377L152.630925,127.11058222687237L153.4245,137.31252234617943L153.7772,152.34147775409446L154.12990000000002,155.15425873910777L154.570775,136.1062096729865L154.923475,140.05703958596047L155.71705,153.66312254333678L156.06975,148.3188490673171L156.24609999999998,148.63488434114043L156.42245,136.6816447945344L157.03967500000002,138.09274993133187L157.48055,142.60534269699286L157.65689999999998,142.63207093588858L158.09777499999998,109.30267095107405L158.274125,134.74056565764866L158.626825,137.86598573230458L158.979525,136.8329981975066L159.508575,131.51576296008622L159.59675,134.24756226183513L161.624775,127.22858171822688L161.977475,128.6633361707522L164.88725,138.72598815104567L165.504475,127.56556263232488L166.033525,135.13459250680296L167.267975,127.0621716289412L167.620675,150.43752618244133L168.2379,116.75729567577406L168.41425,137.57430073001123L168.9433,132.08865485044967L169.11965,147.60531338075384L170.35410000000002,146.63532433854542L170.442275,146.29267784136653L171.324025,163.86482188495827L171.58855,182.05865546298656L172.382125,200.58742330907126L172.734825,188.53371502814835L173.087525,189.14363556896353L173.88109999999998,170.35798858202944L173.969275,191.95867612741532L174.498325,183.18431493463677L174.5865,192.6394715434838L175.027375,192.26277760232668L176.085475,182.55581506489597L176.61452500000001,198.48081028702072L176.87905,200.57956744263728L177.672625,179.3433092250174L180.317875,175.54437966821618L181.46415000000002,139.37890507058896L181.9932,113.9037993911848L182.257725,110.20359845809287L182.434075,103.04232922836945L182.786775,101.14725409449665L183.315825,71.80929366254531L183.7567,94.40940046641242L184.63845,113.39020893294821L185.1675,118.02539633051947L185.608375,133.69664122839185L186.490125,135.33116685065266L186.93099999999998,124.1050514449312L190.193475,142.04790796263435L190.54617499999998,147.54187138397972L190.63435,149.7063422160713L190.722525,169.3541597682714L192.309675,168.67511025458518L193.367775,146.92388030085309L193.45595,131.9078686067197L193.985,132.37581372201737L194.602225,143.570854519079L196.894775,126.68644963167125L197.952875,118.75931340578825L198.9228,112.70506824523892L199.187325,120.9398757320293L199.45185,124.69203111692548L201.21535,128.81214684469333L201.7444,118.08402684679538L202.361625,141.7636192651757L202.890675,137.39634389318718L204.30147499999998,157.27708291725475L204.566,131.6736912509974L205.535925,132.12419859299817L205.80044999999998,151.38066799118485L206.064975,159.23601710601065L206.15315,159.1967455706339L210.38555,141.49704411436187L210.65007500000002,136.44803376093273L210.9146,147.81057754960423L211.002775,128.3462477092823L212.942625,128.2023659987286L214.000725,139.10396102783065L214.177075,138.92059338566727L214.529775,125.03094900557866L214.882475,112.07876478860356L215.235175,117.15418765896902L217.43955000000003,138.47166614803186L217.527725,140.9976006147645L218.49765,142.02286498117186L219.20305,146.42142082157693L219.55575,165.70395327019276L219.7321,168.26739109061882L221.231075,184.70015434705317L222.55370000000002,205.31874266839503L222.90640000000002,218.267546671203L225.11077500000002,216.94918928867304L226.521575,228.20280691650441L226.60975000000002,245.79358941563262L227.932375,253.06160361232756L228.285075,251.26927247477477L229.695875,251.66715373100942L229.78405,255.1332699432718L230.930325,239.14866566271044L231.7239,245.10364631526883L232.164775,260.0277223338152L232.60564999999997,259.39494063856176L232.870175,248.07613499021895L233.31105,247.15266493739142L233.57557500000001,232.86603764142876L234.633675,231.13459477866266L235.33907500000004,237.30289495253965L235.9563,244.83027081433232L236.573525,250.29432969153342L237.3671,244.38723024327467L237.7198,241.4736754445589L237.807975,237.08992712884432L237.89614999999998,226.0039976863369L238.07250000000002,223.01284779373367L238.33702499999998,205.82955597786832L238.95425000000003,217.85571055090907L239.74782499999998,226.78657683973483L240.629575,225.05976985542043L240.982275,227.62205821355136L241.15862500000003,228.15244959086155L241.42315,235.30909622788195L241.864025,217.645387642441L242.12855000000002,234.11656780009534L242.216725,236.68293016280484L242.3049,236.90454040584584L243.980225,238.11202471234063L244.77380000000002,230.37672823045872L245.30285,246.4886817601561L245.920075,229.8235971131507L246.00825000000003,235.94884886801043L246.80182499999998,229.4996247623868L247.41905000000003,239.20537765725123L249.270725,235.41851298690437L249.62342500000003,228.12635136202846L250.505175,226.0378901529877L250.85787499999998,228.6577011439563L251.65144999999998,224.91059558013103L252.797725,226.22115555190848L253.06224999999998,220.5194312699562L253.59130000000002,224.18294319834766L253.76765,226.97147814039562L256.7656,225.40024108527604L257.29465,203.89164779275558L258.79362499999996,213.2081295286234L258.96997500000003,229.8646330510791L259.675375,222.61150714815682L259.9399,229.30185217627024L260.11625,209.44569192167154L261.7034,211.84403216100003L262.93785,215.62816303308895L263.1142,218.16509858375548L264.70135000000005,225.56997048510937L265.05404999999996,228.7014799445046L265.75945,226.1823678310729L267.258425,223.69371860287634L267.78747500000003,213.8589580630096L269.90367499999996,191.63088410256472L270.961775,194.26483663165558L271.04995,206.98212604747897L271.31447499999996,214.68545133797215L271.40265,201.6685362242581L271.579,192.12746518693785L271.75534999999996,200.87012352209666L272.10805,193.9203277378574L272.46075,197.4489877893994L272.901625,197.1379169828707L273.077975,171.71145781931307L274.4006,181.83248942845572L277.39855,188.4527748026396L277.75125,206.35057593568794L277.9276,216.92159772980054L278.368475,221.4613814687897L279.16204999999997,233.32870205071615L280.22015000000005,225.54907700859957L281.1019,234.86809642414315L281.27825,235.41231343120444L281.45459999999997,243.07330624733112L281.54277499999995,234.05083680575777L281.895475,238.73878462695515L282.16,231.9688583813576L282.86539999999997,233.29834297321526L283.2181,235.06997905095565L284.45255,230.36283733177106L284.9816,231.4816084539411L285.42247499999996,232.35797344167725L285.51065,232.40680248605923L285.687,239.01147622228797L285.951525,240.8509658070909L286.127875,245.78785656921744L286.304225,245.15363229840403L286.39239999999995,250.83463308986597L287.009625,251.70691471496144L287.27414999999996,237.70436136602186L287.71502499999997,250.41946457039433L289.39035,261.73584092448294L290.27209999999997,235.17670194616747L290.80115,228.88604285994847L291.33020000000005,220.25143771183122L291.68289999999996,237.41963758002325L292.74100000000004,242.8388979965208L292.829175,224.82746284011702L295.03355,230.17405844453342L295.827125,222.61785293272132L297.3261,203.40301187620358L298.91325,206.8336526136322L299.001425,224.69501935071324L299.177775,232.81174817049447L300.059525,240.25616711107466L300.412225,241.09958154315567L302.08755,236.65981992204308L303.057475,237.13823032485834L303.76287499999995,237.63768911457709L304.291925,234.0588908680973L304.3801,223.26818637448815L304.55645,232.3991685068454L304.7328,229.6550999303918L305.173675,231.85121389212557L307.37805000000003,228.96569462998818L307.466225,240.78422144994846L308.347975,238.02187596510984L308.524325,225.24101138190437L308.9652,234.8238613850714L310.19965,241.7224476319708L310.7287,231.75810749371266L311.522275,234.35207747554256L312.8449,235.6254873198462L313.1976,233.87673825521998L313.37395,239.60332491248607L314.52022500000004,232.8367384158054L315.578325,224.11214145563352L316.636425,205.05985465534604L316.7246,208.81113466222357L317.518175,205.80186682283224L318.047225,214.5636093855442L319.5462,225.67264933352538L320.07525,218.24903407363476L320.16342499999996,193.8644432425652L320.868825,207.2134544313091L321.397875,225.37802970351018L321.926925,238.23751820273318L322.3678,236.86652059388564L324.395825,235.0431793484008L325.01304999999996,235.01999430235472L325.45392499999997,230.67814368345955L326.60020000000003,235.59432093803832L327.217425,216.8763748214074L328.54005,226.9318630640591L329.59815000000003,216.62199489577574L329.86267499999997,231.50462115082703L331.097125,248.55672136789767L331.1853,247.79108791213812L331.36165,250.34744722242579L334.18325,238.4709355705568L334.27142499999997,241.56577640833754L334.3596,255.98495283778567L334.976825,252.01579906096512L335.94675,257.4575974126201L337.269375,258.02170686538886L337.71025000000003,256.23821808650376L340.3555,249.8363649286712L341.50177499999995,243.73815667371915L342.29535,246.80924952990685L343.088925,243.18273837238732L343.617975,230.95300690117648L343.970675,231.65735907360767L345.46965,220.01518731419608L345.646,183.8770966986212L345.734175,184.18863076502612L346.79227499999996,201.6158658254254L348.379425,216.84692841661942L349.8784,219.1910752584902L350.5838,228.29474652979084L352.61182499999995,213.95543014860124L353.4054,213.65528451075522L353.58175,209.36178097728225L353.7581,225.57132755759352L354.1108,228.0250663075715L354.198975,236.55088885848548L355.1689,247.24074826441552L355.433425,251.35991036119174L356.138825,263.05910885830616L356.40335,249.96624137610107L357.196925,247.13454910799783L358.51955000000004,249.56508261577716L358.87224999999995,243.19573007777115L359.0486,246.98327167112924L360.371225,253.4933350260195L361.5175,248.47058424131305L363.545525,260.39622660377233L364.86815,243.74928220419832L364.956325,240.11571522035078L365.57355,239.1579891038943L366.014425,210.882421516747L366.4553,204.8079328745938L366.808,202.25363933536443L366.98435,205.5817584111664L368.39515,216.80145541856047L369.98229999999995,226.4093604328872L370.070475,217.3796397902943L370.6877,210.68740068003925L370.952225,222.96477829926062L373.068425,225.14646952908802L373.33295,231.4479507347485L373.950175,238.2724797732121L374.2147,255.43559053002167L374.302875,264.5306800823662L374.47922500000004,253.98833003830197L374.5674,253.6327204155142L376.3309,264.9833454114689L376.771775,274.68146215282326L377.56535,279.4033677792768L379.68154999999996,281.14156274344504L380.38695,260.17963425230363L381.6214,252.55801978032036L381.70957500000003,261.37999776292065L382.15045000000003,257.2092938240309L383.20855,255.1465494468158L385.765625,257.74683171221716L385.94197499999996,253.85534632541933L386.118325,264.5791748673159L386.82372499999997,264.2474134245906L388.3227,264.263595009988L388.763575,262.23570047480956L390.703425,241.02666308876658L390.96795000000003,232.71678280589092L391.40882500000004,222.178597567294L392.02605,233.35144997639705L392.37875,227.98662014904542L392.5551,217.20601290556422L393.08414999999997,226.95925414048995L393.172325,232.55867861047417L393.701375,242.6614754527959L394.3186,252.9067740020293L394.84765,237.11136599574726L395.112175,235.06415380413154L396.61114999999995,240.3749720815553L397.66925000000003,246.54884324345593L397.93377499999997,242.62064024693015L398.551,256.2020371635518L399.9618,268.57288054344906L400.13815,264.7048382853078L400.66720000000004,265.81577211272185L401.0199,257.8951467065644L401.19625,264.1109233071177L402.4307,263.23593880263877L403.92967500000003,271.09674748356264L405.693175,267.20808084525277L407.280325,265.1768485282446L407.456675,262.97323418628434L407.633025,269.57868920240935L407.89755,257.78914341754444L408.16207499999996,231.5308709748989L409.66105,236.86605139449884L410.630975,244.3533960688917L410.71915,242.51485802908016L411.865425,242.75896091025413L414.510675,247.6786115416408L414.687025,244.23186588125117L416.803225,243.53105535361183L417.155925,252.6261819921703L417.332275,253.63256155754067L417.86132499999997,265.37238824938186L418.12585,251.6509621075491L418.30219999999997,249.79931938037572L419.095775,263.0198365275737L419.71299999999997,268.6443192444453L420.859275,241.63128578801835L421.564675,251.46519967442646L422.71094999999997,237.6396891521742L422.88730000000004,240.6950884086487L423.151825,242.92581569754455L424.209925,253.60682497862018L424.56262499999997,248.72225198545783L425.0035,241.62240952311805L425.17985,245.67556602411437L426.0616,255.92519215333132L426.41429999999997,263.1018581949561L428.97137499999997,263.3778002288541L429.41225,266.3545322680414L430.02947500000005,265.8288769004291L432.23385,261.2328195402812L432.322025,252.07744129566467L433.027425,258.71954362453334L433.909175,242.71501537139395L434.614575,258.136398947017L435.23179999999996,249.6454439125448L435.5845,248.0774777378431L436.554425,263.50565354041385L437.08347499999996,248.26725039492956L437.612525,228.89164611349327L439.552375,240.0966076312943L440.5223,236.28086566851889L440.963175,234.72211732798536L441.75675,251.36768294275151L441.844925,266.81357646793435L442.90302499999996,251.30986183414143L443.87294999999995,251.49219733651833L444.13747500000005,255.76668976106959L445.019225,245.12257216893477L445.10740000000004,238.56236535182148L449.16344999999995,244.3999412823071L449.604325,257.76899542525564L449.6925,260.9911761592193L450.57425,269.8420273581473L457.01102499999996,260.9589411842222L457.98094999999995,267.4314279938395L458.069125,275.10926459890504L458.24547500000006,282.61150265927824L458.421825,280.13646327134114L458.68635,285.0770972252739L458.774525,287.38086573608393L460.9789,296.3428997069091L461.419775,282.51756569172363L461.68429999999995,285.4312333741077L462.3897,281.79733969673106L463.359625,276.5106770924144L464.15319999999997,274.88522908074384L464.41772499999996,279.3604450909739L464.50590000000005,278.77531362966704L465.828525,277.2976655369641L467.239325,274.2351244395054L467.768375,276.4115611647138L468.121075,280.97828106295185L468.91465000000005,282.0131103892128L469.091,288.6506875186265L469.88457500000004,282.8126998748572L470.237275,282.02236082609215L470.76632500000005,265.36687233259426L471.2072,263.48766533920303L473.49975,271.17461972584545L474.29332500000004,273.4421934588273L475.61595,276.82924156518453L476.233175,279.65841762839267L476.76222499999994,284.5829254444108L477.114925,274.68558909198634L477.2031,270.7712942513913L478.87842500000005,257.99263227162567L479.14295,243.64512380520532L479.672,235.91010818982144L482.31725000000006,211.71635193321728L482.8463,221.07990427041315L483.199,232.8523401548648L483.463525,219.53120735855555L484.168925,220.84171653603008L484.345275,216.16244524253455L485.84425000000005,216.9312951701854L485.932425,210.83202990334996L487.60775000000007,224.554253701345L487.69592500000005,233.13666154501666L487.96045,224.55116960010972L488.754025,236.4687425548021L489.459425,240.8372625101373L489.635775,244.33637183804203L489.72395,239.7426052978535L491.928325,224.30732124664485L492.19285,222.14948703305208L493.162775,197.68919321408524L493.4273,195.49814883927095L493.60364999999996,211.01207506709915L493.78000000000003,215.9653984670665L494.83810000000005,230.83996238394025L496.33707499999997,234.82644286826343L498.18874999999997,244.28718809254548L498.805975,225.2967366096459L499.511375,233.9021861061826L499.86407499999996,244.45106337416544L500.4813,236.40335903717607L500.569475,234.19653906363422L500.65765,244.99320500437778L501.5394,249.69145797500937L503.83195,258.62519694694817L504.27282499999995,267.3327508568371L505.683625,274.42603102322863L506.12449999999995,254.87763797339596L506.65355,245.38965292361496L507.00624999999997,246.831274255399L507.09442499999994,241.83217011477117L507.799825,250.0171645634075L508.06435000000005,250.18689738685194L508.152525,238.7274365452615L508.32887500000004,210.430805256458L508.5934,220.68212990506757L509.386975,234.06227564106223L509.739675,226.57269007524698L510.092375,217.54548202658458L510.3569,238.21961519752227L510.445075,244.43648205072532L510.974125,247.70693144086766L511.50317499999994,268.7739429552892L511.679525,270.56991921182333L511.94405,256.6698826281654L515.030175,255.36026359752654L516.0882750000001,267.11290176948165L517.7636,284.05689647412527L517.9399500000001,280.46344094231335L519.35075,278.0659936376328L519.615275,280.8909364796801L519.7916250000001,274.20812182341126L519.8798,286.17670916957354L521.555125,285.3153891513589L523.671325,291.6500073864915L523.93585,305.14331143452443L525.082125,303.4212561013137L525.7875250000001,296.1313136424275L526.5811,283.21456174900993L526.845625,294.88491208121957L527.021975,290.2497747549335L527.11015,287.43748667915946L528.3446,294.6096348084237L529.05,288.1861144885921L530.9898499999999,293.5123539613638L531.5189,298.1438175779838L531.783425,305.674524874293L532.40065,301.55484059822845L533.546925,304.5816680732872L533.723275,313.31626411767354L533.81145,317.14368006430465L534.428675,319.1924332813239L536.015825,326.27268469653865L538.04385,335.5238954215259L538.484725,325.61836752793283L538.5729,318.38742829711225L540.248225,308.83022347704457L540.424575,310.91238219394586L540.953625,317.0249253885832L543.246175,308.635033176263L543.68705,308.0253117495058L544.8333250000001,296.8185001027535L545.186025,296.59351721512826L546.773175,306.3132910887082L547.478575,300.08937508103367L549.5065999999999,304.706813534234L549.7711250000001,305.78453382265633L549.8593000000001,298.63149376283945L550.212,295.3518566927689L550.300175,286.1235109664241L550.652875,279.52595612680074L552.5927250000001,289.1689833397432L554.62075,288.4172503347484L555.767025,289.0021654303629L557.177825,285.3593427243017L558.14775,283.88821348269425L559.5585500000001,283.8583683078257L560.793,285.14432007415L560.881175,297.4673614592216L561.1456999999999,302.92307453967885L562.644675,304.9636626507439L562.9973749999999,306.1151909588812L564.7608749999999,296.746965815935L564.937225,290.130989250821L566.171675,295.55900103206824L566.6125499999999,275.32592845876866L567.847,287.1662407718884L567.935175,279.8338377716649L568.111525,259.20864109776994L568.5524,261.0000000409715L571.0213,259.77934516779476L571.8148749999999,274.36892993431L572.4321,273.7997626946632L572.7847999999999,285.39328991945956L573.31385,288.85688298561905L573.8429,287.2684429551846L574.283775,294.43786082855036L574.5482999999999,293.2781853871748L574.72465,302.0856255230789L576.047275,293.9579047981636L576.84085,287.16661833140876L577.54625,270.4035198069837L579.045225,268.6618496576452L579.4861,280.13020563121165L579.66245,285.1514297961789L580.72055,284.39099548813084L580.8969000000001,274.2280338635121L581.42595,255.39714675218525L582.48405,249.35609998468152L582.924925,247.45247774866456L583.806675,250.38692891788986L584.688425,241.9131652253196L586.1873999999999,238.71799948251177L587.157325,223.24633972438517L587.333675,224.47101510100677L587.686375,230.74003011464876L589.009,227.29029334616482L592.624175,222.61203629700978L592.8887,223.61604072089767L593.2414,232.06232801767385L594.47585,239.3984484645027L595.445775,228.97360453357976L596.063,213.96355277315394L597.561975,228.73188369884141L597.8265,217.77912570310278L598.267375,221.92444196885205L598.70825,224.3268250424747L599.2373,229.581111341633L600.2954,233.4393082290151L600.383575,241.5026176061563L601.88255,234.46737106618275L602.147075,223.11545684317042L602.7642999999999,215.91212076883866L605.145025,224.94193663842697L605.321375,243.420509850805L605.9386000000001,257.9976246677264L606.8203500000001,268.3645551254533L607.5257499999999,266.89567487688504L607.7021000000001,259.79237409757053L608.3193249999999,255.6896373897178L609.1129,250.0663798275038L609.99465,253.9856629034082L610.082825,256.29416066946385L610.964575,246.8105413783353L611.317275,251.50301133412972L611.40545,239.08821396963768L613.080775,251.77015661838925L613.52165,255.68071725049566L613.698,262.1916287369635L614.0507,253.35591713432427L614.844275,245.35768618444166L616.4314250000001,236.66999057167374L618.1949249999999,242.14471323997023L618.6358,244.74216799476957L619.429375,246.37867831473844L619.9584249999999,254.911930840778L620.0466,254.6249394550034L620.134775,248.79408575303336L620.3993,255.25542720443292L620.663825,254.22075877445593L622.603675,267.4284221815257L624.10265,251.93554505889318L624.190825,265.64370869265224L624.543525,250.6757207274398L624.9843999999999,236.83828285574563L625.601625,228.21274047410165L626.3952,223.55518789275598L626.57155,231.98665011391734L627.4533,233.11443640410027L627.98235,245.16471199052742L628.1587000000001,260.5012911187757L628.6877499999999,267.21495394949454L628.8641,272.25845994690957L629.0404500000001,280.2761128497711L630.09855,288.4439534919791L630.2749,291.4078001776932L630.45125,281.784433490002L632.479275,285.76705867585287L633.27285,279.84601019504737L633.537375,285.5656265141047L634.948175,280.45397562874643L635.829925,278.0212337055202L635.9181,275.23902610645257L636.09445,271.44009908174485L636.6234999999999,278.4682030689866L637.15255,274.1583513747589L637.7697750000001,267.2809702930691L638.21065,265.2462622026661L638.8278750000001,274.93839280307816L639.3569249999999,280.0387374445844L640.5032,275.7783644096596L642.79575,271.67336560754865L644.55925,276.5032113206585L644.823775,277.7158338378847L645.176475,281.27365108886187L645.26465,284.97425476812265L645.881875,286.24076685997494L647.38085,276.0611443670927L648.350775,266.2441233294313L649.3207000000001,266.224492147306L649.937925,271.5011161518747L650.466975,275.36750481897485L652.583175,275.83171297050023L656.7274,270.8311720216558L657.4328,265.8557690910356L657.7855,271.24262489067223L658.931775,262.89553181993995L659.9017,273.60165982843665L660.2544,258.0750944620481L660.9598000000001,266.64355137402805L661.0479750000001,274.9289107065349L661.400675,281.0929888970508L662.19425,291.6559669810701L662.282425,281.62739573462324L663.164175,288.5365663517432L663.25235,270.93783353706453L663.340525,277.1280195856713L664.045925,278.5084576020798L665.809425,286.04529628248457L667.925625,284.796630416138L668.278325,294.8744907204714L668.454675,296.0324045977956L668.5428499999999,294.7549112464755L668.807375,290.6045137726459L669.60095,294.71942650823524L669.689125,281.04101489378866L670.4827,284.1975407695221L670.7472250000001,292.00621534247216L671.6289750000001,300.99154322915393L672.06985,298.159436216114L675.24415,294.5805550487262L676.037725,293.588661081024L676.214075,304.5256838736784L676.566775,294.9022157136666L677.095825,295.40812861419323L677.36035,286.07290237691944L677.977575,273.2700019021059L678.2421,268.6225595121883L678.682975,273.41207338976585L678.9475,275.98927511222115L679.6529,284.5515090237285L680.0056,285.8388746389948L680.3583,275.23014491282726L681.24005,266.3436851395621L681.3282250000001,275.20365771294723L682.386325,282.65049212552094L682.739025,284.6724158171741L683.35625,290.710447959059L683.70895,294.77311478729865L684.678875,293.08139786728464L685.7369749999999,306.67205301768996L687.147775,310.0518158899017L689.35215,308.38386517401943L690.674775,301.33105643066534L691.909225,287.43056931024284L692.261925,294.9075696759715L692.6146249999999,297.8529022240604L693.320025,300.4101125929324L693.8490750000001,304.4942014694424L693.9372500000001,309.8364015770147L695.4362249999999,313.41351638604914L696.2298,321.36546995374306L696.75885,310.0306300353951L697.46425,309.6895004539442L697.728775,305.60972525138425L699.668625,298.70695775859446L699.93315,305.4239258239826L701.1676,302.0979118350291L701.5203,303.22942943601106L702.2257,297.44856622721227L702.490225,299.9489743254078L703.019275,293.4839118309163L704.6064250000001,288.84665765649174L704.782775,287.8715585793801L706.3699250000001,291.7352454834355L706.546275,297.0292214310026L706.8108,290.04044399462845L708.133425,289.3567834300045L708.39795,292.38498219271696L708.75065,291.00883462804734L709.367875,287.0993274698691L710.51415,294.70309101194465L711.0432,286.69329044804266L712.27765,281.33064971195415L713.3357500000001,288.9562783404597L713.9529749999999,289.2202364591725L714.658375,293.19759263884725L715.363775,281.60813103579017L715.45195,279.44081406410817L715.892825,273.9267560417916L716.245525,265.33745339293466L717.3918,267.1103292236852L717.7444999999999,260.1747756180281L718.97895,258.63614403400857L720.03705,261.02158072466284L720.125225,256.4563828725335L720.74245,252.01627131867855L721.44785,256.91228832514696L721.9769,262.23141544203406L722.50595,279.68155919140975L723.1231750000001,281.46559090578313L723.299525,282.0565012976267L724.0931,279.54518157405295L724.26945,291.6764113261936L724.357625,297.2979629654858L726.03295,304.3296141939617L726.297475,317.8174998090198L727.09105,312.73349705864763L728.2373249999999,301.21842333850066L729.2072499999999,279.88481953004117L729.471775,277.59333159559174L730.353525,290.5638178291905L731.764325,293.3330656620551L732.73425,306.55057610863645L734.3214,314.4906949084479L735.2031499999999,321.30461131466734L735.291325,315.3511792206762L735.7322,304.6712689325808L735.820375,289.9307983808754L736.4376000000001,278.2309554660056L736.7903,266.11204979214676L736.878475,249.9033806329394L736.96665,249.2819474463544L738.2892750000001,240.31990985198746L738.9064999999999,232.11246796957192L738.9946749999999,242.87384452085078L739.347375,245.4398583918248L739.523725,245.88420949722243L740.3173,256.2416938514553L740.67,262.55705054739497L740.934525,262.73100113993326L743.227075,259.90129473321537L743.31525,270.86901714664316L744.108825,271.4914465629602L744.37335,276.16514774711834L744.72605,281.1426106144658L744.990575,284.73143697825117L745.8723249999999,271.98478539926157L745.9605,273.77407579549265L746.048675,275.4090104782114L746.13685,281.977626432496L746.577725,294.7491579558113L747.1067750000001,289.36418471088933L747.459475,289.71122418657774L747.635825,292.5380338205323L749.0466250000001,300.2340474283777L749.5756749999999,305.25991417372967L749.6638499999999,306.69563292328786L750.36925,313.3537530797506L750.8983000000001,319.6046058563398L752.044575,328.13824898850976L752.6618,327.71868487762265L753.54355,321.49003004342484L755.1307,316.4074062047318L755.8361,313.8978009526058L757.8641250000001,313.41014001704366L758.48135,312.8463517958264L759.0104,318.41133772143786L759.2749249999999,313.6356178058004L762.00835,317.30763093824527L762.0965249999999,327.3057020920098L763.507325,324.09126738467046L763.5955,330.9814219572386L764.47725,320.1975381462193L764.741775,316.26308534935856L764.918125,315.8732333993531L765.88805,317.2489402069703L766.4171,314.46872468358777L766.681625,295.9174931606636L767.034325,297.5043399597095L768.4451250000001,299.0729285238582L768.621475,289.3881812952516L768.70965,280.57205737196426L769.0623499999999,278.88137366082987L769.3268750000001,274.1298619661336L769.503225,281.8346781987194L770.737675,286.34536387845077L771.090375,292.89790787390655L772.0603,280.0809373684983L772.324825,287.97020529165206L774.088325,287.75304449606847L774.793725,295.0342054814897L775.675475,298.10821613527554L775.76365,298.7145720081677L776.733575,307.9813677332237L778.7615999999999,311.8587956304641L779.202475,302.13365691977367L780.70145,302.36823844383025L782.7294750000001,287.90352057936667L782.905825,278.84852942993825L784.58115,293.3058505401366L784.6693250000001,307.2042722533959L785.022025,310.227359661235L785.374725,304.3485756833317L786.961875,288.6779812680747L787.4909250000001,282.013643262422L787.5791,285.96307754305235L791.2824499999999,297.9368986110738L791.98785,305.15710864849547L792.69325,298.79051658857753L792.781425,301.61911072744925L794.2804,302.39740646851664L794.9857999999999,304.7131492582494L795.426675,308.21196229644426L795.779375,318.7593036835296L796.7493,321.6875283788058L797.8074,318.60472162399407L798.071925,323.2450114473735L798.248275,305.5934896574945L798.600975,318.26596528052073L799.306375,299.2596675195585L802.7452,297.38934156044934L804.596875,292.90569438407965L805.125925,292.30471349242464L805.2141,280.81606743767685L805.39045,290.62379584939623L806.713075,280.77665178386576L807.3303,282.77748277552314L809.358325,284.2174133309787L809.534675,298.7270270927905L809.711025,309.3126896331452L810.6809499999999,295.91301685360753L810.945475,296.88577385354955L812.44445,293.86038082488403L812.9735000000001,279.34535466713925L814.119775,286.1580210246136L815.883275,291.70751757480116L816.6768500000001,286.0479875122673L817.9113,294.68352174596487L818.0876499999999,300.43678879591675L818.264,299.2423429714398L819.0575749999999,291.8120507443031L819.85115,294.8428352633787L820.55655,282.7869439565843L822.32005,288.304043094251L822.4964,295.60090624088065L822.760925,300.8138304483355L822.937275,301.39760720117044L823.466325,286.6460998837633L824.5244250000001,290.4600289807752L824.6126,295.36294528359485L825.229825,292.44382471306005L825.49435,300.67117104348137L825.935225,291.71215254142817L826.55245,301.6468623704458L826.7288,307.67397110105253L828.1396000000001,296.17635949052" fill="none"></path></g></g></g></g><g opacity="0.2"><g><g><g><path style="fill: none;" stroke="rgb(255, 112, 67)" stroke-width="2px" d="M88.70405,-279.78864669799805L89.850325,240.87955856323242L90.379375,-237.25568389892578L93.200975,-269.53289794921875L94.5236,1.372781753540039L94.788125,-358.75253677368164L97.257025,-491.95334243774425L97.60972500000001,170.310453414917L99.37322499999999,-65.87934494018555L100.51950000000001,83.07001876831055L101.93029999999999,-423.73226165771496L102.19482500000001,-455.3753356933594L102.9884,136.85980796813962L103.958325,-247.79237365722656L104.39920000000001,226.92030715942383L104.57554999999999,38.953508377075195L105.016425,-347.03368377685547L106.5154,1.7660751342773438L108.45524999999999,112.5457935333252L108.896125,82.65060997009277L110.21875,-437.73437118530285L110.74779999999998,-168.18008422851562L111.18867499999999,158.8267993927002L111.8059,111.12038040161133L112.33495,98.36432075500488L114.010275,-6.313282012939396L115.42107499999999,-131.3478126525879L115.597425,166.97689247131348L116.30282499999998,56.92956733703613L117.360925,-3.7898197174072266L118.8599,406.19830226898193L120.27069999999999,64.0770206451416L120.6234,103.56749725341797L125.38485,61.44529151916504L125.473025,-60.1860237121582L126.972,44.88875770568848L127.23652500000001,18.173126220703125L127.50105,58.88505935668945L128.823675,170.63641548156738L129.0882,110.27463340759277L129.17637499999998,247.99973487854004L130.058125,84.4214916229248L131.5571,-79.90180206298828L131.73345,-14.821420669555664L133.585125,80.94525718688965L135.0841,196.2451057434082L135.524975,120.79854583740234L137.9057,91.46552467346191L138.78745,122.83687019348145L139.3165,169.81289863586426L139.49285,253.14427185058594L139.933725,27.06089973449707L140.0219,-91.57395172119135L141.344525,286.93449783325195L142.93167499999998,22.012292861938477L143.108025,128.6177101135254L144.166125,209.4257411956787L144.78335,270.60338973999023L144.871525,72.01694869995117L145.047875,32.9150390625L145.3124,201.10565757751465L145.48875,30.85917091369629L146.54684999999998,-284.6567687988281L147.4286,195.89166641235352L148.48669999999998,321.6036157608032L148.927575,136.44752883911133L151.22012500000002,180.9719123840332L151.572825,100.88437843322754L151.92552500000002,214.15819931030273L152.0137,116.19634437561035L152.630925,153.41165542602536L153.4245,229.10246658325195L153.7772,287.5655937194824L154.12990000000002,180.46314239501953L154.570775,-35.28877830505371L154.923475,175.60751724243164L155.71705,276.09619903564453L156.06975,100.22804832458496L156.24609999999998,151.4787940979004L156.42245,29.11636734008789L157.03967500000002,150.79122161865237L157.48055,183.21443367004395L157.65689999999998,142.87260246276855L158.09777499999998,-190.63653945922852L158.274125,363.6641778945923L158.626825,165.9928379058838L158.979525,127.53668403625488L159.508575,83.66330337524414L159.59675,158.83252716064453L161.624775,64.06059837341309L161.977475,141.57560348510742L164.88725,229.28655624389648L165.504475,27.12502670288086L166.033525,203.25385093688965L167.267975,54.41231346130371L167.620675,360.8106880187988L168.2379,-186.35825729370117L168.41425,324.9237184524536L168.9433,82.71870231628418L169.11965,287.25304985046387L170.35410000000002,137.90554618835452L170.442275,143.20889854431152L171.324025,322.0123100280762L171.58855,345.8014726638794L172.382125,367.3447895050049L172.734825,80.05124473571777L173.087525,194.63287925720215L173.88109999999998,1.2883071899414062L173.969275,386.3636827468872L174.498325,104.21549606323242L174.5865,277.7354621887207L175.027375,188.87254714965823L176.085475,95.19350051879883L176.61452500000001,341.80525302886963L176.87905,219.46832084655762L177.672625,-11.782459259033203L180.317875,141.3541030883789L181.46415000000002,-186.10960006713867L181.9932,-115.37166595458984L182.257725,76.90185356140137L182.434075,38.59101676940918L182.786775,84.09160423278809L183.315825,-192.23198318481445L183.7567,297.81010723114014L184.63845,284.21729278564453L185.1675,159.74204063415527L185.608375,274.7377166748047L186.490125,150.04188537597656L186.93099999999998,23.070087432861328L190.193475,303.53350925445557L190.54617499999998,196.98751258850098L190.63435,169.1865692138672L190.722525,346.1844320297241L192.309675,162.56366729736328L193.367775,-48.83711242675781L193.45595,-3.2361888885498047L193.985,136.58731842041016L194.602225,244.32619285583496L196.894775,-25.273155212402344L197.952875,47.415103912353516L198.9228,58.21687316894531L199.187325,195.053129196167L199.45185,158.46142387390137L201.21535,165.89318275451663L201.7444,21.530960083007812L202.361625,354.8799247741699L202.890675,98.09086990356445L204.30147499999998,336.2037162780762L204.566,-98.7568130493164L205.535925,136.17876434326172L205.80044999999998,324.68887996673584L206.064975,229.93415451049805L206.15315,158.8433017730713L210.38555,-17.800260543823185L210.65007500000002,91.00694274902344L210.9146,250.07346725463867L211.002775,-46.83271408081055L212.942625,126.90743064880368L214.000725,237.2183132171631L214.177075,137.27028465270996L214.529775,0.024152755737304688L214.882475,-4.4908905029296875L215.235175,162.83299255371097L217.43955000000003,330.32896900177L217.527725,163.7310104370117L218.49765,151.250244140625L219.20305,186.0084228515625L219.55575,339.2467432022095L219.7321,191.33833122253418L221.231075,332.5950222015381L222.55370000000002,390.88603591918945L222.90640000000002,334.8067817687988L225.11077500000002,205.0839729309082L226.521575,329.48536491394043L226.60975000000002,404.1106309890747L227.932375,318.4737310409546L228.285075,235.13829231262207L229.695875,255.24808502197266L229.78405,286.3283157348633L230.930325,95.28722763061523L231.7239,298.69847202301025L232.164775,394.3444061279297L232.60564999999997,253.6999053955078L232.870175,146.2068843841553L233.31105,238.84143447875977L233.57557500000001,104.28639221191406L234.633675,215.55160903930664L235.33907500000004,292.8175964355469L235.9563,312.5766534805298L236.573525,299.4708595275879L237.3671,191.22333526611328L237.7198,215.25168228149414L237.807975,197.63619232177734L237.89614999999998,126.23063278198242L238.07250000000002,196.09249877929688L238.33702499999998,51.17992973327637L238.95425000000003,326.09110164642334L239.74782499999998,307.16437339782715L240.629575,209.51850700378418L240.982275,250.68265342712402L241.15862500000003,232.92597198486328L241.42315,299.71891593933105L241.864025,58.67201042175293L242.12855000000002,382.3571891784668L242.216725,259.7801914215088L242.3049,238.89903259277344L243.980225,248.97938346862793L244.77380000000002,160.75905990600586L245.30285,391.4962635040283L245.920075,79.83783531188965L246.00825000000003,291.076114654541L246.80182499999998,171.45660781860354L247.41905000000003,326.5571537017822L249.270725,201.33673095703125L249.62342500000003,162.4968967437744L250.505175,207.2417392730713L250.85787499999998,252.23600006103516L251.65144999999998,191.1866455078125L252.797725,238.0161952972412L253.06224999999998,169.20391273498538L253.59130000000002,257.15455055236816L253.76765,252.06829261779785L256.7656,211.25910758972168L257.29465,10.314308166503906L258.79362499999996,297.0564651489258L258.96997500000003,379.7731647491455L259.675375,157.33337402343753L259.9399,289.5149574279785L260.11625,30.740249633789062L261.7034,233.4290943145752L262.93785,249.68534088134766L263.1142,240.9975185394287L264.70135000000005,292.21381759643555L265.05404999999996,256.88506507873535L265.75945,203.5103588104248L267.258425,201.2958755493164L267.78747500000003,125.34611320495608L269.90367499999996,-8.421781539916935L270.961775,217.97040939331055L271.04995,321.43773078918457L271.31447499999996,284.01537895202637L271.40265,84.51630020141602L271.579,106.25782585144043L271.75534999999996,279.554048538208L272.10805,131.37216567993164L272.46075,229.20692825317383L272.901625,194.3382797241211L273.077975,-57.12667465209961L274.4006,272.92177391052246L277.39855,248.03534317016602L277.75125,367.4307861328125L277.9276,312.06079387664795L278.368475,262.3194351196289L279.16204999999997,340.13458728790283L280.22015000000005,155.53245162963867L281.1019,318.73927116394043L281.27825,240.31026649475098L281.45459999999997,312.0222415924072L281.54277499999995,152.84861183166504L281.895475,280.9303150177002L282.16,171.03952217102054L282.86539999999997,245.26370429992676L283.2181,251.01470375061035L284.45255,187.99856185913086L284.9816,241.5505485534668L285.42247499999996,240.24525833129883L285.51065,232.84626388549805L285.687,298.45353984832764L285.951525,257.4063720703125L286.127875,290.2198734283447L286.304225,239.44561386108398L286.39239999999995,301.9636402130127L287.009625,259.5574493408203L287.27414999999996,111.68138122558594L287.71502499999997,364.855393409729L289.39035,363.5832281112671L290.27209999999997,-3.855548858642578L290.80115,172.27011108398438L291.33020000000005,142.5399913787842L291.68289999999996,391.9334363937378L292.74100000000004,291.6122417449951L292.829175,62.72454643249512L295.03355,278.29341888427734L295.827125,154.61200332641602L297.3261,30.46944236755371L298.91325,237.70941925048828L299.001425,385.44731998443604L299.177775,305.86230754852295L300.059525,307.25593757629395L300.412225,248.69031143188477L302.08755,196.70196533203125L303.057475,241.4439239501953L303.76287499999995,242.1328182220459L304.291925,201.84970664978027L304.3801,126.15184593200681L304.55645,314.5780076980591L304.7328,204.95848274230957L305.173675,251.6162395477295L307.37805000000003,202.99602127075195L307.466225,347.15096282958984L308.347975,213.1607666015625L308.524325,110.21323013305664L308.9652,321.0695114135742L310.19965,303.80972385406494L310.7287,142.07904624938965L311.522275,257.6978073120117L312.8449,247.0861759185791L313.1976,218.13799667358398L313.37395,291.14260482788086L314.52022500000004,171.9374599456787L315.578325,145.5907688140869L316.636425,33.58927345275879L316.7246,242.5726547241211L317.518175,178.71845626831055L318.047225,293.4192924499512L319.5462,325.65400886535645L320.07525,151.43649673461917L320.16342499999996,-25.596874237060547L320.868825,327.3545551300049L321.397875,388.8592071533203L321.926925,353.97291469573975L322.3678,224.5275421142578L324.395825,218.6331081390381L325.01304999999996,234.81132888793945L325.45392499999997,191.60148811340332L326.60020000000003,279.83991622924805L327.217425,48.414859771728516L328.54005,317.4312572479248L329.59815000000003,123.83318138122556L329.86267499999997,365.44825744628906L331.097125,402.0256233215332L331.1853,240.90038681030273L331.36165,273.35468101501465L334.18325,131.58233070373535L334.27142499999997,269.41934394836426L334.3596,385.7575407028198L334.976825,216.29341506958008L335.94675,306.43378257751465L337.269375,263.0986919403076L337.71025000000003,240.1868190765381L340.3555,192.2196865081787L341.50177499999995,188.8542823791504L342.29535,274.4490852355957L343.088925,210.5441379547119L343.617975,120.88542366027832L343.970675,237.99652862548828L345.46965,115.23564147949219L345.646,-141.36571884155273L345.734175,186.9924373626709L346.79227499999996,358.46098136901855L348.379425,353.9264917373657L349.8784,240.28839683532715L350.5838,310.2277879714966L352.61182499999995,84.90158271789551L353.4054,210.9539737701416L353.58175,170.7202491760254L353.7581,371.4572467803955L354.1108,250.10871505737305L354.198975,313.2832918167114L355.1689,343.44948291778564L355.433425,288.43236923217773L356.138825,368.3518953323364L356.40335,132.13043403625488L357.196925,221.64931869506836L358.51955000000004,271.439884185791L358.87224999999995,185.87155723571777L359.0486,281.07114601135254L360.371225,312.08390522003174L361.5175,203.26582717895508L363.545525,367.72700786590576L364.86815,93.92678260803223L364.956325,207.41361236572266L365.57355,230.53845405578613L366.014425,-43.597686767578125L366.4553,150.13753509521484L366.808,179.2649974822998L366.98435,235.5348300933838L368.39515,317.7787284851074L369.98229999999995,312.8805055618286L370.070475,136.11215400695798L370.6877,150.45724868774414L370.952225,333.4611768722534L373.068425,244.78169059753418L373.33295,288.16128158569336L373.950175,299.69324111938477L374.2147,409.9035873413086L374.302875,346.3864860534668L374.47922500000004,159.10717964172363L374.5674,250.4322338104248L376.3309,367.13897037506104L376.771775,361.9645128250122L377.56535,321.9005184173584L379.68154999999996,296.7853174209595L380.38695,71.52227783203125L381.6214,183.9634895324707L381.70957500000003,340.77779960632324L382.15045000000003,219.67295837402344L383.20855,236.58185005187988L385.765625,281.1493721008301L385.94197499999996,218.83197784423828L386.118325,361.09363174438477L386.82372499999997,261.2615604400635L388.3227,264.40922927856445L388.763575,243.98464965820312L390.703425,50.14532661437988L390.96795000000003,157.92786026000974L391.40882500000004,127.3349304199219L392.02605,333.9071216583252L392.37875,179.7031517028809L392.5551,120.1805477142334L393.08414999999997,314.7384252548218L393.172325,282.95349884033203L393.701375,333.5866470336914L394.3186,345.1144609451294L394.84765,94.95269393920898L395.112175,216.63924407958984L396.61114999999995,288.17233657836914L397.66925000000003,302.1136837005615L397.93377499999997,207.26681327819824L398.551,378.434609413147L399.9618,379.9104709625244L400.13815,229.89245796203613L400.66720000000004,275.81417655944824L401.0199,186.60951805114746L401.19625,320.05291271209717L402.4307,255.3610782623291L403.92967500000003,341.84402561187744L405.693175,232.21008110046387L407.280325,246.8957576751709L407.456675,243.14070510864258L407.633025,329.0277843475342L407.89755,151.68323135375977L408.16207499999996,-4.793581008911133L409.66105,284.88267517089844L410.630975,311.73949813842773L410.71915,225.96801567077637L411.865425,244.9558868408203L414.510675,291.9554672241211L414.687025,213.21115493774414L416.803225,237.2237606048584L417.155925,334.4823217391968L417.332275,262.689977645874L417.86132499999997,371.03082847595215L418.12585,128.1581268310547L418.30219999999997,233.13453483581543L419.095775,382.00449085235596L419.71299999999997,319.26466369628906L420.859275,-1.4860153198242188L421.564675,339.9704246520996L422.71094999999997,113.2100944519043L422.88730000000004,268.19368171691895L423.151825,263.0023612976074L424.209925,349.7359085083008L424.56262499999997,204.76109504699707L425.0035,177.72382736206055L425.17985,282.15397453308105L426.0616,348.1718273162842L426.41429999999997,327.6918525695801L428.97137499999997,265.86127853393555L429.41225,293.14512062072754L430.02947500000005,261.09797859191895L432.23385,219.8683032989502L432.322025,169.67903709411624L433.027425,318.4984645843506L433.909175,98.67426109313965L434.614575,396.9288511276245L435.23179999999996,173.22684860229492L435.5845,233.96578216552734L436.554425,402.3592357635498L437.08347499999996,111.12162208557129L437.612525,54.511207580566406L439.552375,340.9412612915039L440.5223,201.93918800354004L440.963175,220.6933822631836L441.75675,401.177773475647L441.844925,405.8266181945801L442.90302499999996,111.77643013000488L443.87294999999995,253.13321685791016L444.13747500000005,294.23712158203125L445.019225,149.32551383972165L445.10740000000004,179.52050399780273L449.16344999999995,296.93812465667725L449.604325,378.090482711792L449.6925,289.9908027648926L450.57425,349.49968814849854L457.01102499999996,181.01116561889648L457.98094999999995,325.6838092803955L458.069125,344.20979404449463L458.24547500000006,350.1316452026367L458.421825,257.8611087799072L458.68635,329.54280281066895L458.774525,308.114782333374L460.9789,377.00120544433594L461.419775,158.0895595550537L461.68429999999995,311.65424251556396L462.3897,249.0922966003418L463.359625,228.93071365356445L464.15319999999997,260.256196975708L464.41772499999996,319.63738918304443L464.50590000000005,273.5091304779053L465.828525,263.9988327026367L467.239325,246.67225456237793L467.768375,295.99949169158936L468.121075,322.0787601470947L468.91465000000005,291.3265743255615L469.091,348.3888816833496L469.88457500000004,230.27081108093262L470.237275,274.90930938720703L470.76632500000005,115.46747589111328L471.2072,246.57480239868164L473.49975,340.35720920562744L474.29332500000004,293.85035705566406L475.61595,307.3126745223999L476.233175,305.1210021972656L476.76222499999994,328.9034957885742L477.114925,185.60956192016602L477.2031,235.54264068603516L478.87842500000005,142.98467445373535L479.14295,114.51754760742188L479.672,166.2949676513672L482.31725000000006,-6.027454376220703L482.8463,305.3518753051758L483.199,338.8042631149292L483.463525,99.64101219177246L484.168925,232.63629913330078L484.345275,174.04900360107422L485.84425000000005,223.85094451904297L485.932425,155.93864250183108L487.60775000000007,348.0542678833008L487.69592500000005,310.3783321380615L487.96045,147.28174209594727L488.754025,343.7268991470337L489.459425,280.1539421081543L489.635775,275.82835578918457L489.72395,198.39870643615723L491.928325,85.3897647857666L492.19285,202.72897911071777L493.162775,-22.453451156616154L493.4273,175.77874946594238L493.60364999999996,350.6374111175537L493.78000000000003,260.54530906677246L494.83810000000005,364.7110376358032L496.33707499999997,270.70476722717285L498.18874999999997,329.433895111084L498.805975,54.382673263549805L499.511375,311.3512315750122L499.86407499999996,339.39095878601074L500.4813,163.97402000427246L500.569475,214.3351593017578L500.65765,342.16319847106934L501.5394,291.97573471069336L503.83195,339.028847694397L504.27282499999995,345.7007360458374L505.683625,338.26555252075195L506.12449999999995,78.94210052490234L506.65355,159.9977874755859L507.00624999999997,259.8058662414551L507.09442499999994,196.8402328491211L507.799825,323.68211460113525L508.06435000000005,251.71449279785156L508.152525,135.5922889709473L508.32887500000004,-44.23887634277338L508.5934,312.9440517425537L509.386975,354.48358726501465L509.739675,159.16641998291016L510.092375,136.30060958862305L510.3569,424.2868137359619L510.445075,300.3882837295532L510.974125,277.14097595214844L511.50317499999994,458.377046585083L511.679525,286.7337055206299L511.94405,131.56955337524414L515.030175,243.57369232177734L516.0882750000001,372.88664531707764L517.7636,436.55284881591797L517.9399500000001,248.12234115600586L519.35075,256.4889678955078L519.615275,306.31542205810547L519.7916250000001,214.0627899169922L519.8798,393.8939952850342L521.555125,277.56350898742676L523.671325,348.66157150268555L523.93585,426.5830478668213L525.082125,287.922758102417L525.7875250000001,230.52183151245117L526.5811,166.96379470825195L526.845625,399.91806507110596L527.021975,248.53353881835938L527.11015,262.1268939971924L528.3446,359.15896797180176L529.05,230.37443161010742L530.9898499999999,341.4485092163086L531.5189,339.8269901275635L531.783425,373.45089054107666L532.40065,264.47768211364746L533.546925,331.8231153488159L533.723275,391.9276285171509L533.81145,351.5904235839844L534.428675,337.63121223449707L536.015825,389.9949474334717L538.04385,418.78479194641113L538.484725,236.4686164855957L538.5729,253.30897521972656L540.248225,222.81538009643555L540.424575,329.65181064605713L540.953625,372.0378141403198L543.246175,233.12600326538086L543.68705,302.5378189086914L544.8333250000001,195.95719528198242L545.186025,294.56867122650146L546.773175,393.79125595092773L547.478575,244.0741310119629L549.5065999999999,346.2637596130371L549.7711250000001,315.48401641845703L549.8593000000001,234.2541332244873L550.212,265.8351230621338L550.300175,203.0683994293213L550.652875,220.14796257019043L552.5927250000001,375.9562282562256L554.62075,281.6516532897949L555.767025,294.26640129089355L557.177825,252.57393836975098L558.14775,270.64805030822754L559.5585500000001,283.5897617340088L560.793,296.71788597106934L560.881175,408.3747339248657L561.1456999999999,352.02449226379395L562.644675,323.3289556503296L562.9973749999999,316.4789457321167L564.7608749999999,212.43293952941895L564.937225,230.58720016479492L566.171675,344.41110706329346L566.6125499999999,93.22827529907227L567.847,393.7290515899658L567.935175,213.84221076965332L568.111525,73.58187103271484L568.5524,277.12223052978516L571.0213,248.7934513092041L571.8148749999999,405.6751928329468L572.4321,268.6772575378418L572.7847999999999,389.73503494262695L573.31385,320.0292205810547L573.8429,272.9724826812744L574.283775,358.9626216888428L574.5482999999999,282.8411064147949L574.72465,381.3525867462158L576.047275,220.80841827392578L576.84085,226.04504013061523L577.54625,119.5356330871582L579.045225,252.98681831359863L579.4861,383.34540939331055L579.66245,330.3424472808838L580.72055,277.54708671569824L580.8969000000001,182.76137924194336L581.42595,85.91916275024414L582.48405,194.98667907714844L582.924925,230.31987762451172L583.806675,276.79698944091797L584.688425,165.6492919921875L586.1873999999999,209.9615077972412L587.157325,84.00140190124512L587.333675,235.4930934906006L587.686375,287.16116523742676L589.009,196.24266242980957L592.624175,180.50772285461426L592.8887,232.65208053588867L593.2414,308.07891368865967L594.47585,305.4235324859619L595.445775,135.1500091552734L596.063,78.87308692932129L597.561975,361.6468620300293L597.8265,119.20430374145508L598.267375,259.2322883605957L598.70825,245.94827270507812L599.2373,276.8696880340576L600.2954,268.1630802154541L600.383575,314.07240200042725L601.88255,171.1501522064209L602.147075,120.94822883605957L602.7642999999999,151.08209609985352L605.145025,306.2102794647217L605.321375,409.72766876220703L605.9386000000001,389.19165802001953L606.8203500000001,361.6669292449951L607.5257499999999,253.6757526397705L607.7021000000001,195.86266708374023L608.3193249999999,218.76500701904297L609.1129,199.45706176757812L609.99465,289.25921058654785L610.082825,277.07064056396484L610.964575,161.4579677581787L611.317275,293.7352409362793L611.40545,127.35503768920898L613.080775,365.9076404571533L613.52165,290.8757629394531L613.698,320.78983211517334L614.0507,173.8345127105713L614.844275,173.37360763549805L616.4314250000001,158.4807300567627L618.1949249999999,291.4172172546387L618.6358,268.11926078796387L619.429375,261.107271194458L619.9584249999999,331.7112035751343L620.0466,252.04201698303223L620.134775,196.31640243530273L620.3993,313.4075002670288L620.663825,244.9087429046631L622.603675,386.2973928451538L624.10265,112.4996509552002L624.190825,389.0171813964844L624.543525,115.96382904052734L624.9843999999999,112.30134201049805L625.601625,150.58285903930667L626.3952,181.6372146606445L626.57155,307.8698101043701L627.4533,243.26451301574707L627.98235,353.6171922683716L628.1587000000001,398.53050327301025L628.6877499999999,327.63791942596436L628.8641,317.650013923645L629.0404500000001,352.4349889755249L630.09855,361.9545192718506L630.2749,318.0824203491211L630.45125,195.17413330078125L632.479275,321.61068534851074L633.27285,226.55657386779785L633.537375,337.0421733856201L634.948175,234.44911766052246L635.829925,256.1265563964844L635.9181,250.19915771484375L636.09445,237.249755859375L636.6234999999999,341.7211389541626L637.15255,235.36968612670898L637.7697750000001,205.38454055786133L638.21065,246.9338893890381L638.8278750000001,362.1675682067871L639.3569249999999,325.94183921813965L640.5032,237.4350070953369L642.79575,234.7283763885498L644.55925,319.97182273864746L644.823775,288.6294364929199L645.176475,313.29400634765625L645.26465,318.2796878814697L645.881875,297.6393756866455L647.38085,184.44454193115234L648.350775,177.89093399047852L649.3207000000001,266.0478115081787L649.937925,318.99073219299316L650.466975,310.165002822876L652.583175,280.0095863342285L656.7274,225.82630348205566L657.4328,221.0771427154541L657.7855,319.72432708740234L658.931775,187.7716941833496L659.9017,369.9568119049072L660.2544,118.33600616455078L660.9598000000001,343.75966358184814L661.0479750000001,349.4971446990967L661.400675,336.56969261169434L662.19425,386.72276973724365L662.282425,191.37025451660156L663.164175,350.71910190582275L663.25235,112.54923820495605L663.340525,332.8396940231323L664.045925,290.93239974975586L665.809425,353.87684440612793L667.925625,273.55863761901855L668.278325,385.57523345947266L668.454675,306.4536294937134L668.5428499999999,283.2574710845947L668.807375,253.2509365081787L669.60095,331.75364112854004L669.689125,157.93531036376953L670.4827,312.60627365112305L670.7472250000001,362.28428649902344L671.6289750000001,381.85949420928955L672.06985,272.6704730987549L675.24415,262.3706245422363L676.037725,284.6616153717041L676.214075,402.95888900756836L676.566775,208.29100227355957L677.095825,299.9613447189331L677.36035,202.05586624145508L677.977575,158.0438976287842L678.2421,226.7955780029297L678.682975,316.51769828796387L678.9475,299.18409061431885L679.6529,361.6116142272949L680.0056,297.4251651763916L680.3583,179.75157737731934L681.24005,186.36554718017578L681.3282250000001,354.9434108734131L682.386325,349.6720018386841L682.739025,302.8697290420532L683.35625,345.05273723602295L683.70895,331.3371162414551L684.678875,277.8559455871582L685.7369749999999,428.9879493713379L687.147775,340.46968173980713L689.35215,293.3723087310791L690.674775,237.85577774047852L691.909225,162.3261852264404L692.261925,362.2005729675293L692.6146249999999,324.36089515686035L693.320025,323.42500591278076L693.8490750000001,341.2510013580322L693.9372500000001,357.916202545166L695.4362249999999,345.6075496673584L696.2298,392.9330520629883L696.75885,208.01707077026367L697.46425,306.61933422088623L697.728775,268.8917484283447L699.668625,236.58205032348633L699.93315,365.8766384124756L701.1676,272.16378593444824L701.5203,313.41308784484863L702.2257,245.42079734802246L702.490225,322.4526472091675L703.019275,235.29834938049316L704.6064250000001,247.11137008666992L704.782775,279.095666885376L706.3699250000001,326.5084276199341L706.546275,344.67500495910645L706.8108,227.14144706726074L708.133425,283.2038383483887L708.39795,319.6387710571289L708.75065,278.6235065460205L709.367875,251.91376304626465L710.51415,363.136962890625L711.0432,214.6050853729248L712.27765,233.0668830871582L713.3357500000001,357.5869359970093L713.9529749999999,291.5958595275879L714.658375,328.9937982559204L715.363775,177.30297660827637L715.45195,259.9349613189697L715.892825,224.30023384094238L716.245525,188.03372955322263L717.3918,283.06621170043945L717.7444999999999,197.75479316711426L718.97895,244.78845977783203L720.03705,282.49051094055176L720.125225,215.36960220336914L720.74245,212.05526733398438L721.44785,300.9764413833618L721.9769,310.10355949401855L722.50595,436.732852935791L723.1231750000001,297.52187633514404L723.299525,287.37469482421875L724.0931,256.94330406188965L724.26945,400.857479095459L724.357625,347.8919277191162L726.03295,367.61447525024414L726.297475,439.20847034454346L727.09105,266.97747230529785L728.2373249999999,197.58275985717773L729.2072499999999,87.88238525390625L729.471775,256.9699401855469L730.353525,407.2981939315796L731.764325,318.2562961578369L732.73425,425.50817012786865L735.2031499999999,382.6298589706421L735.291325,261.77029037475586L735.7322,208.55207633972168L735.820375,157.26656341552734L736.4376000000001,172.93236923217773L736.7903,157.041898727417L736.878475,104.02535820007324L736.96665,243.68904876708984L738.2892750000001,159.66157150268555L738.9064999999999,158.24549102783203L738.9946749999999,339.72623348236084L739.347375,268.5339832305908L739.523725,249.88336944580078L740.3173,349.4590530395508L740.67,319.39526081085205L740.934525,264.2965564727783L743.227075,234.4339370727539L743.31525,369.5785188674927L744.108825,277.09331130981445L744.37335,318.228458404541L744.72605,325.93977642059326L744.990575,317.03087425231934L745.8723249999999,157.26492118835446L745.9605,289.87768936157227L746.048675,290.12342262268066L746.13685,341.09517002105713L746.577725,409.6929416656494L747.1067750000001,240.8994255065918L747.459475,292.83457946777344L747.635825,317.97932052612305L749.0466250000001,369.4981698989868L749.5756749999999,350.492714881897L749.6638499999999,319.6171016693115L750.36925,373.27683448791504L750.8983000000001,375.8622808456421L752.044575,404.94103717803955L752.6618,323.9426078796387L753.54355,265.43213653564453L755.1307,270.66379165649414L755.8361,291.3113536834717L757.8641250000001,309.02119159698486L758.48135,307.7722578048706L759.0104,368.4962110519409L759.2749249999999,270.6541385650635L762.00835,350.355749130249L762.0965249999999,417.2883424758911L763.507325,295.1613550186157L763.5955,392.99281311035156L764.47725,223.1425838470459L764.741775,280.8530101776123L764.918125,312.3645658493042L765.88805,329.6303014755249L766.4171,289.44678497314453L766.681625,128.95640945434573L767.034325,311.78596115112305L768.4451250000001,313.1902256011963L768.621475,202.22545623779297L768.70965,201.22694206237793L769.0623499999999,263.6652202606201L769.3268750000001,231.3662567138672L769.503225,351.1780242919922L770.737675,326.9415349960327L771.090375,351.8708038330078L772.0603,164.72820281982422L772.324825,358.9736166000366L774.088325,285.79859733581543L774.793725,360.56465435028076L775.675475,325.77431201934814L775.76365,304.1717748641968L776.733575,391.382529258728L778.7615999999999,346.75564670562744L779.202475,214.60740852355957L780.70145,304.47947216033936L782.7294750000001,157.72105979919434L782.905825,197.353609085083L784.58115,423.4217405319214L784.6693250000001,432.2900676727295L785.022025,337.4351463317871L785.374725,251.43951988220215L786.961875,147.64263153076172L787.4909250000001,222.03460121154785L787.5791,321.5079860687256L791.2824499999999,405.7012882232666L791.98785,370.1389989852905L792.69325,241.4911880493164L792.781425,327.0764579772949L794.2804,309.40206813812256L794.9857999999999,325.5548343658447L795.426675,339.70127964019775L795.779375,413.68537616729736L796.7493,348.0415506362915L797.8074,290.8594608306885L798.071925,365.0076198577881L798.248275,146.72979354858398L798.600975,432.31824588775635L799.306375,128.20298767089847L802.7452,280.5564079284668L804.596875,252.55286979675293L805.125925,286.8958854675293L805.2141,177.4182529449463L805.39045,378.8933515548706L806.713075,192.1523551940918L807.3303,300.78496170043945L809.358325,297.1767883300781L809.534675,429.3135509490967L809.711025,404.5836524963379L810.6809499999999,175.31596183776855L810.945475,305.64058685302734L812.44445,266.63184356689453L812.9735000000001,148.71011924743655L814.119775,347.4720182418823L815.883275,341.65298652648926L816.6768500000001,235.1122169494629L817.9113,372.40332984924316L818.0876499999999,352.2161922454834L818.264,288.49233055114746L819.0575749999999,224.93942070007324L819.85115,322.1198959350586L820.55655,174.2839221954346L822.32005,337.95793533325195L822.4964,361.2726745605469L822.760925,347.7301483154297L822.937275,306.65159797668457L823.466325,153.8825340270996L824.5244250000001,324.78539085388184L824.6126,339.48919200897217L825.229825,266.17173957824707L825.49435,374.71728801727295L825.935225,211.08098602294922L826.55245,391.059250831604L826.7288,361.9179496765137L828.1396000000001,192.69785499572754" fill="none"></path></g></g></g></g></g></g><g transform="translate(34, 378)" clip-path="url(#clip_1)"><clipPath id="clip_1"><rect width="881" height="22"></rect></clipPath><g><g><line x1="0" y1="0" x2="0" y2="5" style="visibility: inherit;" fill="rgb(0, 0, 0)" stroke="rgb(204, 204, 204)" stroke-width="1px"></line><line x1="88.17500000000001" y1="0" x2="88.17500000000001" y2="5" style="visibility: inherit;" fill="rgb(0, 0, 0)" stroke="rgb(204, 204, 204)" stroke-width="1px"></line><line x1="176.35000000000002" y1="0" x2="176.35000000000002" y2="5" style="visibility: inherit;" fill="rgb(0, 0, 0)" stroke="rgb(204, 204, 204)" stroke-width="1px"></line><line x1="264.525" y1="0" x2="264.525" y2="5" style="visibility: inherit;" fill="rgb(0, 0, 0)" stroke="rgb(204, 204, 204)" stroke-width="1px"></line><line x1="352.70000000000005" y1="0" x2="352.70000000000005" y2="5" style="visibility: inherit;" fill="rgb(0, 0, 0)" stroke="rgb(204, 204, 204)" stroke-width="1px"></line><line x1="440.875" y1="0" x2="440.875" y2="5" style="visibility: inherit;" fill="rgb(0, 0, 0)" stroke="rgb(204, 204, 204)" stroke-width="1px"></line><line x1="529.05" y1="0" x2="529.05" y2="5" style="visibility: inherit;" fill="rgb(0, 0, 0)" stroke="rgb(204, 204, 204)" stroke-width="1px"></line><line x1="617.2249999999999" y1="0" x2="617.2249999999999" y2="5" style="visibility: inherit;" fill="rgb(0, 0, 0)" stroke="rgb(204, 204, 204)" stroke-width="1px"></line><line x1="705.4000000000001" y1="0" x2="705.4000000000001" y2="5" style="visibility: inherit;" fill="rgb(0, 0, 0)" stroke="rgb(204, 204, 204)" stroke-width="1px"></line><line x1="793.575" y1="0" x2="793.575" y2="5" style="visibility: inherit;" fill="rgb(0, 0, 0)" stroke="rgb(204, 204, 204)" stroke-width="1px"></line><line x1="881.75" y1="0" x2="881.75" y2="5" style="visibility: inherit;" fill="rgb(0, 0, 0)" stroke="rgb(204, 204, 204)" stroke-width="1px"></line></g><g transform="translate(0, 8)"><text x="0" y="0" dx="0em" dy="0.95em" style="text-anchor: middle; visibility: hidden; font-family: &quot;Helvetica Neue&quot;, sans-serif; font-size: 12px; font-weight: 200;" fill="rgb(50, 49, 63)" stroke="none" stroke-width="1px">-100k</text><text x="88.17500000000001" y="0" dx="0em" dy="0.95em" style="text-anchor: middle; visibility: inherit; font-family: &quot;Helvetica Neue&quot;, sans-serif; font-size: 12px; font-weight: 200;" fill="rgb(50, 49, 63)" stroke="none" stroke-width="1px">0</text><text x="176.35000000000002" y="0" dx="0em" dy="0.95em" style="text-anchor: middle; visibility: inherit; font-family: &quot;Helvetica Neue&quot;, sans-serif; font-size: 12px; font-weight: 200;" fill="rgb(50, 49, 63)" stroke="none" stroke-width="1px">100k</text><text x="264.525" y="0" dx="0em" dy="0.95em" style="text-anchor: middle; visibility: inherit; font-family: &quot;Helvetica Neue&quot;, sans-serif; font-size: 12px; font-weight: 200;" fill="rgb(50, 49, 63)" stroke="none" stroke-width="1px">200k</text><text x="352.70000000000005" y="0" dx="0em" dy="0.95em" style="text-anchor: middle; visibility: inherit; font-family: &quot;Helvetica Neue&quot;, sans-serif; font-size: 12px; font-weight: 200;" fill="rgb(50, 49, 63)" stroke="none" stroke-width="1px">300k</text><text x="440.875" y="0" dx="0em" dy="0.95em" style="text-anchor: middle; visibility: inherit; font-family: &quot;Helvetica Neue&quot;, sans-serif; font-size: 12px; font-weight: 200;" fill="rgb(50, 49, 63)" stroke="none" stroke-width="1px">400k</text><text x="529.05" y="0" dx="0em" dy="0.95em" style="text-anchor: middle; visibility: inherit; font-family: &quot;Helvetica Neue&quot;, sans-serif; font-size: 12px; font-weight: 200;" fill="rgb(50, 49, 63)" stroke="none" stroke-width="1px">500k</text><text x="617.2249999999999" y="0" dx="0em" dy="0.95em" style="text-anchor: middle; visibility: inherit; font-family: &quot;Helvetica Neue&quot;, sans-serif; font-size: 12px; font-weight: 200;" fill="rgb(50, 49, 63)" stroke="none" stroke-width="1px">600k</text><text x="705.4000000000001" y="0" dx="0em" dy="0.95em" style="text-anchor: middle; visibility: inherit; font-family: &quot;Helvetica Neue&quot;, sans-serif; font-size: 12px; font-weight: 200;" fill="rgb(50, 49, 63)" stroke="none" stroke-width="1px">700k</text><text x="793.575" y="0" dx="0em" dy="0.95em" style="text-anchor: middle; visibility: inherit; font-family: &quot;Helvetica Neue&quot;, sans-serif; font-size: 12px; font-weight: 200;" fill="rgb(50, 49, 63)" stroke="none" stroke-width="1px">800k</text><text x="881.75" y="0" dx="0em" dy="0.95em" style="text-anchor: middle; visibility: hidden; font-family: &quot;Helvetica Neue&quot;, sans-serif; font-size: 12px; font-weight: 200;" fill="rgb(50, 49, 63)" stroke="none" stroke-width="1px">900k</text></g><line x1="0" y1="0" x2="881.75" y2="0" fill="rgb(0, 0, 0)" stroke="rgb(204, 204, 204)" stroke-width="1px"></line></g></g></g></g></svg>