<svg viewBox="0 0 915.75 400" xmlns="http://www.w3.org/2000/svg"><g><g><g><g><g><line x1="94" y1="378" x2="89" y2="378" style="visibility: inherit;" fill="rgb(0, 0, 0)" stroke="rgb(204, 204, 204)" stroke-width="1px"></line><line x1="94" y1="335.9999999999999" x2="89" y2="335.9999999999999" style="visibility: inherit;" fill="rgb(0, 0, 0)" stroke="rgb(204, 204, 204)" stroke-width="1px"></line><line x1="94" y1="294" x2="89" y2="294" style="visibility: inherit;" fill="rgb(0, 0, 0)" stroke="rgb(204, 204, 204)" stroke-width="1px"></line><line x1="94" y1="252.00000000000006" x2="89" y2="252.00000000000006" style="visibility: inherit;" fill="rgb(0, 0, 0)" stroke="rgb(204, 204, 204)" stroke-width="1px"></line><line x1="94" y1="209.99999999999997" x2="89" y2="209.99999999999997" style="visibility: inherit;" fill="rgb(0, 0, 0)" stroke="rgb(204, 204, 204)" stroke-width="1px"></line><line x1="94" y1="168.00000000000003" x2="89" y2="168.00000000000003" style="visibility: inherit;" fill="rgb(0, 0, 0)" stroke="rgb(204, 204, 204)" stroke-width="1px"></line><line x1="94" y1="125.99999999999994" x2="89" y2="125.99999999999994" style="visibility: inherit;" fill="rgb(0, 0, 0)" stroke="rgb(204, 204, 204)" stroke-width="1px"></line><line x1="94" y1="84.00000000000006" x2="89" y2="84.00000000000006" style="visibility: inherit;" fill="rgb(0, 0, 0)" stroke="rgb(204, 204, 204)" stroke-width="1px"></line><line x1="94" y1="42.000000000000114" x2="89" y2="42.000000000000114" style="visibility: inherit;" fill="rgb(0, 0, 0)" stroke="rgb(204, 204, 204)" stroke-width="1px"></line><line x1="94" y1="0" x2="89" y2="0" style="visibility: inherit;" fill="rgb(0, 0, 0)" stroke="rgb(204, 204, 204)" stroke-width="1px"></line></g><g transform="translate(84, 0)"><text x="0" y="378" dx="0em" dy="0.3em" style="text-anchor: end; visibility: hidden; font-family: &quot;Helvetica Neue&quot;, sans-serif; font-size: 12px; font-weight: 200;" fill="rgb(50, 49, 63)" stroke="none" stroke-width="1px">1.55e-3</text><text x="0" y="335.9999999999999" dx="0em" dy="0.3em" style="text-anchor: end; visibility: inherit; font-family: &quot;Helvetica Neue&quot;, sans-serif; font-size: 12px; font-weight: 200;" fill="rgb(50, 49, 63)" stroke="none" stroke-width="1px">1.6e-3</text><text x="0" y="294" dx="0em" dy="0.3em" style="text-anchor: end; visibility: inherit; font-family: &quot;Helvetica Neue&quot;, sans-serif; font-size: 12px; font-weight: 200;" fill="rgb(50, 49, 63)" stroke="none" stroke-width="1px">1.65e-3</text><text x="0" y="252.00000000000006" dx="0em" dy="0.3em" style="text-anchor: end; visibility: inherit; font-family: &quot;Helvetica Neue&quot;, sans-serif; font-size: 12px; font-weight: 200;" fill="rgb(50, 49, 63)" stroke="none" stroke-width="1px">1.7e-3</text><text x="0" y="209.99999999999997" dx="0em" dy="0.3em" style="text-anchor: end; visibility: inherit; font-family: &quot;Helvetica Neue&quot;, sans-serif; font-size: 12px; font-weight: 200;" fill="rgb(50, 49, 63)" stroke="none" stroke-width="1px">1.75e-3</text><text x="0" y="168.00000000000003" dx="0em" dy="0.3em" style="text-anchor: end; visibility: inherit; font-family: &quot;Helvetica Neue&quot;, sans-serif; font-size: 12px; font-weight: 200;" fill="rgb(50, 49, 63)" stroke="none" stroke-width="1px">1.8e-3</text><text x="0" y="125.99999999999994" dx="0em" dy="0.3em" style="text-anchor: end; visibility: inherit; font-family: &quot;Helvetica Neue&quot;, sans-serif; font-size: 12px; font-weight: 200;" fill="rgb(50, 49, 63)" stroke="none" stroke-width="1px">1.85e-3</text><text x="0" y="84.00000000000006" dx="0em" dy="0.3em" style="text-anchor: end; visibility: inherit; font-family: &quot;Helvetica Neue&quot;, sans-serif; font-size: 12px; font-weight: 200;" fill="rgb(50, 49, 63)" stroke="none" stroke-width="1px">1.9e-3</text><text x="0" y="42.000000000000114" dx="0em" dy="0.3em" style="text-anchor: end; visibility: inherit; font-family: &quot;Helvetica Neue&quot;, sans-serif; font-size: 12px; font-weight: 200;" fill="rgb(50, 49, 63)" stroke="none" stroke-width="1px">1.95e-3</text><text x="0" y="0" dx="0em" dy="0.3em" style="text-anchor: end; visibility: hidden; font-family: &quot;Helvetica Neue&quot;, sans-serif; font-size: 12px; font-weight: 200;" fill="rgb(50, 49, 63)" stroke="none" stroke-width="1px">2e-3</text></g><line x1="94" y1="0" x2="94" y2="378" fill="rgb(0, 0, 0)" stroke="rgb(204, 204, 204)" stroke-width="1px"></line></g></g><g transform="translate(94, 0)" clip-path="url(#clip_0)"><clipPath id="clip_0"><rect width="821" height="378"></rect></clipPath><g><g><g><line x1="0" y1="0" x2="0" y2="378" fill="rgb(0, 0, 0)" stroke="rgb(60, 60, 60)" stroke-width="1px" opacity="0.25"></line><line x1="82.17500000000001" y1="0" x2="82.17500000000001" y2="378" fill="rgb(0, 0, 0)" stroke="rgb(60, 60, 60)" stroke-width="1px" opacity="0.25"></line><line x1="164.35000000000002" y1="0" x2="164.35000000000002" y2="378" fill="rgb(0, 0, 0)" stroke="rgb(60, 60, 60)" stroke-width="1px" opacity="0.25"></line><line x1="246.52499999999998" y1="0" x2="246.52499999999998" y2="378" fill="rgb(0, 0, 0)" stroke="rgb(60, 60, 60)" stroke-width="1px" opacity="0.25"></line><line x1="328.70000000000005" y1="0" x2="328.70000000000005" y2="378" fill="rgb(0, 0, 0)" stroke="rgb(60, 60, 60)" stroke-width="1px" opacity="0.25"></line><line x1="410.875" y1="0" x2="410.875" y2="378" fill="rgb(0, 0, 0)" stroke="rgb(60, 60, 60)" stroke-width="1px" opacity="0.25"></line><line x1="493.04999999999995" y1="0" x2="493.04999999999995" y2="378" fill="rgb(0, 0, 0)" stroke="rgb(60, 60, 60)" stroke-width="1px" opacity="0.25"></line><line x1="575.2249999999999" y1="0" x2="575.2249999999999" y2="378" fill="rgb(0, 0, 0)" stroke="rgb(60, 60, 60)" stroke-width="1px" opacity="0.25"></line><line x1="657.4000000000001" y1="0" x2="657.4000000000001" y2="378" fill="rgb(0, 0, 0)" stroke="rgb(60, 60, 60)" stroke-width="1px" opacity="0.25"></line><line x1="739.575" y1="0" x2="739.575" y2="378" fill="rgb(0, 0, 0)" stroke="rgb(60, 60, 60)" stroke-width="1px" opacity="0.25"></line><line x1="821.75" y1="0" x2="821.75" y2="378" fill="rgb(0, 0, 0)" stroke="rgb(60, 60, 60)" stroke-width="1px" opacity="0.25"></line></g><g><line x1="0" y1="378" x2="821.75" y2="378" fill="rgb(0, 0, 0)" stroke="rgb(60, 60, 60)" stroke-width="1px" opacity="0.25"></line><line x1="0" y1="335.9999999999999" x2="821.75" y2="335.9999999999999" fill="rgb(0, 0, 0)" stroke="rgb(60, 60, 60)" stroke-width="1px" opacity="0.25"></line><line x1="0" y1="294" x2="821.75" y2="294" fill="rgb(0, 0, 0)" stroke="rgb(60, 60, 60)" stroke-width="1px" opacity="0.25"></line><line x1="0" y1="252.00000000000006" x2="821.75" y2="252.00000000000006" fill="rgb(0, 0, 0)" stroke="rgb(60, 60, 60)" stroke-width="1px" opacity="0.25"></line><line x1="0" y1="209.99999999999997" x2="821.75" y2="209.99999999999997" fill="rgb(0, 0, 0)" stroke="rgb(60, 60, 60)" stroke-width="1px" opacity="0.25"></line><line x1="0" y1="168.00000000000003" x2="821.75" y2="168.00000000000003" fill="rgb(0, 0, 0)" stroke="rgb(60, 60, 60)" stroke-width="1px" opacity="0.25"></line><line x1="0" y1="125.99999999999994" x2="821.75" y2="125.99999999999994" fill="rgb(0, 0, 0)" stroke="rgb(60, 60, 60)" stroke-width="1px" opacity="0.25"></line><line x1="0" y1="84.00000000000006" x2="821.75" y2="84.00000000000006" fill="rgb(0, 0, 0)" stroke="rgb(60, 60, 60)" stroke-width="1px" opacity="0.25"></line><line x1="0" y1="42.000000000000114" x2="821.75" y2="42.000000000000114" fill="rgb(0, 0, 0)" stroke="rgb(60, 60, 60)" stroke-width="1px" opacity="0.25"></line><line x1="0" y1="0" x2="821.75" y2="0" fill="rgb(0, 0, 0)" stroke="rgb(60, 60, 60)" stroke-width="1px" opacity="0.25"></line></g></g></g><g><g><line x1="0" y1="1679.9999999999998" x2="821.75" y2="1679.9999999999998" fill="rgb(0, 0, 0)" stroke="rgb(153, 153, 153)" stroke-width="1.5px"></line></g></g><g><g><line x1="82.17500000000001" y1="0" x2="82.17500000000001" y2="378" fill="rgb(0, 0, 0)" stroke="rgb(153, 153, 153)" stroke-width="1.5px"></line></g></g><g><g><g><g><g><path style="fill: none;" stroke="rgb(255, 112, 67)" stroke-width="2px" d="M82.66805,63.44436138868355L83.73632500000001,-70.5503749768987L84.22937499999999,42.30250144191746L85.544175,129.73997030689884L85.70852500000001,159.44878449605824L85.95505,315.914263206404L86.61245,335.84750444458564L86.858975,283.3052089905287L88.0916,217.283289164152L88.338125,270.5896385674373L89.981625,230.8037615269324L90.63902499999999,125.73949446990412L90.967725,105.24845254501417L92.61122499999999,161.19125841874532L93.6795,164.97490071731085L94.9943,135.77388903064443L95.240825,158.49983246521435L95.9804,204.43180046591053L96.884325,211.89297320790365L97.29520000000001,178.02770580742714L97.45955,163.99093543648135L97.870425,129.66054264845437L99.26740000000001,122.20044989626538L101.07525,164.96913665421243L101.486125,165.8648106566714L102.71875,167.18909419066802L103.2118,174.22040821810057L103.62267499999999,210.8916992864796L104.19789999999999,195.42843402582088L104.69095000000002,209.97896916554208L106.252275,180.84463159184213L107.56707499999999,203.53785793855715L107.731425,224.5786194019928L108.388825,265.8795522175803L109.37492499999999,236.49224263922852L110.1145,188.04238591746648L110.7719,271.93270390694113L112.0867,248.38314720761895L112.4154,194.89160342045483L116.85284999999999,191.86020429200542L116.93502500000001,214.01550785094827L118.332,217.32626680117875L118.57852500000001,190.54085586018445L118.82505,205.9466404003763L120.057675,198.07672413536423L120.30420000000001,211.89512583979788L120.38637499999999,204.753001910291L121.208125,168.5581683983547L122.6051,170.73578536364266L122.76945,180.5940223100747L124.495125,165.773990148928L125.8921,129.8638814611673L126.302975,132.24269804532258L128.5217,124.39651385977669L129.34345000000002,135.08207819207246L129.8365,180.59604458900563L130.00085,182.22527941707787L130.41172500000002,175.04503360469468L130.4939,103.7980729478262L131.726525,105.2756522928126L133.20567499999999,128.33369124204074L133.370025,170.74227845958626L134.356125,182.2162526228082L134.93135,166.44249182895916L135.013525,173.7055219404044L135.177875,152.53146506436698L135.4244,117.26014520312202L135.58875,106.28940643713281L136.57485,93.09908300215494L137.39659999999998,154.61332816259917L138.3827,154.31937411208153L138.793575,163.26645184270242L140.930125,129.9512495264652L141.258825,117.27114281629446L141.587525,121.66470390037176L141.6697,143.98470316833277L142.244925,134.51019409401385L142.9845,111.47441626213708L143.3132,86.87267799414121L143.64190000000002,135.31972686363775L144.052775,110.7453670725057L144.381475,156.74311979286813L145.12105,191.6163751948018L145.44975,228.52187063150723L145.6141,205.1437043207251L145.77845,171.3269346298379L146.353675,142.5120040009427L146.76455,175.68212952324802L146.9289,153.6802547161475L147.339775,154.16041111278292L147.504125,134.19289647795608L147.832825,108.96217794167222L148.16152499999998,129.60404827730167L148.654575,126.72881978263038L148.73675,110.52379053193562L150.62677499999998,102.34952708804929L150.955475,90.13235157369763L153.66725,84.86806331076167L154.242475,78.11877759432292L154.735525,87.01898216744024L155.885975,103.6937940064127L156.214675,140.6313496631884L156.7899,128.9975068160921L156.95425,109.74612332296158L157.44729999999998,143.75043796660648L157.61165,107.09733199986624L158.7621,103.33507066322454L158.844275,124.6771206882907L159.666025,159.05332224889736L159.91255,192.4290314704823L160.652125,219.68079931124194L160.98082499999998,215.29341584742974L161.309525,248.50946315905387L162.04909999999998,205.1813123436799L162.13127500000002,197.3087369594127L162.624325,197.431627087291L162.7065,208.06546216439372L163.117375,203.4849578462545L164.103475,220.71455896498696L164.596525,202.93901032885404L164.84305,222.18936291107076L165.582625,166.60205082580865L168.04787499999998,145.11897700942947L169.11615,137.53907359404292L169.6092,104.63969712057894L169.855725,107.99136611846552L170.020075,125.58695851100362L170.34877500000002,151.33577005608285L170.841825,188.99503044759163L171.2527,195.86276736375842L172.07445,219.55510302091284L172.5675,205.82165065271627L172.978375,241.85149866973282L173.800125,204.29004731050773L174.21099999999998,177.50786946523507L177.251475,145.66346924021366L177.580175,155.33248731880653L177.66235,173.7626245783812L177.74452499999998,129.24601164911763L179.223675,160.53343525607224L180.209775,164.22307124193125L180.29195,125.22925359164921L180.785,109.07809428987531L181.360225,154.20231375992202L183.49677499999999,169.55570739809474L184.482875,160.5615490071053L185.3868,181.072511256862L185.63332499999999,197.2482628461023L185.87985,211.70702657630645L187.52335,216.8378263421823L188.0164,197.32054574608156L188.59162500000002,180.6670901189802L189.084675,186.90063421889766L190.399475,162.80373578128766L190.64600000000002,147.098097260557L191.549925,159.48038383644752L191.79645,184.23406182019846L192.04297499999998,210.60893351620365L192.12515000000002,216.7007258728561L196.06955,198.9026730084736L196.316075,216.52417002985274L196.5626,279.56196487885694L196.644775,284.9037119304955L198.45262499999998,261.4603525261016L199.438725,269.06634346091596L199.603075,260.69125902666747L199.931775,264.61438247887725L200.260475,236.97082470328147L200.589175,263.8407703135509L202.64355,236.31632971201978L202.725725,199.51524590654122L203.62965,162.5950555759827L204.28705,186.9657911753917L204.61575,168.61829058725834L204.7801,168.2755558135138L206.177075,216.76806351445845L207.40970000000002,194.57355472721662L207.7384,218.57370232799045L209.79277500000003,167.836238923681L211.10757500000003,171.4625329135798L211.18975,207.8016891053335L212.42237500000002,194.0877359211468L212.75107500000001,201.88925517074705L214.065875,191.32215974157296L214.14805,206.46062240282197L215.216325,192.45790749817635L215.95589999999999,159.46289571928898L216.366775,100.3495200838912L216.77765,92.3433662129894L217.024175,68.88690162980043L217.43505,52.283289902523165L217.681575,55.52945378786245L218.667675,97.15291233196552L219.32507500000003,97.6433485723212L219.90030000000002,130.44566004708653L220.47552499999998,192.50716302573167L221.2151,188.74287097935724L221.5438,168.80533705510976L221.62597499999998,210.32515952958423L221.70815,147.83381183483542L221.8725,179.79966341085884L222.119025,225.06437697503702L222.69425,242.71162564613448L223.43382499999998,213.51297170114208L224.255575,212.1189961631008L224.584275,199.45697485245532L224.748625,198.28207774126156L224.99515,221.7771283146294L225.406025,219.04314996807534L225.65255000000002,200.13298529227177L225.734725,222.9756120971313L225.8169,199.8709522408229L227.37822500000001,214.73601756260956L228.11780000000002,218.68281046975326L228.61085,239.922173086021L229.186075,267.0383621086287L229.26825000000002,201.9937901119002L230.007825,180.9622589479119L230.58305000000001,205.60291021375323L232.308725,216.46169608678795L232.637425,229.90218473341253L233.45917500000002,224.08562990937526L233.78787499999999,176.26028426062527L234.52745,169.69191016656285L235.59572500000002,178.43162031726519L235.84224999999998,166.54780185248745L236.33530000000002,174.59750401061666L236.49965,146.06910162684997L239.2936,168.68348296971695L239.78665,145.08564867597184L241.18362499999998,156.53470118840772L241.34797500000002,216.95440257859786L242.005375,215.05613512040318L242.2519,221.04384474460144L242.41625,217.17457321282825L243.8954,271.7014472597258L245.04585000000003,233.12764543955714L245.2102,255.07698938948016L246.68935000000002,270.35005772014165L247.01805,271.1102395480925L247.67545,241.35112412031856L249.07242499999998,223.14501138915878L249.56547500000002,231.05901742634464L251.53767499999998,196.36673030672134L252.523775,205.95945556394122L252.60595,237.03516067073738L252.85247499999997,197.05567660317166L252.93465,200.63738608259374L253.099,200.47602154074625L253.26334999999997,249.75224217947041L253.59205,176.23833072467565L253.92075,139.82355636899396L254.331625,135.9004600349986L254.495975,122.82825679363964L255.72859999999997,103.95482487181692L258.52254999999997,130.99859550257662L258.85125,86.39248387948987L259.0156,64.85174627094744L259.426475,22.72128828748464L260.16605,27.960725322829035L261.15215,60.299511179036585L261.97389999999996,85.39312876737296L262.13825,88.21114421614851L262.3026,61.718868865606794L262.384775,46.35446814807483L262.71347499999996,68.84107924429105L262.96,74.96765519167133L263.6174,124.39867255826158L263.9461,150.41922847769382L265.09655,133.79364601082412L265.58959999999996,148.01214084825617L266.000475,152.10373831139694L266.08265,164.53751716998627L266.247,218.58442840566508L266.493525,188.12613096168073L266.657875,123.04276966746511L266.822225,127.53135671045763L266.9044,96.71750836663608L267.479625,74.28039041691471L267.72614999999996,116.78895366967475L268.137025,130.20890360204265L269.69835,163.270834387496L270.5201,113.46957609160137L271.01315,129.4588340194843L271.50620000000004,130.9458953772626L271.8349,122.03200676005773L272.821,133.33742833177854L272.90317500000003,98.68873524105862L274.95755,120.42353466096336L275.697125,121.47944477894436L277.0941,136.63550418420388L278.57325000000003,171.5177538518959L278.65542500000004,196.05762950553267L278.819775,201.53328587761905L279.641525,228.21485307948126L279.970225,255.12101480784793L281.53155000000004,255.3203276679465L282.435475,217.79352364410823L283.092875,217.51017145040487L283.58592500000003,261.7374340449837L283.6681,257.3359639276624L283.83245,266.3921485577132L283.9968,253.023911988804L284.40767500000004,202.59904351926016L286.46205000000003,174.7736756765497L286.544225,212.5604089436224L287.365975,189.97736509924718L287.530325,169.13463799314715L287.9412,190.89639062276805L289.09165,203.60926839343915L289.5847,189.10569132982675L290.324275,212.4254138912469L291.5569,235.36233107558286L291.8856,258.0860538734024L292.04994999999997,269.5811173352325L293.118225,256.40205574328223L294.104325,267.0904857497918L295.090425,281.1934577672042L295.1726,277.098736770304L295.912175,272.5481150439548L296.40522500000003,305.06558864335756L297.8022,314.06056216228495L298.29525,288.12430864976477L298.37742499999996,278.22365059471105L299.034825,283.28970865770555L299.527875,318.5414006720278L300.020925,334.9771569961572L300.4318,274.7513881216284L302.321825,271.0240729129168L302.89705,277.96210030995496L303.307925,294.63582091286196L304.3762,293.10525005538227L304.951425,278.411317308059L306.18405,288.25561239732264L307.17015000000004,258.7555542237725L307.416675,211.08578529034526L308.567125,167.01066115714147L308.6493,149.941255502853L308.81365,182.13652017604085L311.44325,188.80021188757513L311.525425,238.95266133116203L311.6076,217.93488340139245L312.18282500000004,266.2536601787196L313.08675,307.3423361277924L314.319375,306.12480450388927L314.73025,312.1618831490022L317.1955,305.9831580595263L318.263775,301.8948102884966L319.00335,333.3763124065229L319.742925,262.59238106906076L320.235975,238.04974037021097L320.564675,261.12282613017885L321.96164999999996,252.6499657773859L322.12600000000003,235.81843963881312L322.208175,227.2401580508349L323.194275,194.93965063653593L324.673425,230.6899939402538L326.0704,234.28401194211224L326.7278,220.32882135089977L328.617825,197.5174731550521L329.3574,180.25473797660223L329.52175,227.1069692984923L329.6861,171.48006124785883L330.01480000000004,190.77365640692113L330.096975,262.37298813961905L331.0009,233.6580047384169L331.247425,250.36985977741472L331.90482499999996,183.71177125053757L332.15135,183.04201452950088L332.89092500000004,199.6268986971925L334.12355,232.67151855484406L334.45225,238.86117300515565L334.6166,265.00608293228026L335.849225,240.88054318439376L336.91749999999996,207.41312006155917L338.807525,189.17697491383805L340.04015,178.95386370318764L340.122325,179.27499083248657L340.69755000000004,218.86174382702598L341.108425,213.5515964129814L341.51930000000004,206.68244177245322L341.84799999999996,189.77426946887277L342.01235,222.1248924313089L343.32715,265.18738537234975L344.80629999999996,284.38253990965705L344.888475,284.76935656435154L345.4637,278.57232599988754L345.71022500000004,230.86367093356128L347.68242499999997,214.76934677286448L347.92895,203.19191372102648L348.504175,198.79859023427505L348.7507,164.0549909603794L348.832875,223.72256558303832L348.997225,228.56111033557187L349.0794,225.8758918274789L350.72290000000004,186.94437137955583L351.133775,153.23943245453373L351.87335,173.02747478076293L353.84555,136.25718482573458L354.50295,111.1939351848331L355.65340000000003,84.5562809489578L355.735575,139.7058411828348L356.14645,169.03825355097675L357.13255,146.3064186798784L359.515625,160.94078980629916L359.67997499999996,208.31010529245688L359.844325,207.31851235490225L360.50172499999996,236.36690878907905L361.8987,240.49623509010732L362.309575,229.03522890965107L364.11742499999997,187.9686670719979L364.36395,198.99475753778802L364.774825,171.30320236511162L365.35005,210.162957757805L365.67875,249.9809244387693L365.8431,256.5842069004489L366.33615,229.7676450816852L366.41832500000004,221.55804813427304L366.911375,215.2674723277025L367.4866,243.65995030711886L367.97965,262.82411530861964L368.226175,280.0490398876343L369.62315,273.9071376999444L370.60925000000003,297.0466926773096L370.855775,252.46426023510432L371.431,206.71419909567243L372.7458,234.7642569777721L372.91015,224.04168246275367L373.4032,229.57970782520928L373.7319,218.25101621659906L373.89625,181.1027622316388L375.0467,181.29017404935723L376.443675,153.60467263807632L378.087175,176.08588903024594L379.566325,173.7143921043706L379.730675,167.96527927916347L379.895025,167.60972211108597L380.14155,182.04972827594872L380.38807499999996,160.37930548186353L381.78505,121.33080478008327L382.688975,107.81036606129175L382.77115,99.87063577648536L383.839425,86.00021171608455L386.30467500000003,141.10295260806868L386.469025,165.8421531009077L388.44122500000003,183.3751465212463L388.769925,151.47168683241242L388.934275,157.06052277741222L389.427325,217.0777534291808L389.67385,218.72977545222614L389.8382,158.53663690710943L390.577775,131.43182764492806L391.15299999999996,91.78143809028603L392.221275,107.80058363635663L392.87867500000004,59.3904994463266L393.94695,68.9348618643291L394.1113,93.33249583454193L394.357825,100.79497547472641L395.343925,161.85992412887626L395.672625,167.67526565303766L396.0835,198.08810339847545L396.24785,213.96789070423833L397.06960000000004,190.7159214373504L397.3983,203.2147051272757L399.78137499999997,148.59956946623046L400.19225,141.24343350516304L400.767475,122.09740854787722L402.82185000000004,151.9462323522974L402.904025,108.59155528274857L403.561425,131.26736377204372L404.383175,120.96405791066508L405.040575,111.4047763808586L405.6158,109.66420680856862L405.9445,78.15012646236562L406.84842499999996,107.27295450137728L407.341475,101.74876216888424L407.83452500000004,117.35837791568053L409.642375,156.85289895197158L410.5463,155.02814666399712L410.957175,121.58290474238419L411.69675,79.68192579855707L411.778925,102.19287326941065L412.765025,57.80460160382859L413.66894999999994,60.28565993301521L413.915475,36.66799743079338L414.737225,13.33338360431668L414.81940000000003,-18.429805617545185L418.59945,33.61441347955383L419.010325,53.073679013181334L419.09250000000003,42.865653011019845L419.91425,27.43570547355654L425.913025,83.39250732782591L426.81694999999996,89.88081856211824L426.89912499999997,62.99675916410217L427.06347500000004,62.551675377280105L427.227825,61.75253209143034L427.47435,84.44605137410008L427.55652499999997,68.40781955124964L429.6109,87.89076672749542L430.021775,123.64515791913999L430.26829999999995,91.06972821576414L430.9257,138.8262323187859L431.82962499999996,142.73108369681884L432.56919999999997,159.59518558076314L432.81572499999993,240.82857466525977L432.89790000000005,236.07070665914247L434.130525,237.73010119520225L435.445325,202.46401583900382L435.93837499999995,190.05904153660234L436.26707500000003,165.17666370280344L437.00665000000004,133.1842526624299L437.17100000000005,76.5400888171522L437.91057500000005,59.833932248955534L438.239275,36.74156631070855L438.73232500000006,25.231462173507964L439.1432,85.66922231273031L441.27975000000004,108.47407649835515L442.01932500000004,128.16852090177446L443.25194999999997,117.77750933841628L443.827175,109.478550371609L444.320225,114.26346931643667L444.648925,120.76764255422995L444.7311,94.30110114507653L446.29242500000004,75.64917965405692L446.53895,44.508941251100794L447.03200000000004,52.73384323244852L449.49725,65.09011206128213L449.9903,80.61441175280243L450.319,97.2012047623536L450.565525,118.48848959326222L451.22292500000003,145.91937808039313L451.387275,147.56286860563628L452.78425000000004,173.92460327051526L452.86642500000005,174.88456341507228L454.42775000000006,163.7337566648321L454.509925,131.96822880814042L454.75645000000003,162.63414590754724L455.49602500000003,144.45554786949126L456.153425,155.48932509746047L456.31777500000004,140.55530058258086L456.39995,157.7807401962279L458.454325,134.66821911309952L458.70085,108.74543407447447L459.604775,58.72005232918838L459.8513,54.75996799393221L460.01565,32.34918001702795L460.18000000000006,71.20400176639589L461.16610000000003,89.12971913020522L462.56307499999997,98.0533118400042L464.28874999999994,55.94042702195634L464.863975,37.095162983336365L465.521375,75.24466337540588L465.85007499999995,110.31496740977917L466.4253,129.68713726938623L466.507475,127.59147204539931L466.58964999999995,96.32362179531242L467.41139999999996,79.96163671529536L469.54795,64.83450506165235L469.958825,103.25307509185012L471.273625,68.9831963707311L471.68449999999996,100.56841719785058L472.17755,100.19500281562262L472.50624999999997,131.6091278596209L472.588425,102.32657746852823L473.24582499999997,152.62596567465104L473.49235000000004,168.01980037981187L473.57452500000005,111.00143535727778L473.738875,78.25624545330868L473.98539999999997,85.49739400966513L474.724975,72.71786727389889L475.05367499999994,59.221595834623486L475.382375,74.07244418793687L475.6289,76.70747314528029L475.711075,63.97405112953834L476.20412500000003,72.08434058879476L476.69717499999996,7.253435107958126L476.86152500000003,23.02626884614682L477.10805,3.6958340105587126L479.98417499999994,42.05196521107899L480.970275,64.38989693082453L482.5316,37.71216261378322L482.69595000000004,66.00695529646924L484.01075,111.26942993239095L484.25727500000005,157.2270742784636L484.421625,153.34852728820127L484.5038,129.00330227830668L486.065125,143.23976674424398L488.037325,141.69052895528176L488.28385,134.6973816264162L489.352125,151.12196695433465L490.00952500000005,146.11969397553582L490.74909999999994,140.59445400764446L490.995625,118.0972292771628L491.15997500000003,141.61331706500266L491.24215,124.21952715447142L492.39259999999996,135.80109638062652L493.04999999999995,171.05770871792012L494.85785,195.69498671520165L495.3509,238.5027415276624L495.597425,222.4603041794351L496.17265,238.43963205022666L497.240925,234.89698238703357L497.40527499999996,209.23376206337883L497.48745,148.57721479635975L498.06267499999996,157.02282738895587L499.541825,166.18987947071844L501.43185,221.56201332240042L501.84272500000003,254.62356090034893L501.9249,271.77613924729076L503.486225,229.37020860571175L503.650575,237.50091900639396L504.14362500000004,219.7657636460304L506.280175,236.44595095053066L506.69105,238.58406806172195L507.759325,251.87225184230144L508.08802499999996,192.58997070540312L509.56717499999996,174.1126116536497L510.224575,145.63923080317122L512.1146,133.44666029112295L512.361125,126.86326523956731L512.4433,137.57218454707038L512.772,122.91254285956956L512.8541749999999,158.78132134514027L513.1828750000001,192.2725867204693L514.990725,162.43301760907417L516.88075,162.14458791245914L517.949025,174.19189675819766L519.263825,137.42742025111812L520.16775,105.78549320925498L521.4825500000001,149.44605112087044L522.633,180.98340220759496L522.715175,175.93112587192823L522.9617,226.3056511291191L524.358675,256.04764818623596L524.687375,283.1538928178692L526.330875,208.41939006397808L526.495225,212.50239840879752L527.645675,265.4653368672852L528.0565499999999,234.46920602301878L529.207,221.45322066199893L529.289175,253.72895180048448L529.453525,267.4507970819942L529.8644,276.13738454148825L532.1653,292.6506604896395L532.904875,250.21538140443636L533.4801,235.60183723629416L533.8088,257.63513915116397L534.30185,232.52778057642098L534.7949,174.17379687923793L535.205775,175.2285410190993L535.4522999999999,170.095078980211L535.61665,169.464338341609L536.849275,178.84490956597514L537.58885,146.4789154952732L538.24625,139.33418974587036L539.6432249999999,117.87682843484333L540.0541,108.90623938838706L540.21845,80.36305396378089L541.2045499999999,139.9200017217104L541.3689,169.23122295036652L541.86195,150.0132030245193L542.84805,130.4535638984914L543.258925,133.5143002820203L544.080675,155.5564486565163L544.902425,146.38434569897987L546.2994,165.4862317743546L547.2033250000001,149.03102810406503L547.3676750000001,163.38648422262509L547.696375,163.2731527644524L548.9290000000001,134.7782537393089L552.298175,98.04421256950343L552.5447,137.12652251619855L552.8734,175.77043417542077L554.02385,144.5522851954301L554.927775,166.3787927145124L555.503,163.21054004112122L556.8999749999999,184.4360428823164L557.1465000000001,216.7654290965018L557.557375,218.6885009784237L557.96825,220.7465943578245L558.4612999999999,196.95893974304454L559.4474,171.7782360720658L559.5295749999999,185.74947472956984L560.92655,149.16300238562116L561.1730749999999,122.20207812391962L561.7483,112.0852227017574L563.967025,113.09550958919152L564.131375,164.3656155180717L564.7066,181.8073547075795L565.52835,170.3697014844959L566.18575,165.72842100231748L566.3501,195.0465969574652L566.9253249999999,201.35173698504587L567.6649,156.26490361457897L568.4866499999999,98.09412509470434L568.568825,88.49618281664772L569.390575,70.29878153570581L569.719275,87.1337704844899L569.80145,80.48320256062982L571.362775,83.85563649137589L571.77365,116.11495269745365L571.938,96.87089121410042L572.2667,103.35186367319926L573.0062750000001,94.52021232325052L574.4854250000001,70.3262957728943L576.128925,79.70239596489427L576.5398,88.12901456883577L577.279375,88.46552520749884L577.772425,133.16785673580688L577.8546,148.01635042085152L577.936775,83.47430071461713L578.1833,128.07892965878708L578.4298249999999,133.41405207758237L580.237675,122.6986612142183L581.63465,131.21831956977158L581.716825,115.05771004534836L582.045525,84.64118683377279L582.4564,110.73479618390837L583.031625,94.56292936885751L583.7712,106.88892329947117L583.93555,85.43874896510806L584.7573,71.05636202792266L585.25035,49.440707476436444L585.4147,106.99153022378624L585.90775,69.73203193911849L586.0721,73.51626146676199L586.23645,90.65479379602124L587.22255,86.08993162624103L587.3869,110.66385276909523L587.55125,123.9686658073592L589.441275,163.15553769521085L590.18085,211.25207711802872L590.427375,204.29443472963828L591.742175,220.2532193750939L592.5639249999999,214.84857480443728L592.6460999999999,210.2763140265694L592.8104500000001,249.23260240088862L593.3035,209.6962543427732L593.79655,245.15848531721113L594.3717750000001,215.08949222622576L594.78265,217.8970675613725L595.357875,163.15956387933292L595.850925,164.07107457756575L596.9192,144.9358843511902L599.05575,162.79299759834063L600.69925,195.62497184621438L600.9457749999999,163.00127665800284L601.274475,208.7702599668721L601.3566500000001,254.33023152165586L601.931875,223.03992086571148L603.32885,207.91938364659268L604.232775,154.5732290013538L605.1367,142.73220877771732L605.711925,172.02577964298564L606.204975,199.47980148717144L608.177175,213.62753607518417L612.0394,180.33017092365273L612.6968,205.44205505104276L613.0255,206.86940677197066L614.0937749999999,215.2304269125875L614.9977,262.4048008472456L615.3264,261.6774583899142L615.9838000000001,288.8125109077835L616.065975,252.83837082100013L616.394675,224.1645767803081L617.13425,189.23375646159843L617.216425,190.28210674869243L618.038175,187.51902288702615L618.12035,160.89495209462177L618.2025249999999,176.23737345731317L618.859925,194.01386415746265L620.503425,213.48603933635155L622.4756249999999,213.86730743571653L622.8043250000001,242.46699263713847L622.968675,270.74199334960065L623.05085,258.1259291873653L623.297375,311.6354158675323L624.0369499999999,284.40428925952165L624.1191249999999,260.8423435172514L624.8587,278.6992758197554L625.105225,240.1631952464254L625.9269750000001,252.15928165373236L626.33785,239.06924366137724L629.29615,220.8322273643137L630.0357250000001,205.3535982773889L630.200075,266.6035610189607L630.528775,274.0200464018199L631.021825,256.27065582615256L631.2683499999999,280.0852439496706L631.843575,268.1593821147494L632.0901,274.84041694471955L632.500975,252.56886609944442L632.7475000000001,212.72120709168397L633.4049,217.90242488262783L633.7336,170.55925807426337L634.0622999999999,154.35228814396226L634.88405,165.57177445035853L634.966225,180.22926582314088L635.952325,215.15433023945238L636.281025,185.93586434193617L636.85625,188.48469308109435L637.18495,216.3609408424022L638.088875,210.20277316517135L639.074975,280.6738576324717L640.389775,226.76334929751783L642.44415,188.57980379272175L643.676775,154.79287754424223L644.827225,185.91500487263033L645.155925,198.04467189015486L645.4846249999999,180.03229511709398L646.142025,196.80659368274848L646.635075,229.40148992513042L646.71725,194.51018351174386L648.1142249999999,204.80120204335734L648.8538,176.83017258298065L649.34685,179.65337566541123L650.0042500000001,179.00451261481498L650.250775,176.15477752251198L652.058625,203.09190111514414L652.3051499999999,242.0609569556099L653.4556,206.17332731246194L653.7843,205.2421183397701L654.4417,170.38314537051306L654.688225,144.7051957176L655.181275,151.84992006503376L656.660425,178.1169181339399L656.824775,187.48804045669326L658.303925,201.5621801059135L658.4682750000001,176.70624056524235L658.7148,194.559234551187L659.9474250000001,231.99344526671965L660.19395,228.12505532154682L660.52265,261.4547164486279L661.097875,244.528575941601L662.16615,229.65770928979975L662.6592,237.92952888984448L663.8096499999999,224.12577935706642L664.79575,237.26948094652056L665.3709749999999,232.94337713899583L666.028375,233.68749155118198L666.685775,164.84164866966725L666.76795,222.9870177752917L667.178825,220.59392687578304L667.507525,243.64454187288246L668.5758,220.98845127076828L668.9045,228.056077293464L670.05495,245.25598622731133L671.04105,209.41910187785413L671.1232249999999,230.20868191466843L671.69845,252.09941756885738L672.35585,222.1718198030724L672.8489,225.83234213765272L673.34195,198.96141002007548L673.917175,171.025842430546L674.081525,156.59969247343003L674.8211,180.4811045740114L674.98545,258.1351299887061L675.067625,251.8574783702337L676.62895,175.00139383968502L676.8754749999999,182.97051421699024L677.61505,224.60966160354397L678.683325,236.27749215475353L679.5872499999999,234.81690724264053L679.8337750000001,235.10811318818145L680.655525,238.89040229347412L681.970325,208.35718707853903L682.87425,247.98077896190603L684.3534,263.62214606213195L685.17515,262.9162222105947L685.2573249999999,277.8731989935356L685.6682000000001,275.46413653272236L685.750375,249.7385436655091L686.3256,227.55473469445178L686.6543,228.51054112761395L686.736475,260.5249808563218L686.8186499999999,249.8472614772701L688.051275,284.70503284224134L688.6265,276.4470801422441L688.708675,302.6367410051326L689.037375,287.77054240800436L689.201725,258.4892612144127L689.9413,273.3475749107993L690.27,297.78792870755154L690.516525,308.98292855738225L692.653075,329.82498304607225L692.73525,332.4133348083056L693.474825,350.08892726813764L693.7213499999999,380.56292564271405L694.05005,343.5202067398892L694.296575,346.36145128046275L695.118325,311.79224443347573L695.2005,331.7206635646043L695.2826749999999,305.98682141947916L695.3648499999999,272.0637986509339L695.775725,299.924621730149L696.268775,286.62913180062196L696.597475,334.72321791949L696.761825,311.2547873720716L698.076625,302.24334424497414L698.569675,304.7923061058974L698.65185,358.87782178947833L699.30925,328.7800421912626L699.8023000000001,358.1529775723061L700.870575,372.2242533234574L701.4458000000001,334.4098257483082L702.26755,355.90054985905033L703.7467,363.1152570652158L704.4041,386.5176756224503L706.294125,390.09129075331714L706.8693499999999,337.0230282526304L707.3624,362.5903268432103L707.608925,350.303386757566L710.15635,361.92709313463564L710.238525,359.3171177019006L711.553325,366.1866477244489L711.6355,352.6035026450509L712.45725,332.68063441198063L712.703775,337.3830425689905L712.8681250000001,320.1974621929487L713.77205,349.80441054115533L714.2651,318.46665560075496L714.5116250000001,286.8264925974804L714.840325,282.3338682128368L716.155125,281.0369849211018L716.319475,249.75463166141873L716.40165,245.75196887303335L716.7303499999999,245.07088773920188L716.9768750000001,240.4614400503699L717.1412250000001,246.39304322117545L718.2916749999999,265.59468174008106L718.6203750000001,286.9231390270076L719.5243,273.9460753407313L719.7708250000001,251.91349739637081L721.414325,232.00429351827006L722.071725,256.3865514475151L722.8934750000001,295.6070313158374L722.97565,286.7135872366495L723.879575,344.3100999990077L725.7696,318.55247565275164L726.180475,336.79848728179076L727.57745,320.5285796718222L729.467475,308.598609673657L729.631825,313.9859457159142L731.1931500000001,318.6473704772383L731.2753250000001,313.59850460861844L731.604025,326.54952140517287L731.932725,287.0655733141356L733.411875,285.8112873510766L733.904925,296.49105214711267L733.9870999999999,284.2665759389362L737.43845,281.0019352546122L738.09585,266.47920989341617L738.75325,247.16354909551515L738.835425,251.3716769972059L740.2324,246.89230238723275L740.8897999999999,218.0017413749772L741.300675,221.2583535436818L741.629375,192.3763945049671L742.5332999999999,239.65287868797427L743.5194,233.41799584436106L743.765925,253.74646818555306L743.930275,256.3867796741448L744.258975,237.20336197234897L744.916375,254.7934664607141L748.1212,301.84400939450506L749.846875,306.1665938437508L750.339925,279.53944835950676L750.4221,250.26974629363184L750.58645,211.5110744923423L751.819075,209.10824664071816L752.3942999999999,225.01079698773293L754.2843250000001,213.19951922779146L754.448675,234.94080036730938L754.613025,260.0386278690521L755.51695,251.78390645488722L755.763475,271.70494273830616L757.16045,244.85923643883316L757.6535,241.06477459275357L758.721775,278.2344772741522L760.365275,311.865752606868L761.10485,273.875860753011L762.2553,304.9301813161533L762.4196499999999,290.85445925886876L762.5840000000001,292.8965327095578L763.323575,247.66707045897166L764.06315,220.2769147357135L764.72055,263.1676574461867L766.36405,252.8814719092735L766.5283999999999,248.69047342362012L766.774925,246.1822319056572L766.9392750000001,243.22780480840626L767.432325,242.24124479689135L768.4184250000001,273.9469091078455L768.5006000000001,324.7569719424082L769.075825,328.35879828887283L769.32235,348.5225322032608L769.733225,349.1265791670654L770.30845,359.1778030260957L770.4728,351.9393488367996L771.7876,345.7723208271505" fill="none"></path></g></g></g></g><g opacity="0.2"><g><g><g><path style="fill: none;" stroke="rgb(255, 112, 67)" stroke-width="2px" d="M82.66805,63.44436138868332L83.73632500000001,-191.14563770592213L84.22937499999999,235.2809201180935L85.544175,342.99995686858887L85.70852500000001,251.40053529292342L85.95505,892.5818668864666L86.61245,419.9066006764769L86.858975,36.601903215050754L88.0916,-121.13154463469976L92.61122499999999,536.6973153501748L93.6795,191.2374974414706L94.9943,-72.92515195906157L95.240825,325.13285458087915L95.9804,548.8780926167964L96.884325,268.96458987146616L97.29520000000001,-85.58744162321085L97.45955,53.01889434456825L97.870425,-145.50542056560516L99.26740000000001,61.67144916951656L101.07525,515.772257298231L101.486125,173.28287411481145L102.71875,178.25201556086537L103.2118,233.41354385018346L103.62267499999999,521.7414855211972L104.19789999999999,63.54244362562895L104.69095000000002,334.76564504206175L106.252275,-70.24906173348421L110.7719,1009.9363343976437L112.0867,40.73446087539196L112.4154,-277.7472656965256L116.85284999999999,165.025679692626L116.93502500000001,410.46596534550184L118.332,246.72671623528L118.57852500000001,-47.64164395630354L118.82505,343.10468874871725L120.057675,127.93436117470264L120.30420000000001,335.1752826198935L120.38637499999999,140.97880974411967L121.208125,-154.8923698067665L122.6051,190.20963862538338L122.76945,268.81008345633745L124.495125,33.08111272752285L125.8921,-191.82800844311703L126.302975,153.56267273426056L128.5217,54.04616642743349L129.34345000000002,230.92696845531464L129.8365,588.9751476421951L130.00085,196.84823166579008L130.41172500000002,110.58211728930473L130.4939,-536.0020004957912L131.726525,118.54731414467096L133.20567499999999,335.4831219837069L133.370025,551.8022732064127L134.356125,285.33170867711306L134.93135,24.664620235562325L135.013525,238.99572372436523L135.177875,-37.83283352851868L135.4244,-199.8785749822854L135.58875,7.637622132897377L136.57485,-25.521997064352036L137.39659999999998,707.8560994192957L138.3827,151.67544532567263L138.793575,243.74474242329597L140.930125,-169.73339550197113L141.258825,3.2023101300001713L141.587525,161.19049798697233L141.6697,344.7903732955455L142.244925,49.26800664514303L142.9845,-95.78545175492764L146.9289,-44.3179958313703L147.339775,158.48145291209218L147.504125,-45.50104558467859L147.832825,-118.0987206101417L148.16152499999998,315.3694181889295L148.654575,100.8532003685832L148.73675,-35.31418338418007L150.62677499999998,28.784465342760086L150.955475,-19.81777667999262L153.66725,37.49119520187378L154.242475,17.37719804048544L154.735525,167.11845930665731L155.885975,253.76311440020797L156.214675,473.06140355765814L156.7899,24.29517388343811L156.95425,-63.512973189353886L157.61165,-222.77544781565655L158.7621,69.47519659996033L158.844275,316.7531307041645L159.666025,468.435598835349L160.652125,464.94443837553257L160.98082499999998,175.80729380249977L161.309525,547.4516463652252L162.04909999999998,-184.7694122046231L162.13127500000002,126.45598903298378L162.624325,198.53763218969107L162.7065,303.76950681209564L163.117375,162.2606015950441L164.103475,375.7803508266806L164.596525,42.95964661985636L164.84305,395.441976673901L168.04787499999998,-48.22818160057062L169.11615,69.32010345160961L169.6092,-191.45406380295742L169.855725,138.15632957965138L170.020075,283.94701827317476L170.34877500000002,383.0747160315513L170.841825,527.9279028251766L171.2527,257.672322280705L172.07445,432.7858838438987L172.5675,82.22070459276438L172.978375,566.1198350787162L177.251475,-140.9359422326088L177.580175,242.35359795391557L177.66235,339.63377058506006L177.74452499999998,-271.403310522437L179.223675,442.1201248839497L180.209775,197.4297820776701L180.29195,-225.71498125791538L181.360225,560.3201727569102L183.49677499999999,307.7362145483494L184.482875,79.614142253995L185.3868,365.6711329892277L185.63332499999999,342.8299998119473L185.87985,341.8358781561255L187.52335,263.0150172114372L188.0164,21.665044426918087L188.59162500000002,30.786007940769196L189.084675,243.00252489745617L190.399475,-54.06832851469511L190.64600000000002,5.747363269329128L191.549925,270.9209540113807L191.79645,407.0171474665403L192.04297499999998,447.98276323825115L192.12515000000002,271.526853851974L196.06955,38.72020572423935L196.316075,375.11763565242285L196.5626,846.9020941480992L196.644775,332.9794335365295L198.45262499999998,50.47012522816658L199.438725,337.5202597305178L199.603075,185.31550124287605L199.931775,299.9224926531315L200.260475,-11.821189597248974L204.28705,406.3024086132645L204.61575,3.4907872974873158L204.7801,165.19094288349152L206.177075,653.2006285339593L209.79277500000003,-288.80092844367016L211.10757500000003,204.0991786122322L211.18975,534.8540929332374L212.42237500000002,70.66215790808201L212.75107500000001,272.1029280871153L214.065875,96.21830128133297L214.14805,342.70678583532566L215.216325,66.43347378820181L215.95589999999999,-137.49220937490452L216.366775,-431.670859158039L216.77765,20.287981554865837L217.024175,-142.2212791442871L217.43505,-97.14921534061426L217.681575,84.74492870271206L218.667675,471.76403861492867L219.32507500000003,102.05727472901344L219.90030000000002,425.66646292805666L220.47552499999998,751.0606891661881L221.2151,154.8642425984144L221.5438,-10.632468089461327L223.43382499999998,-49.27491366863245L224.255575,199.57321632653475L224.584275,85.49878310412169L224.748625,187.708003744483L224.99515,433.2325834035873L225.406025,194.43734485656023L225.65255000000002,29.94150325655943L225.734725,428.55925329029554L225.8169,-8.070986419916096L227.37822500000001,348.5216054320335L228.11780000000002,254.2039466276765L228.61085,431.07643660157913L230.58305000000001,427.3687715828418L232.308725,314.19076893478626L232.637425,350.8665825426578L233.45917500000002,171.7366364970803L233.78787499999999,-254.1678265482186L234.52745,110.57654332369566L235.59572500000002,257.08901166915894L235.84224999999998,59.59343567490578L236.33530000000002,247.04482343047854L236.49965,-110.68651981651777L239.2936,372.21291504800314L239.78665,-67.29485996067524L241.18362499999998,259.5761737972498L241.34797500000002,760.7317150756714L242.005375,197.9717279970646L242.2519,274.93323136121035L242.41625,182.35112942755222L243.8954,762.4433136731384L246.68935000000002,407.8076726943254L247.01805,277.9518759995699L247.67545,-26.480914726853314L249.07242499999998,59.28999681025749L249.56547500000002,302.28507176041603L251.53767499999998,-115.86385376751417L252.523775,292.29398287832737L252.60595,516.7165066301822L252.85247499999997,-162.75968000292767L252.93465,232.87277139723298L253.099,199.02374066412446L253.26334999999997,693.2382279261946L253.92075,-187.90941283106793L254.331625,100.59259302914143L254.495975,5.178427621722221L255.72859999999997,-65.90606242418289L258.52254999999997,374.3925311788916L258.85125,-315.0625207275151L259.426475,-356.45283356308926L260.16605,75.11565864086151L261.15215,351.34858388453716L261.97389999999996,311.2356870621443L262.13825,113.57328325510025L262.3026,-176.71160928905L262.384775,-91.92513830959791L262.71347499999996,271.22057911008596L262.96,130.10683871805668L263.6174,569.2778288573026L265.09655,-15.836596190929356L265.58959999999996,275.9785943850875L266.000475,188.9281154796481L266.08265,276.4415268972516L266.247,705.006629526615L266.657875,-462.7074819803237L266.822225,167.92864009737968L266.9044,-180.60712672770023L267.72614999999996,499.3660229444503L268.137025,250.98845299333334L269.69835,460.8282114565372L270.5201,-334.74174857139576L271.01315,273.36215537041426L271.50620000000004,144.32944759726527L271.8349,41.80700920522219L272.821,235.08622247725722L272.90317500000003,-213.14950257539738L274.95755,316.03672944009304L275.697125,130.9826358407736L277.0941,273.040038831532L278.57325000000003,485.45800086110825L278.65542500000004,416.91651038825506L278.819775,250.81419322639704L279.641525,468.34895789623255L279.970225,497.27647036314005L281.53155000000004,257.11414340883493L282.435475,-119.94771257042885L283.092875,214.96000170707703L283.58592500000003,659.7827973961829L283.6681,217.72273287177083L283.83245,347.8978102281689L283.9968,132.70978286862373L284.40767500000004,-251.22477270662773L287.9412,386.7521642893552L289.09165,318.02516832947725L289.5847,58.573497757315636L290.324275,422.3029169440269L291.8856,462.5995590537786L292.04994999999997,373.036688491702L293.118225,137.79050141572952L294.104325,363.2863558083772L295.090425,408.12020592391485L295.1726,240.2462477982044L295.912175,231.5925195068121L296.40522500000003,597.722851037979L297.8022,395.01532383263105L298.29525,54.6980270370841L298.37742499999996,189.11772809922695L299.034825,328.88423122465605L299.527875,635.8066288009286L300.4318,-267.2805317491292L302.321825,237.4782360345125L302.89705,340.4043468832969L303.307925,444.69930633902544L304.3762,279.3301123380661L304.951425,146.1659225821495L306.18405,376.85426820069546L307.17015000000004,-6.744969338178578L308.81365,471.89390223473305L311.44325,248.77343729138371L311.525425,690.3247063234447L311.6076,28.774882033467293L312.18282500000004,701.1226511746644L313.08675,677.1404196694492L314.319375,295.16701988875866L314.73025,366.49559095501894L317.1955,250.3746322542429L318.263775,265.09968034923077L319.00335,616.7098314687609L319.742925,-374.4630009680985L320.235975,17.16597408056265L320.564675,468.7805979698896L321.96164999999996,176.3942226022482L322.12600000000003,84.3347043916583L322.208175,150.0356237590313L323.194275,-95.7649160921573L324.673425,552.4430836737155L326.0704,266.630173958838L326.7278,94.73210602998734L328.617825,-7.78466060757637L329.3574,24.89012137055397L329.52175,648.7770511955022L329.6861,-329.1621112078427L330.01480000000004,364.4160128384828L330.096975,906.7669737339018L331.90482499999996,-416.21102549135674L332.15135,177.01420404016972L332.89092500000004,348.890856206417L334.12355,530.0730972737073L334.45225,294.5680630579591L334.6166,500.31027227640146L335.849225,23.750685453414974L336.91749999999996,-93.79368804395193L338.807525,25.051668584346828L340.04015,86.94586280733347L340.122325,182.16513499617577L340.69755000000004,575.1425207778811L341.108425,165.7602696865797L341.51930000000004,144.86005000770095L341.84799999999996,37.60071873664856L342.01235,513.2804990932344L344.80629999999996,457.1389307454228L344.888475,288.2507064566016L345.4637,222.7990509197116L345.71022500000004,-198.5142246633767L347.68242499999997,69.92042932659388L347.92895,98.99501625448465L348.504175,159.2586788535118L348.7507,-148.63740250468243L348.832875,760.7307371869682L348.997225,272.1080131083727L349.0794,201.70892525464293L350.72290000000004,-163.4393126517533L351.133775,-150.1050178706646L351.87335,351.1198557168245L353.84555,-194.67542476952065L357.13255,-58.28009516000742L359.515625,292.6501299440861L359.67997499999996,634.6339446678757L359.844325,198.39417591691017L360.50172499999996,497.80247669667L361.8987,277.6601717993617L362.309575,125.88617328554395L364.11742499999997,-181.63038946688164L364.36395,298.22957172989845L364.774825,-77.92079418897623L365.67875,608.342624567449L365.8431,316.01374905556435L366.33615,-11.58141128718853L366.41832500000004,147.67167560756207L366.911375,158.6522900685668L367.4866,499.1922521218657L368.226175,435.07336109876627L369.62315,218.6300180107355L370.60925000000003,505.3026874735951L372.7458,487.2147779166698L372.91015,127.53851182758808L373.4032,279.4219360873103L373.7319,116.29279173910618L373.89625,-153.23152363300312L375.0467,182.9768804088235L376.443675,-95.56484006345266L378.087175,378.41683655977243L379.566325,152.3709197714925L379.730675,116.22326385229826L379.895025,164.40970759838822L380.14155,312.0097837597132L380.38807499999996,-34.65449966490263L382.688975,-13.873582407832089L382.77115,28.41306321322918L383.839425,-38.833604827523175L386.469025,388.4949575364589L388.44122500000003,341.17208730429405L388.769925,-135.65945036709297L388.934275,207.3600462824106L389.427325,757.2328292950987L389.67385,233.59797365963456L389.8382,-383.2016099989412L391.15299999999996,-265.0720679014921L392.221275,251.972893550992L392.87867500000004,-376.30025826394547L393.94695,154.83412362635136L394.1113,312.91120156645775L394.357825,167.95729223638773L395.343925,711.4444620162247L395.672625,220.01333937048912L396.0835,471.8036431074142L396.24785,356.88597645610565L397.06960000000004,-18.551801964640617L397.3983,315.70375833660364L399.78137499999997,-342.936651483178L400.19225,75.03820985555649L400.767475,-50.21681606769556L402.904025,-281.60053834319103L403.561425,335.34964017570013L404.383175,28.234305158257484L405.040575,25.371242612600383L405.6158,93.99908065795898L405.9445,-205.47659665346134L406.84842499999996,369.3784068524837L407.341475,52.031031176447925L407.83452500000004,257.8449196368456L409.642375,512.3035882785915L410.5463,138.60537607222795L410.957175,-179.4242725521326L411.69675,-297.42688469588745L411.778925,304.7914005070925L412.765025,-341.68984338641155L413.66894999999994,82.61518489569426L413.915475,-175.8909650892018L418.59945,502.01238535344595L419.010325,228.20706881582737L419.09250000000003,-49.006581008434296L425.913025,587.0037240162491L426.81694999999996,148.2756196707487L426.89912499999997,-178.95977541804314L427.06347500000004,58.54592129588127L427.227825,54.560242518782616L427.47435,288.68772491812706L427.55652499999997,-75.93626685440535L429.6109,263.23729131370783L430.021775,445.4346786439418L430.9257,568.634769245982L431.82962499999996,177.87474609911442L432.56919999999997,311.3721025362611L432.81572499999993,971.9290764257311L432.89790000000005,193.24989460408688L434.130525,252.66465201973915L435.445325,-114.93075236678118L435.93837499999995,78.41427281498909L436.26707500000003,-58.76473680138582L439.1432,629.6090635657309L441.27975000000004,313.71776416897774L442.01932500000004,305.4185205325484L443.25194999999997,24.25840526819229L443.827175,34.7879196703434L444.320225,157.3277398198843L444.648925,179.30520169436932L444.7311,-143.8977715373038L446.53895,-235.75320437550533L447.03200000000004,126.7579610645771L449.49725,176.2965315207839L449.9903,220.33310897648332L450.319,246.4823418483138L450.565525,310.07405307143927L451.22292500000003,392.7973744645714L451.387275,162.3542833328247L452.78425000000004,411.18021525442595L452.86642500000005,183.5242047160864L454.42775000000006,63.376495912671146L454.509925,-153.92152190208424L455.49602500000003,-19.151834473013878L456.153425,254.79332014918324L456.31777500000004,6.149079948663768L456.39995,312.8096967190504L458.454325,-73.34447063505644L459.604775,-391.5083833783864L459.8513,19.119208976626396L460.01565,-169.34791177511204L460.18000000000006,420.8973975107073L461.16610000000003,250.46117540448904L462.56307499999997,178.36564622819424L464.28874999999994,-323.07553634047497L465.85007499999995,425.94770371913904L466.4253,304.03666600584984L466.507475,108.73048502951866L466.58964999999995,-185.08703045547009L471.68449999999996,384.83540464192623L472.17755,96.83427337557077L472.50624999999997,414.33625325560564L473.24582499999997,605.3204595297574L473.49235000000004,306.56431272625923L473.57452500000005,-402.1638498455286L473.738875,-216.450463682413L473.98539999999997,150.6677310168743L474.724975,-42.29787334799761L475.05367499999994,-62.24484711885452L475.382375,207.73007936775682L475.6289,100.42273376137018L475.711075,-50.62674701213831L476.20412500000003,145.07694572210312L476.69717499999996,-576.2247142195699L476.86152500000003,164.98177248984578L477.10805,-170.278079509735L479.98417499999994,387.2571460157632L480.970275,265.4312824085355L482.5316,-202.38744623959053L482.69595000000004,320.6600894406438L484.01075,518.6317016556858L484.25727500000005,570.8458733931184L484.421625,118.44160437583923L484.5038,-90.10372281074524L486.065125,271.36794693768024L488.037325,127.74738885462287L488.28385,71.7590556666255L489.352125,298.94323490560055L490.00952500000005,101.09923716634512L490.74909999999994,90.86729429662228L490.995625,-84.37779329717159L491.15997500000003,353.2581071555614L491.24215,-32.32458204030985L492.39259999999996,240.0352194160223L493.04999999999995,488.36721975356335L495.3509,623.7725348398088L495.597425,78.07836804538971L496.17265,382.25358288735146L497.240925,203.01313541829586L497.40527499999996,-21.73522084951395L497.48745,-397.33171060681343L498.06267499999996,233.03334072232244L499.541825,248.69334820657966L501.43185,719.9112179875373L503.486225,-152.28316716849793L503.650575,310.67731261253357L504.14362500000004,60.14936540275812L506.280175,386.5676366910338L506.69105,257.8271220624447L507.759325,371.46590586751694L508.08802499999996,-340.9505595266818L509.56717499999996,7.816380187869072L510.224575,-110.62119685113424L512.1146,23.71352568268776L512.361125,67.61270977556705L512.4433,233.9524583145976L512.772,-9.024232327938023L514.990725,-106.12310439348221L516.88075,159.5487206429243L517.949025,282.61767636984587L519.263825,-193.45286831259716L522.633,464.81956198811525L522.715175,130.46063885092735L522.9617,679.676378443837L526.330875,-464.1911347210407L526.495225,249.24947351217267L527.645675,742.1317829936742L528.0565499999999,-44.495971575379315L529.207,104.30935241281986L529.289175,544.2105320468544L529.453525,390.947404615581L529.8644,354.3166716769337L532.1653,441.27014402300114L532.904875,-131.70213036239142L533.4801,104.07993972301483L533.8088,455.93485638499254L534.30185,6.561553403735218L534.7949,-351.0120563954114L535.205775,184.72123827785254L535.4522999999999,123.8939206302166L535.61665,163.78767259418964L536.849275,263.2700505852699L537.58885,-144.8150311410426L538.24625,75.03165800124407L539.6432249999999,-75.2394233644008L540.0541,28.170937970280647L540.21845,-176.52561485767365L542.84805,-45.583188235759735L543.258925,161.06092773377898L544.080675,353.93578402698034L544.902425,63.835419081151485L546.2994,337.40320645272726L547.2033250000001,0.9341950714588734L547.3676750000001,292.5855892896652L547.696375,162.2531696408987L548.9290000000001,-121.67583748698229L554.02385,-136.4110556244849L554.927775,362.81736038625235L555.503,134.6962659806013L556.8999749999999,375.46556845307344L557.1465000000001,507.72990502417076L557.557375,235.9961479157209L557.96825,239.26943477243185L558.4612999999999,-17.12995178997511L559.4474,-54.84809696674341L559.5295749999999,311.4906226471066L560.92655,-180.11524870991695L561.1730749999999,-120.44624023139465L561.7483,21.03352390229702L563.967025,122.1880915760994L564.131375,625.7965688779949L564.7066,338.7830074131488L565.52835,67.43082247674465L566.18575,123.95689666271213L566.3501,458.91018055379385L566.9253249999999,258.0979972332716L567.6649,-249.5165967196225L568.4866499999999,-425.44288158416725L568.568825,2.1147023141384693L569.390575,-93.47782999277115L569.719275,238.64867102354765L569.80145,20.62809124588972L571.362775,114.20754186809063L571.77365,406.44879855215544L571.938,-76.32566213607782L572.2667,161.68061580508945L573.0062750000001,15.035350173711834L574.4854250000001,-147.4189531803131L576.128925,164.08729769289494L576.5398,163.9685820043087L577.279375,91.49412095546722L577.772425,535.4888404905795L577.8546,281.6527935862541L577.936775,-497.40414664149273L578.1833,529.5205901563166L578.4298249999999,181.43015384674072L580.237675,26.260143443942127L581.63465,207.89524476975203L581.716825,-30.38777567446226L582.045525,-189.10752207040787L582.4564,345.57728033512825L583.031625,-50.98387196660036L583.7712,217.82286867499352L583.93555,-107.61282004415983L585.90775,-265.60345262289036L586.0721,107.57432721555233L586.23645,244.90158475935456L587.22255,45.00617209821945L587.3869,331.8291430547833L587.55125,243.71198315173385L589.441275,515.8373846858739L590.18085,644.1209319233894L590.427375,141.67565323412418L591.742175,363.8822811841964L592.5639249999999,166.2067736685276L592.6460999999999,169.12596702575684L592.8104500000001,599.839197769761L594.3717750000001,-55.53144559264183L594.78265,243.16524557769299L595.357875,-329.47796925902355L595.850925,172.27467086166143L596.9192,-27.280827686190605L599.05575,323.5070168226957L600.69925,491.1127400770783L601.931875,-58.57287503778929L603.32885,71.83454867452383L604.232775,-325.54216280579556L605.1367,36.163026764988956L605.711925,435.6679174304008L606.204975,446.5659980848431L608.177175,340.95714736729855L612.0394,-119.34611544013012L612.6968,431.44901219755405L613.0255,219.7155722603202L614.0937749999999,290.47960817813873L614.9977,686.9741662591695L615.3264,255.13137627393007L615.9838000000001,533.0279835686088L617.13425,-125.14362640678877L617.216425,199.71725933253762L618.038175,162.651268132031L618.12035,-78.72168503701681L618.2025249999999,314.3191657215357L618.859925,354.0022804588079L620.503425,388.7356159463524L622.4756249999999,217.29872032999992L622.8043250000001,499.8641594499349L622.968675,525.2169997617601L623.05085,144.58135172724724L623.297375,793.2207959890363L624.0369499999999,39.32414978742605L624.1191249999999,48.78483183681965L624.8587,439.4116665422916L625.105225,-106.6615299135446L625.9269750000001,360.1240593194961L626.33785,121.25890173017979L629.29615,56.699080690741596L630.0357250000001,66.04593649506569L630.200075,817.8532256931065L630.528775,340.7684148475527L631.021825,96.52614064514643L631.2683499999999,494.4165370613336L631.843575,160.8266256004572L632.0901,334.9697304144501L632.500975,52.12490849196911L632.7475000000001,-145.9077239781617L633.4049,264.53338500112295L633.7336,-255.52924320101727L634.0622999999999,8.489558771252632L634.88405,266.5471512079239L634.966225,312.14668817818165L635.952325,529.4799099862574L636.281025,-77.03032873570913L636.85625,211.42415173351765L637.18495,467.2471706941723L638.088875,154.77926407009363L639.074975,914.9136178381739L644.827225,466.01415082812304L645.155925,307.21167504787445L645.4846249999999,17.920904159545955L646.142025,347.7752807736396L646.635075,522.7555561065673L646.71725,-119.5115742087363L648.1142249999999,297.42036882787943L648.8538,-74.90909256041044L649.34685,205.0622034072876L650.0042500000001,173.1647451594472L650.250775,150.50716169178486L652.058625,445.52601344883436L653.4556,-116.81533947587008L653.7843,196.8612375855446L654.4417,-143.34761135280132L654.688225,-86.39635115861887L655.181275,216.15243919193745L656.660425,414.51990075409407L656.824775,271.828141361475L658.303925,328.2294369488954L658.4682750000001,-46.99721530079836L658.7148,355.2361804246902L659.9474250000001,568.9013417065142L660.19395,193.309545814991L660.52265,561.4216665923594L661.097875,92.1933113783598L662.16615,95.8199094235897L662.6592,312.375905290246L663.8096499999999,99.89203356206417L664.79575,355.56279525160784L665.3709749999999,194.00844287127256L666.028375,240.38452126085758L666.685775,-454.7709372639654L666.76795,746.2953397259115L667.178825,199.05610878020525L667.507525,451.10007684677834L668.5758,17.083635851740837L668.9045,291.66471149772406L670.05495,400.05516663193697L672.35585,-47.17656008899206L672.8489,258.77704314887524L673.34195,-42.87697903811926L673.917175,-80.3942658752203L674.081525,26.764342859387455L674.8211,395.41381347924465L674.98545,957.021358720958L675.067625,195.35861380398273L676.62895,-516.703366935253L676.8754749999999,254.6925976127386L677.61505,599.361988082528L678.683325,341.2879671156406L679.5872499999999,221.6716430336237L679.8337750000001,237.7289666980505L680.655525,272.9310042411089L681.970325,-66.44174985587591L684.3534,404.39444996416563L685.17515,256.56290754675865L685.2573249999999,412.4859900400042L685.6682000000001,253.7825743854046L685.750375,18.208207860589084L686.3256,27.90045395493513L686.6543,237.11279902607203L686.736475,548.6549384146928L686.8186499999999,153.747787065804L688.051275,598.4249751269816L688.6265,202.12550584226847L688.708675,538.3436887711285L689.037375,153.97475503385067L689.201725,-5.04226952791214L692.653075,517.4034734442829L692.73525,355.70850066840643L693.474825,509.1692594066261L693.7213499999999,654.8289110139011L694.05005,10.13573661446577L694.296575,371.9326521456241L695.118325,0.6693828105927082L695.2005,511.0764357447623L695.2826749999999,74.38224211335182L695.3648499999999,-33.24340626597399L695.775725,550.6720294430851L696.268775,166.96972243487835L696.597475,767.5699929893016L696.761825,100.03891244530678L698.076625,221.14035610109568L698.569675,327.73296285420656L698.65185,845.647462941706L699.30925,57.90002580732107L699.8023000000001,622.5093960016965L707.3624,592.6960141584276L707.608925,239.72092598676682L710.15635,466.540450528264L710.238525,335.8273388072848L711.553325,428.0124179273843L711.6355,230.35519693046805L712.45725,153.37482031434774L712.703775,379.70471598207945L712.8681250000001,165.5272388085723L713.77205,616.2669456750153L714.2651,36.426861137151775L714.5116250000001,2.0650255680084797L714.840325,241.90024875104424L716.155125,269.36503529548645L716.319475,-31.786547675728798L716.40165,209.72800377756357L716.7303499999999,238.9411575347185L716.9768750000001,198.97641085088253L717.1412250000001,299.77747175842524L718.2916749999999,438.409428410232L718.6203750000001,478.87925460934633L719.5243,157.15250216424462L719.7708250000001,53.6202958971262L721.414325,52.8214586153627L722.071725,475.82687281072134L722.8934750000001,648.5913501307367L722.97565,206.6725905239582L723.879575,862.6787148602305L725.7696,86.733856536448L726.180475,501.01259194314474L727.57745,174.09941118210554L729.467475,201.2288796901703L729.631825,362.47197009623045L731.1931500000001,360.6001933291554L731.2753250000001,268.1587117910385L731.604025,443.1086725741624L731.932725,-68.28995950520033L733.411875,274.5227136835456L733.904925,392.6089353114366L733.9870999999999,174.24629006534815L737.43845,251.62016909569502L738.09585,135.77468164265156L738.75325,73.32260191440582L738.835425,289.2448281124234L740.2324,206.5779308974743L740.8897999999999,-42.013307735323906L741.300675,250.5678630620241L741.629375,-67.5612368434667L742.5332999999999,665.141236335039L743.5194,177.30405025184152L743.765925,436.7027192562818L743.930275,280.14958307147026L744.258975,64.55260265618563L744.916375,413.10440685600037L748.1212,725.2988957986234L749.846875,345.0698538869619L750.339925,39.89513900130987L750.4221,-13.157572299241963L750.58645,-137.31697171926498L751.819075,187.48279597610235L752.3942999999999,368.1337501108646L754.2843250000001,106.89801938831806L754.448675,430.612330622971L754.613025,485.919075384736L755.51695,177.4914137274027L755.763475,450.99426928907627L757.16045,3.2478797435761066L757.6535,206.9146179780364L758.721775,612.761801406741L762.2553,584.4190663844346L762.4196499999999,164.1729607433081L762.5840000000001,311.27519376575947L763.323575,-159.3980897963046L764.72055,649.1843418404459L766.36405,160.305802077055L766.5283999999999,210.97148705273864L766.774925,223.60805824398994L766.9392750000001,216.63796093314883L767.432325,233.3622046932578L768.4184250000001,559.297887906432L768.5006000000001,782.0475374534724L769.075825,360.77523540705437L769.32235,529.9961374327539L769.733225,354.56300184130663L770.30845,449.63881775736803L770.4728,286.79326113313437L771.7876,290.2690687403083" fill="none"></path></g></g></g></g></g></g><g transform="translate(94, 378)" clip-path="url(#clip_1)"><clipPath id="clip_1"><rect width="821" height="22"></rect></clipPath><g><g><line x1="0" y1="0" x2="0" y2="5" style="visibility: inherit;" fill="rgb(0, 0, 0)" stroke="rgb(204, 204, 204)" stroke-width="1px"></line><line x1="82.17500000000001" y1="0" x2="82.17500000000001" y2="5" style="visibility: inherit;" fill="rgb(0, 0, 0)" stroke="rgb(204, 204, 204)" stroke-width="1px"></line><line x1="164.35000000000002" y1="0" x2="164.35000000000002" y2="5" style="visibility: inherit;" fill="rgb(0, 0, 0)" stroke="rgb(204, 204, 204)" stroke-width="1px"></line><line x1="246.52499999999998" y1="0" x2="246.52499999999998" y2="5" style="visibility: inherit;" fill="rgb(0, 0, 0)" stroke="rgb(204, 204, 204)" stroke-width="1px"></line><line x1="328.70000000000005" y1="0" x2="328.70000000000005" y2="5" style="visibility: inherit;" fill="rgb(0, 0, 0)" stroke="rgb(204, 204, 204)" stroke-width="1px"></line><line x1="410.875" y1="0" x2="410.875" y2="5" style="visibility: inherit;" fill="rgb(0, 0, 0)" stroke="rgb(204, 204, 204)" stroke-width="1px"></line><line x1="493.04999999999995" y1="0" x2="493.04999999999995" y2="5" style="visibility: inherit;" fill="rgb(0, 0, 0)" stroke="rgb(204, 204, 204)" stroke-width="1px"></line><line x1="575.2249999999999" y1="0" x2="575.2249999999999" y2="5" style="visibility: inherit;" fill="rgb(0, 0, 0)" stroke="rgb(204, 204, 204)" stroke-width="1px"></line><line x1="657.4000000000001" y1="0" x2="657.4000000000001" y2="5" style="visibility: inherit;" fill="rgb(0, 0, 0)" stroke="rgb(204, 204, 204)" stroke-width="1px"></line><line x1="739.575" y1="0" x2="739.575" y2="5" style="visibility: inherit;" fill="rgb(0, 0, 0)" stroke="rgb(204, 204, 204)" stroke-width="1px"></line><line x1="821.75" y1="0" x2="821.75" y2="5" style="visibility: inherit;" fill="rgb(0, 0, 0)" stroke="rgb(204, 204, 204)" stroke-width="1px"></line></g><g transform="translate(0, 8)"><text x="0" y="0" dx="0em" dy="0.95em" style="text-anchor: middle; visibility: hidden; font-family: &quot;Helvetica Neue&quot;, sans-serif; font-size: 12px; font-weight: 200;" fill="rgb(50, 49, 63)" stroke="none" stroke-width="1px">-100k</text><text x="82.17500000000001" y="0" dx="0em" dy="0.95em" style="text-anchor: middle; visibility: inherit; font-family: &quot;Helvetica Neue&quot;, sans-serif; font-size: 12px; font-weight: 200;" fill="rgb(50, 49, 63)" stroke="none" stroke-width="1px">0</text><text x="164.35000000000002" y="0" dx="0em" dy="0.95em" style="text-anchor: middle; visibility: inherit; font-family: &quot;Helvetica Neue&quot;, sans-serif; font-size: 12px; font-weight: 200;" fill="rgb(50, 49, 63)" stroke="none" stroke-width="1px">100k</text><text x="246.52499999999998" y="0" dx="0em" dy="0.95em" style="text-anchor: middle; visibility: inherit; font-family: &quot;Helvetica Neue&quot;, sans-serif; font-size: 12px; font-weight: 200;" fill="rgb(50, 49, 63)" stroke="none" stroke-width="1px">200k</text><text x="328.70000000000005" y="0" dx="0em" dy="0.95em" style="text-anchor: middle; visibility: inherit; font-family: &quot;Helvetica Neue&quot;, sans-serif; font-size: 12px; font-weight: 200;" fill="rgb(50, 49, 63)" stroke="none" stroke-width="1px">300k</text><text x="410.875" y="0" dx="0em" dy="0.95em" style="text-anchor: middle; visibility: inherit; font-family: &quot;Helvetica Neue&quot;, sans-serif; font-size: 12px; font-weight: 200;" fill="rgb(50, 49, 63)" stroke="none" stroke-width="1px">400k</text><text x="493.04999999999995" y="0" dx="0em" dy="0.95em" style="text-anchor: middle; visibility: inherit; font-family: &quot;Helvetica Neue&quot;, sans-serif; font-size: 12px; font-weight: 200;" fill="rgb(50, 49, 63)" stroke="none" stroke-width="1px">500k</text><text x="575.2249999999999" y="0" dx="0em" dy="0.95em" style="text-anchor: middle; visibility: inherit; font-family: &quot;Helvetica Neue&quot;, sans-serif; font-size: 12px; font-weight: 200;" fill="rgb(50, 49, 63)" stroke="none" stroke-width="1px">600k</text><text x="657.4000000000001" y="0" dx="0em" dy="0.95em" style="text-anchor: middle; visibility: inherit; font-family: &quot;Helvetica Neue&quot;, sans-serif; font-size: 12px; font-weight: 200;" fill="rgb(50, 49, 63)" stroke="none" stroke-width="1px">700k</text><text x="739.575" y="0" dx="0em" dy="0.95em" style="text-anchor: middle; visibility: inherit; font-family: &quot;Helvetica Neue&quot;, sans-serif; font-size: 12px; font-weight: 200;" fill="rgb(50, 49, 63)" stroke="none" stroke-width="1px">800k</text><text x="821.75" y="0" dx="0em" dy="0.95em" style="text-anchor: middle; visibility: hidden; font-family: &quot;Helvetica Neue&quot;, sans-serif; font-size: 12px; font-weight: 200;" fill="rgb(50, 49, 63)" stroke="none" stroke-width="1px">900k</text></g><line x1="0" y1="0" x2="821.75" y2="0" fill="rgb(0, 0, 0)" stroke="rgb(204, 204, 204)" stroke-width="1px"></line></g></g></g></g></svg>