<svg viewBox="0 0 915.75 400" xmlns="http://www.w3.org/2000/svg"><g><g><g><g><g><line x1="34" y1="378" x2="29" y2="378" style="visibility: inherit;" fill="rgb(0, 0, 0)" stroke="rgb(204, 204, 204)" stroke-width="1px"></line><line x1="34" y1="336" x2="29" y2="336" style="visibility: inherit;" fill="rgb(0, 0, 0)" stroke="rgb(204, 204, 204)" stroke-width="1px"></line><line x1="34" y1="294" x2="29" y2="294" style="visibility: inherit;" fill="rgb(0, 0, 0)" stroke="rgb(204, 204, 204)" stroke-width="1px"></line><line x1="34" y1="252" x2="29" y2="252" style="visibility: inherit;" fill="rgb(0, 0, 0)" stroke="rgb(204, 204, 204)" stroke-width="1px"></line><line x1="34" y1="210" x2="29" y2="210" style="visibility: inherit;" fill="rgb(0, 0, 0)" stroke="rgb(204, 204, 204)" stroke-width="1px"></line><line x1="34" y1="168" x2="29" y2="168" style="visibility: inherit;" fill="rgb(0, 0, 0)" stroke="rgb(204, 204, 204)" stroke-width="1px"></line><line x1="34" y1="126" x2="29" y2="126" style="visibility: inherit;" fill="rgb(0, 0, 0)" stroke="rgb(204, 204, 204)" stroke-width="1px"></line><line x1="34" y1="84" x2="29" y2="84" style="visibility: inherit;" fill="rgb(0, 0, 0)" stroke="rgb(204, 204, 204)" stroke-width="1px"></line><line x1="34" y1="42" x2="29" y2="42" style="visibility: inherit;" fill="rgb(0, 0, 0)" stroke="rgb(204, 204, 204)" stroke-width="1px"></line><line x1="34" y1="0" x2="29" y2="0" style="visibility: inherit;" fill="rgb(0, 0, 0)" stroke="rgb(204, 204, 204)" stroke-width="1px"></line></g><g transform="translate(24, 0)"><text x="0" y="378" dx="0em" dy="0.3em" style="text-anchor: end; visibility: hidden; font-family: &quot;Helvetica Neue&quot;, sans-serif; font-size: 12px; font-weight: 200;" fill="rgb(50, 49, 63)" stroke="none" stroke-width="1px">10</text><text x="0" y="336" dx="0em" dy="0.3em" style="text-anchor: end; visibility: inherit; font-family: &quot;Helvetica Neue&quot;, sans-serif; font-size: 12px; font-weight: 200;" fill="rgb(50, 49, 63)" stroke="none" stroke-width="1px">12</text><text x="0" y="294" dx="0em" dy="0.3em" style="text-anchor: end; visibility: inherit; font-family: &quot;Helvetica Neue&quot;, sans-serif; font-size: 12px; font-weight: 200;" fill="rgb(50, 49, 63)" stroke="none" stroke-width="1px">14</text><text x="0" y="252" dx="0em" dy="0.3em" style="text-anchor: end; visibility: inherit; font-family: &quot;Helvetica Neue&quot;, sans-serif; font-size: 12px; font-weight: 200;" fill="rgb(50, 49, 63)" stroke="none" stroke-width="1px">16</text><text x="0" y="210" dx="0em" dy="0.3em" style="text-anchor: end; visibility: inherit; font-family: &quot;Helvetica Neue&quot;, sans-serif; font-size: 12px; font-weight: 200;" fill="rgb(50, 49, 63)" stroke="none" stroke-width="1px">18</text><text x="0" y="168" dx="0em" dy="0.3em" style="text-anchor: end; visibility: inherit; font-family: &quot;Helvetica Neue&quot;, sans-serif; font-size: 12px; font-weight: 200;" fill="rgb(50, 49, 63)" stroke="none" stroke-width="1px">20</text><text x="0" y="126" dx="0em" dy="0.3em" style="text-anchor: end; visibility: inherit; font-family: &quot;Helvetica Neue&quot;, sans-serif; font-size: 12px; font-weight: 200;" fill="rgb(50, 49, 63)" stroke="none" stroke-width="1px">22</text><text x="0" y="84" dx="0em" dy="0.3em" style="text-anchor: end; visibility: inherit; font-family: &quot;Helvetica Neue&quot;, sans-serif; font-size: 12px; font-weight: 200;" fill="rgb(50, 49, 63)" stroke="none" stroke-width="1px">24</text><text x="0" y="42" dx="0em" dy="0.3em" style="text-anchor: end; visibility: inherit; font-family: &quot;Helvetica Neue&quot;, sans-serif; font-size: 12px; font-weight: 200;" fill="rgb(50, 49, 63)" stroke="none" stroke-width="1px">26</text><text x="0" y="0" dx="0em" dy="0.3em" style="text-anchor: end; visibility: hidden; font-family: &quot;Helvetica Neue&quot;, sans-serif; font-size: 12px; font-weight: 200;" fill="rgb(50, 49, 63)" stroke="none" stroke-width="1px">28</text></g><line x1="34" y1="0" x2="34" y2="378" fill="rgb(0, 0, 0)" stroke="rgb(204, 204, 204)" stroke-width="1px"></line></g></g><g transform="translate(34, 0)" clip-path="url(#clip_0)"><clipPath id="clip_0"><rect width="881" height="378"></rect></clipPath><g><g><g><line x1="0" y1="0" x2="0" y2="378" fill="rgb(0, 0, 0)" stroke="rgb(60, 60, 60)" stroke-width="1px" opacity="0.25"></line><line x1="88.17500000000001" y1="0" x2="88.17500000000001" y2="378" fill="rgb(0, 0, 0)" stroke="rgb(60, 60, 60)" stroke-width="1px" opacity="0.25"></line><line x1="176.35000000000002" y1="0" x2="176.35000000000002" y2="378" fill="rgb(0, 0, 0)" stroke="rgb(60, 60, 60)" stroke-width="1px" opacity="0.25"></line><line x1="264.525" y1="0" x2="264.525" y2="378" fill="rgb(0, 0, 0)" stroke="rgb(60, 60, 60)" stroke-width="1px" opacity="0.25"></line><line x1="352.70000000000005" y1="0" x2="352.70000000000005" y2="378" fill="rgb(0, 0, 0)" stroke="rgb(60, 60, 60)" stroke-width="1px" opacity="0.25"></line><line x1="440.875" y1="0" x2="440.875" y2="378" fill="rgb(0, 0, 0)" stroke="rgb(60, 60, 60)" stroke-width="1px" opacity="0.25"></line><line x1="529.05" y1="0" x2="529.05" y2="378" fill="rgb(0, 0, 0)" stroke="rgb(60, 60, 60)" stroke-width="1px" opacity="0.25"></line><line x1="617.2249999999999" y1="0" x2="617.2249999999999" y2="378" fill="rgb(0, 0, 0)" stroke="rgb(60, 60, 60)" stroke-width="1px" opacity="0.25"></line><line x1="705.4000000000001" y1="0" x2="705.4000000000001" y2="378" fill="rgb(0, 0, 0)" stroke="rgb(60, 60, 60)" stroke-width="1px" opacity="0.25"></line><line x1="793.575" y1="0" x2="793.575" y2="378" fill="rgb(0, 0, 0)" stroke="rgb(60, 60, 60)" stroke-width="1px" opacity="0.25"></line><line x1="881.75" y1="0" x2="881.75" y2="378" fill="rgb(0, 0, 0)" stroke="rgb(60, 60, 60)" stroke-width="1px" opacity="0.25"></line></g><g><line x1="0" y1="378" x2="881.75" y2="378" fill="rgb(0, 0, 0)" stroke="rgb(60, 60, 60)" stroke-width="1px" opacity="0.25"></line><line x1="0" y1="336" x2="881.75" y2="336" fill="rgb(0, 0, 0)" stroke="rgb(60, 60, 60)" stroke-width="1px" opacity="0.25"></line><line x1="0" y1="294" x2="881.75" y2="294" fill="rgb(0, 0, 0)" stroke="rgb(60, 60, 60)" stroke-width="1px" opacity="0.25"></line><line x1="0" y1="252" x2="881.75" y2="252" fill="rgb(0, 0, 0)" stroke="rgb(60, 60, 60)" stroke-width="1px" opacity="0.25"></line><line x1="0" y1="210" x2="881.75" y2="210" fill="rgb(0, 0, 0)" stroke="rgb(60, 60, 60)" stroke-width="1px" opacity="0.25"></line><line x1="0" y1="168" x2="881.75" y2="168" fill="rgb(0, 0, 0)" stroke="rgb(60, 60, 60)" stroke-width="1px" opacity="0.25"></line><line x1="0" y1="126" x2="881.75" y2="126" fill="rgb(0, 0, 0)" stroke="rgb(60, 60, 60)" stroke-width="1px" opacity="0.25"></line><line x1="0" y1="84" x2="881.75" y2="84" fill="rgb(0, 0, 0)" stroke="rgb(60, 60, 60)" stroke-width="1px" opacity="0.25"></line><line x1="0" y1="42" x2="881.75" y2="42" fill="rgb(0, 0, 0)" stroke="rgb(60, 60, 60)" stroke-width="1px" opacity="0.25"></line><line x1="0" y1="0" x2="881.75" y2="0" fill="rgb(0, 0, 0)" stroke="rgb(60, 60, 60)" stroke-width="1px" opacity="0.25"></line></g></g></g><g><g><line x1="0" y1="588" x2="881.75" y2="588" fill="rgb(0, 0, 0)" stroke="rgb(153, 153, 153)" stroke-width="1.5px"></line></g></g><g><g><line x1="88.17500000000001" y1="0" x2="88.17500000000001" y2="378" fill="rgb(0, 0, 0)" stroke="rgb(153, 153, 153)" stroke-width="1.5px"></line></g></g><g><g><g><g><g><path stroke="rgb(255, 112, 67)" stroke-width="2px" d="M88.70405,-190.7911491394043L89.850325,55.574358889931034L90.379375,-51.92314387247592L118.15450000000001,-40.844438366619784L118.8599,3.0944612705574173L120.27069999999999,7.870972251836918L120.6234,16.319569237274436L125.38485,19.56503278394638L125.473025,10.20294509508824L126.972,12.467022762235842L127.23652500000001,11.78728295268752L127.50105,15.046153698759326L128.823675,29.081386188417127L129.0882,35.76733499935028L129.17637499999998,55.70745734933536L130.058125,57.09618604786101L131.5571,41.90160351399277L131.73345,34.56814853509144L133.585125,37.74841415799972L135.0841,52.29441204854669L135.524975,57.78219966368812L137.9057,59.7964052925563L138.78745,64.65375588546067L139.3165,73.66147478963313L139.49285,90.2436861380196L139.933725,82.36580676312695L140.0219,63.68409773146476L141.344525,84.58699281781014L142.93167499999998,76.65987524853301L143.108025,80.29538329447303L144.166125,91.81721771982535L144.78335,108.26503847395384L144.871525,103.1068679688434L145.047875,94.71059387148915L145.3124,104.27536450951641L145.48875,95.52616139576986L146.54684999999998,56.42434920974512L147.4286,68.88448549189798L148.48669999999998,92.72321978381461L148.927575,95.49809451772222L151.22012500000002,102.53297807604662L151.572825,101.17101947844174L151.92552500000002,110.86461426328003L152.0137,109.83505354180431L152.630925,112.79842570064994L153.4245,122.85522053115648L153.7772,138.04508867188795L154.12990000000002,140.91750358824413L154.570775,121.97590453108779L154.923475,126.02973851619487L155.71705,139.57201052227774L156.06975,134.25972118017344L156.24609999999998,134.54716009093346L156.42245,122.90117072066812L157.03967500000002,124.56642556702684L157.48055,128.92461243650428L157.65689999999998,128.80355341419343L158.09777499999998,95.41873840219517L158.274125,120.89645416930517L158.626825,123.94786293357123L158.979525,122.9021421412047L159.508575,117.74835304203214L159.59675,120.56711605842008L161.624775,113.41354883971508L161.977475,114.89404469689276L164.88725,125.12811653790973L165.504475,113.94011984574661L166.033525,121.63863316812456L167.267975,113.57960840246142L167.620675,136.6938290282721L168.2379,103.06034463046007L168.41425,123.72213802400145L168.9433,118.04449440516697L169.11965,133.66550531706264L170.35410000000002,132.74333203164238L170.442275,132.39251357033783L171.324025,149.98286579486972L171.58855,167.92163805349261L172.382125,186.12750378710058L172.734825,174.13113661289705L173.087525,174.69941297304655L173.88109999999998,155.88058813718095L173.969275,177.35955056856878L174.498325,168.71351267374055L174.5865,178.0976002947851L175.027375,177.94878327552988L176.085475,168.23951178084135L176.61452500000001,184.01995125665542L176.87905,185.94684757253958L177.672625,164.6461493050881L180.317875,160.89489128921088L181.46415000000002,124.95375550064233L181.9932,99.8612480578343L182.257725,96.12127180956776L182.434075,88.93201541387185L182.786775,86.99005838827122L183.315825,57.367174775462274L183.7567,79.78097796895901L184.63845,98.67134404387525L185.1675,103.23576573568607L185.608375,118.80015893858655L186.490125,120.36537849973661L186.93099999999998,109.15593490436368L190.193475,127.09849528938625L190.54617499999998,132.6824586584227L190.63435,134.83491924968027L190.722525,154.33369806045238L192.309675,153.5981970757562L193.367775,131.80586196237027L193.45595,116.8915878186425L193.985,117.55784953081121L194.602225,128.83337031569755L196.894775,111.93796023737303L197.952875,104.25732713137955L198.9228,98.08735288031153L199.187325,106.28172662027197L199.45185,110.00572279859654L201.21535,114.20810519556971L201.7444,103.6231349322835L202.361625,127.2073119577131L202.890675,122.88058019283125L204.30147499999998,142.6655631007646L204.566,117.27252310967333L205.535925,117.68992128836106L205.80044999999998,136.935353885344L206.064975,144.67016386989846L206.15315,144.77475336156337L210.38555,127.00289737061811L210.65007500000002,122.0014485136748L210.9146,132.85235770121204L211.002775,113.22461960780464L212.942625,113.16513238423602L214.000725,124.09178141819359L214.177075,124.01709118951874L214.529775,109.98253529935738L214.882475,97.18339516153213L215.235175,101.99602249310209L217.43955000000003,123.25270330859178L217.527725,125.84668636589083L218.49765,126.9217629601641L219.20305,131.31325943166144L219.55575,150.58414727237653L219.7321,153.0597039744965L221.231075,169.38592099256502L222.55370000000002,189.91352034852147L222.90640000000002,202.85641733064995L225.11077500000002,201.71012419248885L226.521575,213.11799682250248L226.60975000000002,230.59578129601695L227.932375,238.06545468162835L228.285075,236.235589770605L229.695875,236.59590950280202L229.78405,240.00040862537548L230.930325,224.19319074265374L231.7239,230.21597859962517L232.164775,245.2273747613835L232.60564999999997,244.60382112936333L232.870175,233.52385338457208L233.31105,232.93984630280278L233.57557500000001,218.73071844549935L234.633675,216.74113239208214L235.33907500000004,222.66122415874935L235.9563,229.97738496237008L236.573525,235.21828544500468L237.3671,229.26914480673415L237.7198,226.24362440454115L237.807975,221.73723338084264L237.89614999999998,210.9973324762823L238.07250000000002,207.91827469514388L238.33702499999998,190.57573310439074L238.95425000000003,202.64063981114313L239.74782499999998,211.65020244781618L240.629575,210.1027914171727L240.982275,212.742858650957L241.15862500000003,213.27161386269987L241.42315,220.28611917701602L241.864025,202.5075150745844L242.12855000000002,218.88253309096007L242.216725,221.44741088594756L242.3049,221.62564400240538L243.980225,222.8073188373011L244.77380000000002,214.87619174965417L245.30285,230.81958015299344L245.920075,214.12872568928404L246.00825000000003,220.60433922036077L246.80182499999998,214.094502869962L247.41905000000003,223.72274761028112L249.270725,219.8448227100654L249.62342500000003,212.47814096034077L250.505175,210.42603189651282L250.85787499999998,213.0768575095175L251.65144999999998,209.3003433663244L252.797725,210.57903228872894L253.06224999999998,204.73425295332746L253.59130000000002,208.43310987707952L253.76765,211.22590995820028L256.7656,209.6014221041108L257.29465,188.1215029765535L258.79362499999996,197.5082497548039L258.96997500000003,214.09827990133792L259.675375,207.03449988468293L259.9399,213.7333125840292L260.11625,193.91374452412882L261.7034,196.20764343295846L262.93785,200.01391861761022L263.1142,202.47575517232366L264.70135000000005,209.79067765246006L265.05404999999996,212.8830633631985L265.75945,210.32704557818514L267.258425,207.89652913069764L267.78747500000003,197.96935981435414L269.90367499999996,175.89542378699136L270.961775,178.628438666915L271.04995,191.26573479968314L271.31447499999996,199.0843361091826L271.40265,186.07059301181675L271.579,176.50157101070624L271.75534999999996,185.03512601064926L272.10805,178.2060301423501L272.46075,181.94285110120958L272.901625,181.60723374621477L273.077975,156.2616503327755L274.4006,166.33062480299853L277.39855,172.8158951855652L277.75125,190.88594922935698L277.9276,201.44688471720437L278.368475,205.99618199378136L279.16204999999997,217.60607002000393L280.22015000000005,209.68014147716195L281.1019,218.88661768590052L281.27825,219.53375074763326L281.45459999999997,227.37976131588195L281.54277499999995,218.65590700282965L281.895475,223.3163746903061L282.16,216.43614427235778L282.86539999999997,217.629789519195L283.2181,219.5035024236607L284.45255,214.99078493275752L284.9816,216.06117093228L285.42247499999996,216.88636296685996L285.51065,216.99381431665836L285.687,223.74587045365902L285.951525,225.46916472543228L286.127875,230.6233702507235L286.304225,229.99825437128092L286.39239999999995,235.61146365934303L287.009625,236.4716092169318L287.27414999999996,222.52402276575654L287.71502499999997,235.2211827526714L289.39035,246.45276912065515L290.27209999999997,220.085156393157L290.80115,213.640123801326L291.33020000000005,205.0078861328016L291.68289999999996,222.10944146025767L292.74100000000004,227.65175802208753L292.829175,209.69560416964558L295.03355,215.0095531978717L295.827125,207.51470082150456L297.3261,188.26284850668722L298.91325,191.5730729791388L299.001425,209.1942342900818L299.177775,217.2871371016134L300.059525,224.68863550769373L300.412225,225.30359001112356L302.08755,220.77450817065562L303.057475,221.22445679817014L303.76287499999995,221.68990460437607L304.291925,218.00249869288854L304.3801,207.27643152471035L304.55645,216.35716420765812L304.7328,213.7026659341701L305.173675,215.9399997435852L307.37805000000003,213.05078702356013L307.466225,224.85769448148253L308.347975,222.2067888867889L308.524325,209.47855556237997L308.9652,218.99576643909492L310.19965,225.7023692232861L310.7287,215.63277355156782L311.522275,218.17497181286615L312.8449,219.36677562645255L313.1976,217.61995936141471L313.37395,223.3283084455674L314.52022500000004,216.77124454589588L315.578325,207.97124792944103L316.636425,188.9414119167093L316.7246,192.71535696771406L317.518175,189.78870003986356L318.047225,198.5159367939949L319.5462,209.58531183789242L320.07525,202.16730017772375L320.16342499999996,177.82977758030046L320.868825,191.1687491134997L321.397875,209.4436345514234L321.926925,222.25192612557797L322.3678,220.79862815871107L324.395825,218.83226708234199L325.01304999999996,218.74945388729137L325.45392499999997,214.44522974337428L326.60020000000003,219.34539518456415L327.217425,200.8140550527044L328.54005,210.83131306824694L329.59815000000003,200.47175697199359L329.86267499999997,215.26381791572442L331.097125,232.4344927037418L331.1853,231.62075038832364L331.36165,234.05374914480984L334.18325,222.23113465971127L334.27142499999997,225.34211304783557L334.3596,239.7429006367898L334.976825,235.84480571776413L335.94675,241.06399641063612L337.269375,241.54922369980935L337.71025000000003,239.92009860155693L340.3555,233.63322828302717L341.50177499999995,227.6534288235599L342.29535,230.60599031818754L343.088925,227.10831433629554L343.617975,214.86887610640127L343.970675,215.79570977109074L345.46965,204.10438513950166L345.646,167.86863649066385L345.734175,168.27897151866043L346.79227499999996,185.7587140610083L348.379425,200.91401655169705L349.8784,203.0959057214175L350.5838,212.0742631854696L352.61182499999995,197.5910922380164L353.4054,197.44551469909024L353.58175,193.12637903118318L353.7581,209.80587331495445L354.1108,212.33970401324422L354.198975,220.61043360505332L355.1689,231.162529873912L355.433425,235.36875336891214L356.138825,247.08322957926214L356.40335,233.97053650414844L357.196925,231.1218823974958L358.51955000000004,233.51980672946252L358.87224999999995,227.0479787588478L359.0486,230.75334409478552L360.371225,237.3639795148663L361.5175,232.272207227137L363.545525,244.31896874319284L364.86815,227.75101287076563L364.956325,224.1872297904762L365.57355,223.09140071706827L366.014425,194.855394686194L366.4553,188.78238115751597L366.808,186.27965936103928L366.98435,189.51525658106334L368.39515,200.82365914942795L369.98229999999995,210.31753825630523L370.070475,201.31283940809172L370.6877,194.6515233093846L370.952225,206.9371050215675L373.068425,209.02411751898353L373.33295,215.32252325670922L373.950175,222.17136109522286L374.2147,239.21621972904774L374.302875,248.24085715937173L374.47922500000004,237.55278256709178L374.5674,237.2316614911687L376.3309,248.69892626932847L376.771775,258.3449037366949L377.56535,263.08751974348803L379.68154999999996,264.89364489774033L380.38695,244.07820332819333L381.6214,236.61108982063033L381.70957500000003,245.2791894033256L382.15045000000003,241.04826905918443L383.20855,238.97915077143008L385.765625,241.50553207337643L385.94197499999996,237.5507001108508L386.118325,248.23901388882823L386.82372499999997,247.99221172785064L388.3227,247.98522154261437L388.763575,246.15011815818937L390.703425,224.88050333791483L390.96795000000003,216.68404712796368L391.40882500000004,206.32725912201548L392.02605,217.37431102277168L392.37875,212.02652740432018L392.5551,201.273438262521L393.08414999999997,211.0485438533831L393.172325,216.58813240780316L393.701375,226.60239188659685L394.3186,236.71222716082775L394.84765,220.74681499162L395.112175,218.71880459688919L396.61114999999995,223.96273233803646L397.66925000000003,230.28843757789613L397.93377499999997,226.47104821158607L398.551,239.85455976921162L399.9618,252.105182817559L400.13815,248.4626187899535L400.66720000000004,249.5901603357933L401.0199,241.89597470077354L401.19625,247.9761968718095L402.4307,247.31309218401822L403.92967500000003,255.00708785529534L405.693175,251.05310453363302L407.280325,249.08637440253534L407.456675,246.8456669931046L407.633025,253.57510767141866L407.89755,241.77505940580266L408.16207499999996,215.58572904810816L409.66105,220.876687221636L410.630975,228.34564892015726L410.71915,226.68536038007022L411.865425,226.91947670107203L414.510675,231.73075264088914L414.687025,228.37318698220798L416.803225,227.74617769408243L417.155925,236.69635078389663L417.332275,237.67298474084637L417.86132499999997,249.34333246503442L418.12585,235.50211559731522L418.30219999999997,233.64837658702217L419.095775,246.89754849939538L419.71299999999997,252.43794549348053L420.859275,225.49744989432776L421.564675,235.41106540523066L422.71094999999997,221.65483301784482L422.88730000000004,224.46801754748122L423.151825,226.72670514209833L424.209925,237.4527256145218L424.56262499999997,232.53125371224928L425.0035,225.3182498009853L425.17985,229.30122994707696L426.0616,239.4517185627819L426.41429999999997,246.58016845638167L428.97137499999997,246.96954865206428L429.41225,250.1959651972277L430.02947500000005,249.58127838362068L432.23385,245.05576506247053L432.322025,235.91287128022253L433.027425,242.48061354062799L433.909175,226.6609186569021L434.614575,242.02296218626194L435.23179999999996,233.6634598137661L435.5845,232.2182590808026L436.554425,247.5182200532155L437.08347499999996,232.2545137400326L437.612525,212.75270833923494L439.552375,224.0533246131606L440.5223,220.285287874806L440.963175,218.76789609599237L441.75675,235.32845284946077L441.844925,250.75439710385186L442.90302499999996,235.24782660275625L443.87294999999995,235.30916721823746L444.13747500000005,239.7770942616725L445.019225,229.2021495373485L445.10740000000004,222.7901508693192L449.16344999999995,228.4928443089986L449.604325,241.93803009294248L449.6925,245.09431100698805L450.57425,253.8691737486049L457.01102499999996,244.88102022109558L457.98094999999995,251.27306956617352L458.069125,259.00199992568776L458.24547500000006,266.5379136721326L458.421825,263.97501013756096L458.68635,268.89131661129267L458.774525,271.3050632346177L460.9789,280.15142840163446L461.419775,266.3320577324916L461.68429999999995,269.31206912232835L462.3897,265.60285165101345L463.359625,260.1967195468252L464.15319999999997,258.6327902374063L464.41772499999996,263.118752565747L464.50590000000005,262.6077602208544L465.828525,261.25082254715767L467.239325,258.0763817337871L467.768375,260.2048722721088L468.121075,264.6939478233708L468.91465000000005,265.6353252692747L469.091,272.24367813739724L469.88457500000004,266.3342935008426L470.237275,265.5435978200393L470.76632500000005,249.02285753724186L471.2072,247.2806572708834L473.49975,255.10409758627551L474.29332500000004,257.2902196002615L475.61595,260.58030908280125L476.233175,263.5339715567843L476.76222499999994,268.55173366853137L477.114925,258.6054800175596L477.2031,254.73453009929972L478.87842500000005,242.00422322279266L479.14295,227.86337159448314L479.672,220.11220098471745L482.31725000000006,195.95027211549376L482.8463,205.202206879042L483.199,216.82743754611823L483.463525,203.63112701141603L484.168925,204.86261670437844L484.345275,200.11962190253192L485.84425000000005,200.8600438980697L485.932425,194.673249484459L487.60775000000007,208.32267515780882L487.69592500000005,216.90529983868316L487.96045,208.32277881172402L488.754025,220.20364017844582L489.459425,224.5827128251826L489.635775,228.11131469253615L489.72395,223.49088928559945L491.928325,208.12237134092624L492.19285,205.91609142881842L493.162775,181.67289804216213L493.4273,179.55843492861976L493.60364999999996,195.13526412710297L493.78000000000003,199.97317089615532L494.83810000000005,214.60260227303152L496.33707499999997,218.586777546827L498.18874999999997,227.91652724041703L498.805975,209.19738161171225L499.511375,217.89910379294827L499.86407499999996,228.48488501826765L500.4813,220.48740931856486L500.569475,218.30669321275818L500.65765,228.89192602923868L501.5394,233.53667870066784L503.83195,242.52228905173138L504.27282499999995,251.30533026527166L505.683625,258.4106331724298L506.12449999999995,238.9642823033069L506.65355,229.54006915323748L507.00624999999997,230.86648311346306L507.09442499999994,226.00089402910646L507.799825,234.16891604587352L508.06435000000005,234.29579027227982L508.152525,222.92084762810848L508.32887500000004,194.59961419128643L508.5934,204.6967257930929L509.386975,218.0441796786274L509.739675,210.5230005031841L510.092375,201.3875860195772L510.3569,221.87907977891706L510.445075,228.07119652026364L510.974125,231.3644579564941L511.50317499999994,252.54621108014092L511.679525,254.20177731190955L511.94405,240.36861377902179L515.030175,239.1096115167202L516.0882750000001,250.81200886266782L517.7636,267.7138049170139L517.9399500000001,263.9339613286938L519.35075,261.6200255306022L519.615275,264.2754328743926L519.7916250000001,257.6590132441799L519.8798,269.6687508815539L521.555125,268.68060189432015L523.671325,275.02862103533243L523.93585,288.52312917487166L525.082125,286.8062130240471L525.7875250000001,279.44936281691827L526.5811,266.6065558992401L526.845625,278.37811371111053L527.021975,273.780115953891L527.11015,270.90296419126565L528.3446,278.0536530702958L529.05,271.6693868538424L530.9898499999999,276.88029269284164L531.5189,281.4950481525614L531.783425,289.0010550026495L532.40065,284.9636881116985L533.546925,287.8358229664528L533.723275,296.56751052149207L533.81145,300.44485609180987L534.428675,302.4814565460139L536.015825,309.67897434356087L538.04385,318.93881137957226L538.484725,309.23852898886844L538.5729,302.10622195790154L540.248225,292.62772847762653L540.424575,294.6986240525628L540.953625,300.9099801760541L543.246175,292.4301950795913L543.68705,291.8339941141126L544.8333250000001,280.6045476827428L545.186025,280.3609018057649L546.773175,290.08069379300457L547.478575,283.9895841762774L549.5065999999999,288.56716022062477L549.7711250000001,289.69194882960477L549.8593000000001,282.6206556724133L550.212,279.27161691486435L550.300175,270.0428377917373L550.652875,263.458102810171L552.5927250000001,273.0008862982274L554.62075,272.03987847895155L555.767025,272.5169674438005L557.177825,268.7872670067935L558.14775,267.34856582643886L559.5585500000001,267.4510878410545L560.793,268.5187825161165L560.881175,280.8324001370024L561.1456999999999,286.30450956864524L562.644675,288.2146414593759L562.9973749999999,289.39889478170005L564.7608749999999,280.2543956233543L564.937225,273.63077700675865L566.171675,279.0177265811682L566.6125499999999,258.97046213227986L567.847,270.8029683787687L567.935175,263.44479850164623L568.111525,242.9159337332687L568.5524,244.56749622084266L571.0213,243.30092489770863L571.8148749999999,257.9577861432893L572.4321,257.3975176874992L572.7847999999999,268.9328059730706L573.31385,272.34672370950375L573.8429,270.8388838237523L574.283775,277.9060047149062L574.5482999999999,276.90402271265384L574.72465,285.7545689277166L576.047275,277.7136808215661L576.84085,271.0637774687185L577.54625,254.29721448014743L579.045225,252.39725987783584L579.4861,263.82679839734595L579.66245,268.81814371172516L580.72055,268.0456986185068L580.8969000000001,257.8375767012972L581.42595,239.03246340220022L582.48405,233.00359412191673L582.924925,231.14877895258397L583.806675,234.02515014179818L584.688425,225.50439362676389L586.1873999999999,222.3483046974371L587.157325,206.97688231637747L587.333675,208.22793676052095L587.686375,214.4359640263939L589.009,210.85381514877895L592.624175,206.20507685289522L592.8887,207.2351755137361L593.2414,215.61148286775793L594.47585,222.8298330627326L595.445775,212.4811589529316L596.063,197.43641601296062L597.561975,212.37488796375806L597.8265,201.57388503011418L598.267375,205.76794172516185L598.70825,208.10205911270418L599.2373,213.19077306990297L600.2954,217.05299440030282L600.383575,225.08363856378816L601.88255,218.1277828708615L602.147075,206.73130707400972L602.7642999999999,199.63511327914532L605.145025,208.61725176583644L605.321375,227.2369028557323L605.9386000000001,241.70658386608798L606.8203500000001,252.12444009358438L607.5257499999999,250.589291006101L607.7021000000001,243.50044876614766L608.3193249999999,239.37606573950842L609.1129,233.7306148128354L609.99465,237.7304101392606L610.082825,239.93973616406137L610.964575,230.44355231205952L611.317275,235.0666634352237L611.40545,222.67527953188684L613.080775,235.31789838732237L613.52165,239.09443984741824L613.698,245.76113493127994L614.0507,236.81821102097666L614.844275,228.76741656835412L616.4314250000001,220.33739942171158L618.1949249999999,225.73049749605048L618.6358,228.24257996385265L619.429375,229.89295423065093L619.9584249999999,238.49890197546304L620.0466,238.2696738949211L620.134775,232.68007184661553L620.3993,238.99459220406823L620.663825,237.81059948299003L622.603675,250.9082020255358L624.10265,235.3438855766443L624.190825,249.16058621041662L624.543525,234.2535737624707L624.9843999999999,220.39561960735395L625.601625,211.68192205701894L626.3952,207.1656810689684L626.57155,215.60010125476566L627.4533,216.7313207588057L627.98235,228.80333753241246L628.1587000000001,244.1718284709437L628.6877499999999,250.7999649903044L628.8641,255.86851766653643L629.0404500000001,263.9741873766284L630.09855,272.2034630321235L630.2749,275.23117485726806L630.45125,265.4319183029378L632.479275,269.3012176034729L633.27285,263.4641740749371L633.537375,269.1356630471431L634.948175,264.0363850725069L635.829925,261.81571928254135L635.9181,259.02346372239026L636.09445,255.22674479155745L636.6234999999999,262.1634634322137L637.15255,257.8168846594879L637.7697750000001,250.9487545812955L638.21065,248.82293754143987L638.8278750000001,258.5044649123264L639.3569249999999,263.78120481483154L640.5032,259.6298480586292L642.79575,255.46601906026143L644.55925,260.21587091628976L644.823775,261.5379890973353L645.176475,265.0485647298381L645.26465,268.73281042970586L645.881875,269.8858003484968L647.38085,259.7524472118405L648.350775,249.96775997051483L649.3207000000001,249.87744187446435L649.937925,255.01242984949351L650.466975,258.9120680596125L652.583175,259.4663824175917L656.7274,254.65110632793213L657.4328,249.48343488886445L657.7855,254.78015146238647L658.931775,246.37953652366738L659.9017,257.08584642492L660.2544,241.66038365437623L660.9598000000001,250.29375553674134L661.0479750000001,258.5265958834883L661.400675,264.60419380627843L662.19425,275.2103016969213L662.282425,265.0428142365798L663.164175,272.00582283291084L663.25235,254.58660594421207L663.340525,260.88275091467125L664.045925,262.3446931655808L665.809425,269.93311613341604L667.925625,268.66990143245846L668.278325,278.7615382270788L668.454675,279.8691899654366L668.5428499999999,278.65210596416273L668.807375,274.5534673663427L669.60095,278.6739534734889L669.689125,265.0081021248582L670.4827,268.1838129275397L670.7472250000001,276.03254684627257L671.6289750000001,284.79872804421365L672.06985,281.92261080925033L675.24415,278.2021621672901L676.037725,277.1151072092586L676.214075,288.1180847085476L676.566775,278.4665852663183L677.095825,278.8639990816054L677.36035,269.48064482774174L677.977575,256.7540353467987L678.2421,252.07157023527552L678.682975,256.9226959685534L678.9475,259.53467232048956L679.6529,268.13636646920844L680.0056,269.39353918660646L680.3583,258.7331466403213L681.24005,250.00560891568125L681.3282250000001,258.70041736310236L682.386325,266.103520348777L682.739025,268.25548349181673L683.35625,274.29516465389605L683.70895,278.2342980527032L684.678875,276.58997009603513L685.7369749999999,290.1242289877683L687.147775,293.5185077491477L689.35215,291.762468150533L690.674775,284.82502939517207L691.909225,270.82548811031796L692.261925,278.3704968630679L692.6146249999999,281.4317391460604L693.320025,283.851097847116L693.8490750000001,287.8906100259054L693.9372500000001,293.24271695010316L695.4362249999999,296.61079230480595L696.2298,304.6648179403532L696.75885,293.41103222175735L697.46425,292.97653986994294L697.728775,288.83490623817323L699.668625,281.94771478580367L699.93315,288.5917994321012L701.1676,285.2733816272578L701.5203,286.4065788000728L702.2257,280.46403588741174L702.490225,283.1584807445629L703.019275,276.6161056467912L704.6064250000001,272.05189155122827L704.782775,271.11523352784985L706.3699250000001,274.91219396641617L706.546275,280.4020632080802L706.8108,273.35278458350024L708.133425,272.56013899105596L708.39795,275.5532246326608L708.75065,274.20689455525894L709.367875,270.2662084566667L710.51415,277.8901223361892L711.0432,269.883715083039L712.27765,264.6532794801917L713.3357500000001,272.2147944124215L713.9529749999999,272.28721069261496L714.658375,276.2133936074233L715.363775,264.78917262436653L715.45195,262.6386252654943L715.892825,257.08840237975295L716.245525,248.50888076055207L717.3918,250.33789972032446L717.7444999999999,243.5274560770274L718.97895,241.93981228359465L720.03705,244.46844801385336L720.125225,239.90680733691872L720.74245,235.6171128932049L721.44785,240.4428904458949L721.9769,245.7180101041558L722.50595,263.1052735773828L723.1231750000001,265.1825695152378L723.299525,265.7533204181757L724.0931,263.20824998829664L724.26945,275.2179805238298L724.357625,280.8714224159048L726.03295,287.9606900864237L726.297475,301.4040217506939L727.09105,296.27145896924026L728.2373249999999,284.70787870799734L729.2072499999999,263.48095089121375L729.471775,261.1802927069996L730.353525,274.21699871538294L731.764325,277.01095102356265L732.73425,290.2115003418301L734.3214,297.97666155261174L735.2031499999999,304.80105388428905L735.291325,298.80009888648516L735.7322,288.0798572931247L735.820375,273.41780414285273L736.4376000000001,261.7248625347198L736.7903,249.6613627543313L736.878475,233.48010845216473L736.96665,232.92086351423586L738.2892750000001,223.9994425223094L738.9064999999999,215.867544458433L738.9946749999999,226.5418221170819L739.347375,228.99338407651626L739.523725,229.2870598137621L740.3173,239.5131941110114L740.67,245.74484655888855L740.934525,245.89204521446212L743.227075,243.1258448434065L743.31525,254.19750813891204L744.108825,254.7107233665858L744.37335,259.4057500060624L744.72605,264.5277117219174L744.990575,268.20268350779446L745.8723249999999,255.47092185562343L745.9605,257.18215715419194L746.048675,258.86128745851767L746.13685,265.3962919447826L746.577725,278.10839757925334L747.1067750000001,272.659929456765L747.459475,272.9842141829025L747.635825,275.8041910495243L749.0466250000001,283.5674987702861L749.5756749999999,288.4859844508136L749.6638499999999,289.78759142718L750.36925,296.4111317839737L750.8983000000001,302.62368500648574L752.044575,311.06772576944803L752.6618,310.7394867465804L753.54355,304.53763737612155L755.1307,299.29040249287954L755.8361,296.7665008315432L757.8641250000001,296.38804868540063L758.48135,296.0406565518459L759.0104,301.5952166901184L759.2749249999999,296.8010392593878L762.00835,300.5193259126726L762.0965249999999,310.52588226259803L763.507325,307.3642875360941L763.5955,314.30924792356745L764.47725,303.65367446482884L764.741775,299.7927400780383L764.918125,299.47755622678966L765.88805,300.8800535185394L766.4171,298.1262986168198L766.681625,279.4929940496324L767.034325,280.93225312779293L768.4451250000001,282.4789672185476L768.621475,272.94446141923925L768.70965,264.19260255758877L769.0623499999999,262.4877517485462L769.3268750000001,257.87993783925555L769.503225,265.43929341293494L770.737675,269.9273593681198L771.090375,276.4540040961333L772.0603,263.57700044555315L772.324825,271.4902763722198L774.088325,271.43599236826805L774.793725,278.7697710229818L775.675475,281.8195705205676L775.76365,282.5529021075794L776.733575,291.7462854312148L778.7615999999999,295.5983453684705L779.202475,285.8985007608227L780.70145,286.08212499656906L782.7294750000001,271.50167681728567L782.905825,262.32007393200485L784.58115,276.6547867383893L784.6693250000001,290.787666600317L785.022025,293.7720877302023L785.374725,288.0090442632734L786.961875,272.287586057344L787.4909250000001,265.64617581739327L787.5791,269.56042338229094L791.2824499999999,281.57685514226745L791.98785,288.69644633473627L792.69325,282.25399324484175L792.781425,285.0061373697594L794.2804,285.75244002224883L794.9857999999999,288.1193354548384L795.426675,291.5488414425882L795.779375,302.06377312474535L796.7493,305.0246048653104L797.8074,301.94936491405764L798.071925,306.62111428996144L798.248275,289.0455867614169L798.600975,301.7671370177703L799.306375,282.86740104579064L802.7452,281.00195524892035L804.596875,276.4397056621387L805.125925,275.98499491114086L805.2141,264.61836893229486L805.39045,274.576500453372L806.713075,264.69324062867685L807.3303,266.530719983015L809.358325,267.9256964809598L809.534675,282.3344797152491L809.711025,292.83256908579574L810.6809499999999,279.5636947303168L810.945475,280.5983986749486L812.44445,277.5698259735915L812.9735000000001,263.09838510139105L814.119775,269.9753382019697L815.883275,275.5506233286111L816.6768500000001,269.82865082424127L817.9113,278.5015817928425L818.0876499999999,284.05782305432365L818.264,282.8354546359152L819.0575749999999,275.38998156764836L819.85115,278.3079208193308L820.55655,266.20109342855983L822.32005,271.7748170553694L822.4964,279.0088679426059L822.760925,284.2200193792413L822.937275,284.88518518118536L823.466325,270.1523900441093L824.5244250000001,273.97849577770495L824.6126,278.84695746397256L825.229825,276.033238737839L825.49435,284.2040373883165L825.935225,275.08083232654786L826.55245,284.93076367748074L826.7288,291.08125859116575L828.1396000000001,279.6624868656551" style="fill: none;" fill="none"></path></g></g></g></g><g opacity="0.2"><g><g><g><path stroke="rgb(255, 112, 67)" stroke-width="2px" d="M88.70405,-190.7911491394043L89.850325,277.303316116333L90.379375,-235.7438735961914L97.257025,-493.28482818603516L97.60972500000001,156.78070449829102L99.37322499999999,-79.59262275695801L100.51950000000001,70.48723411560059L101.93029999999999,-433.5590286254883L102.19482500000001,-466.15707778930664L102.9884,123.31992530822754L103.958325,-260.0717468261719L104.39920000000001,214.83868217468262L104.57554999999999,25.22677230834961L105.016425,-354.9726104736328L106.5154,-10.628494262695312L108.45524999999999,97.10168838500977L108.896125,69.31965065002441L110.21875,-450.2010383605957L110.74779999999998,-181.3440170288086L111.18867499999999,143.45094680786136L111.8059,97.04144668579102L112.33495,82.63526916503906L114.010275,-16.957557678222656L115.42107499999999,-139.07541275024414L115.597425,152.7278881072998L116.30282499999998,41.96439170837402L117.360925,-19.32440757751459L118.8599,389.6357002258301L120.27069999999999,49.987953186035156L120.6234,90.96941184997559L125.38485,48.29449653625488L125.473025,-72.81042480468756L126.972,32.572654724121094L127.23652500000001,5.742868423461914L127.50105,44.059953689575195L128.823675,154.17348861694336L129.0882,95.41568183898926L129.17637499999998,233.75886154174805L130.058125,69.50638389587402L131.5571,-93.97953414916992L131.73345,-31.054996490478572L133.585125,66.22329139709473L135.0841,182.60116195678708L135.524975,106.96610641479492L137.9057,77.85614776611328L138.78745,108.22208976745605L139.3165,154.4842300415039L139.49285,239.07483100891113L139.933725,11.639665603637695L140.0219,-104.0782699584961L141.344525,272.3374214172363L142.93167499999998,5.444023132324219L143.108025,112.96203804016113L144.166125,195.36278915405273L144.78335,256.10150241851807L144.871525,56.738067626953125L145.047875,19.22431182861328L145.3124,190.27609062194824L145.48875,16.85101318359375L146.54684999999998,-295.21973419189453L147.4286,180.94763946533203L148.48669999999998,307.13739681243896L148.927575,120.45788383483887L151.22012500000002,165.8147964477539L151.572825,88.91899108886719L151.92552500000002,198.07110214233398L152.0137,100.57243537902832L152.630925,139.45989418029785L153.4245,213.33924865722656L153.7772,274.7170286178589L154.12990000000002,166.7629623413086L154.570775,-48.46124267578125L154.923475,162.50707054138184L155.71705,261.430890083313L156.06975,86.45673179626465L156.24609999999998,137.13373947143558L156.42245,18.100788116455078L157.03967500000002,139.5519790649414L157.48055,168.14419555664062L157.65689999999998,127.71412467956543L158.09777499999998,-205.0191650390625L158.274125,350.17842864990234L158.626825,151.40865898132324L158.979525,113.49123573303223L159.508575,71.3668270111084L159.59675,145.93471527099612L161.624775,49.034339904785156L161.977475,128.21796798706055L164.88725,217.23140716552734L165.504475,13.25145149230957L166.033525,190.92320823669434L167.267975,41.05031204223633L167.620675,344.71684169769287L168.2379,-199.63450241088867L168.41425,309.6746778488159L168.9433,66.94659233093262L169.11965,274.25239849090576L170.35410000000002,124.44388961791992L170.442275,129.23518753051758L171.324025,308.294225692749L171.58855,329.3689270019531L172.382125,349.978777885437L172.734825,66.16473197937012L173.087525,179.8138618469238L173.88109999999998,-13.487691879272461L173.969275,370.6690378189087L174.498325,90.89959716796875L174.5865,262.553973197937L175.027375,176.60943603515628L176.085475,80.85641670227051L176.61452500000001,326.04339694976807L176.87905,203.2888584136963L177.672625,-27.05957794189453L180.317875,127.13365745544434L181.46415000000002,-198.51570510864258L181.9932,-125.97084045410156L182.257725,62.46154975891113L182.434075,24.228818893432617L182.786775,69.51247215270996L183.315825,-209.23840713500977L183.7567,281.50495433807373L184.63845,268.6844472885132L185.1675,144.31551933288574L185.608375,258.8795700073242L186.490125,134.45234298706055L186.93099999999998,8.271017074584961L190.193475,288.581431388855L190.54617499999998,182.9380989074707L190.63435,154.2070541381836L190.722525,329.82262229919434L192.309675,146.97869110107425L193.367775,-64.32507705688477L193.45595,-17.33683204650879L193.985,123.55420303344727L194.602225,230.3130283355713L196.894775,-40.12069129943848L197.952875,35.13164520263672L198.9228,42.55759620666504L199.187325,180.0310764312744L199.45185,143.5216827392578L201.21535,152.02954101562497L201.7444,8.358415603637695L202.361625,339.4648790359497L202.890675,83.93999862670898L204.30147499999998,320.73039150238037L204.566,-111.26481628417969L205.535925,121.44650459289551L205.80044999999998,310.1442346572876L206.064975,214.28344917297363L206.15315,145.7160587310791L210.38555,-32.94379806518555L210.65007500000002,76.98841094970703L210.9146,230.51053619384766L211.002775,-63.42501640319824L212.942625,112.62974739074707L214.000725,222.43161964416504L214.177075,123.34487915039062L214.529775,-16.32846450805664L214.882475,-18.00886344909668L215.235175,145.30966758728025L217.43955000000003,314.5628271102905L217.527725,149.192533493042L218.49765,136.5974521636963L219.20305,170.83672714233398L219.55575,324.0221357345581L219.7321,175.33971405029297L221.231075,316.32187271118164L222.55370000000002,374.6619129180908L222.90640000000002,319.3424892425537L225.11077500000002,191.39348602294922L226.521575,315.78884983062744L226.60975000000002,387.8958406448364L227.932375,305.2925148010254L228.285075,219.7668056488037L229.695875,239.83878707885742L229.78405,270.64090061187744L230.930325,81.92823028564453L231.7239,284.42106914520264L232.164775,380.3299398422241L232.60564999999997,238.9918384552002L232.870175,133.80414390563965L233.31105,227.68378257751465L233.57557500000001,90.84856796264648L234.633675,198.83485794067383L235.33907500000004,275.9420499801636L235.9563,295.82283210754395L236.573525,282.38638973236084L237.3671,175.72687911987305L237.7198,199.01394081115723L237.807975,181.1797142028809L237.89614999999998,114.33822441101074L238.07250000000002,180.20675468444827L238.33702499999998,34.49285888671875L238.95425000000003,311.2248001098633L239.74782499999998,292.73626613616943L240.629575,196.17609214782715L240.982275,236.5034637451172L241.15862500000003,218.03041076660156L241.42315,283.4166669845581L241.864025,42.500078201293945L242.12855000000002,366.2576951980591L242.216725,244.53131103515625L242.3049,223.2297420501709L243.980225,233.44239234924316L244.77380000000002,143.49604797363278L245.30285,374.3100757598877L245.920075,63.91103553771973L246.00825000000003,278.88486099243164L246.80182499999998,155.5059757232666L247.41905000000003,310.37695026397705L249.270725,184.9434986114502L249.62342500000003,146.17800521850586L250.505175,191.95705032348633L250.85787499999998,236.93428802490234L251.65144999999998,175.31171607971189L252.797725,222.08723258972168L253.06224999999998,152.13123893737793L253.59130000000002,241.72282218933105L253.76765,236.36111068725586L256.7656,194.98103141784668L257.29465,-5.1977691650390625L258.79362499999996,281.98897075653076L258.96997500000003,363.4085512161255L259.675375,143.46047973632812L259.9399,274.02262687683105L260.11625,15.53763198852539L261.7034,216.85273361206055L262.93785,234.27039527893066L263.1142,224.6322841644287L264.70135000000005,275.62497997283936L265.05404999999996,240.71453475952148L265.75945,187.32288551330566L267.258425,186.02188110351562L267.78747500000003,108.62483596801758L269.90367499999996,-22.770000457763672L270.961775,203.22557258605957L271.04995,305.0013999938965L271.31447499999996,269.4517478942871L271.40265,68.9469051361084L271.579,90.38037300109863L271.75534999999996,261.83712100982666L272.10805,116.74416732788086L272.46075,215.57423973083496L272.901625,178.58667755126953L273.077975,-71.84860038757324L274.4006,256.95139503479004L277.39855,231.18332862854004L277.75125,353.51643562316895L277.9276,296.495304107666L278.368475,246.93985748291016L279.16204999999997,322.0950622558594L280.22015000000005,138.34678459167483L281.1019,301.7449035644531L281.27825,225.35794830322266L281.45459999999997,297.9938564300537L281.54277499999995,140.1412181854248L281.895475,265.2605838775635L282.16,154.51407051086426L282.86539999999997,228.37259674072266L283.2181,236.36691856384277L284.45255,174.37632751464844L284.9816,225.69464492797852L285.42247499999996,224.31309127807617L285.51065,217.96087646484375L285.687,284.5143756866455L285.951525,240.97881317138672L286.127875,277.0112199783325L286.304225,224.37221145629883L286.39239999999995,286.1303472518921L287.009625,244.2129192352295L287.27414999999996,96.9957447052002L287.71502499999997,349.4956226348877L289.39035,347.5370464324951L290.27209999999997,-17.223358154296875L290.80115,155.63483047485352L291.33020000000005,127.31774711608887L291.68289999999996,376.02343940734863L292.74100000000004,277.53260707855225L292.829175,48.090219497680664L295.03355,262.8350944519043L295.827125,140.0610294342041L297.3261,14.996177673339844L298.91325,221.36509323120117L299.001425,367.784686088562L299.177775,290.1232624053955L300.059525,291.30212116241455L300.412225,230.8381805419922L302.08755,180.0127716064453L303.057475,225.27399444580078L303.76287499999995,225.8789348602295L304.291925,184.81584548950195L304.3801,110.7418270111084L304.55645,298.083758354187L304.7328,189.81218147277832L305.173675,236.0760040283203L307.37805000000003,187.04787254333496L307.466225,331.1198616027832L308.347975,198.3486385345459L308.524325,94.9244556427002L308.9652,304.6506643295288L310.19965,286.06179428100586L310.7287,125.00641250610352L311.522275,241.05475616455078L312.8449,230.09300994873047L313.1976,201.89861297607422L313.37395,274.7034502029419L314.52022500000004,157.75766944885257L315.578325,128.77127838134766L316.636425,17.672887802124023L316.7246,226.6808624267578L317.518175,163.44878768920898L318.047225,277.06106758117676L319.5462,309.2096872329712L320.07525,135.40519523620608L320.16342499999996,-41.20792579650879L320.868825,311.2194929122925L321.397875,373.9176034927368L321.926925,337.52655029296875L322.3678,207.71894645690918L324.395825,201.13501739501953L325.01304999999996,218.00413513183594L325.45392499999997,175.70721244812012L326.60020000000003,263.44688415527344L327.217425,34.0319938659668L328.54005,300.9866352081299L329.59815000000003,107.23575210571289L329.86267499999997,348.39236640930176L331.097125,386.97056579589844L331.1853,224.29706954956055L331.36165,255.95073795318604L334.18325,115.82760429382324L334.27142499999997,253.3409185409546L334.3596,369.34998893737793L334.976825,200.7619514465332L335.94675,288.0367126464844L337.269375,245.91626930236816L337.71025000000003,225.25797271728516L340.3555,177.0513954162598L341.50177499999995,173.8352336883545L342.29535,257.1790437698364L343.088925,195.62923049926758L343.617975,104.71393203735352L343.970675,224.1372127532959L345.46965,98.8824634552002L345.646,-158.25310134887695L345.734175,171.97198677062988L346.79227499999996,343.0763969421387L348.379425,337.3117389678955L349.8784,222.73290824890137L350.5838,292.8794803619385L352.61182499999995,67.2425537109375L353.4054,196.13531684875488L353.58175,154.25415802001953L353.7581,359.9213218688965L354.1108,235.14418029785156L354.198975,295.04699993133545L355.1689,326.13139629364014L355.433425,273.2247648239136L356.138825,352.5135154724121L356.40335,115.956298828125L357.196925,205.48399543762207L358.51955000000004,255.1011257171631L358.87224999999995,168.80152702331543L359.0486,264.1016321182251L360.371225,296.85969829559326L361.5175,186.44625663757324L363.545525,352.7398223876953L364.86815,78.6394100189209L364.956325,192.1131820678711L365.57355,213.22893905639648L366.014425,-59.26865959167486L366.4553,134.12525939941406L366.808,163.755163192749L366.98435,218.6356315612793L368.39515,302.5992822647095L369.98229999999995,295.7624502182007L370.070475,120.27054977416992L370.6877,134.6996784210205L370.952225,317.5073404312134L373.068425,227.80722999572754L373.33295,272.00817489624023L373.950175,283.8109016418457L374.2147,392.6199474334717L374.302875,329.4625940322876L374.47922500000004,141.3601112365723L374.5674,234.34157180786133L376.3309,351.9043092727661L376.771775,345.15870094299316L377.56535,305.77106380462646L379.68154999999996,281.14877128601074L380.38695,56.73922920227051L381.6214,169.40706825256348L381.70957500000003,323.292085647583L382.15045000000003,202.96998596191406L383.20855,220.35708618164062L385.765625,264.24296379089355L385.94197499999996,201.95721244812012L386.118325,344.433837890625L386.82372499999997,245.77099227905273L388.3227,247.92230987548828L388.763575,229.63418769836426L390.703425,33.453969955444336L390.96795000000003,142.91594123840332L391.40882500000004,113.11616706848145L392.02605,316.79777812957764L392.37875,163.8964748382568L392.5551,104.49563598632812L393.08414999999997,299.0244941711426L393.172325,266.444429397583L393.701375,316.73072719573975L394.3186,327.70074462890625L394.84765,77.05810546875L395.112175,200.46671104431152L396.61114999999995,271.1580820083618L397.66925000000003,287.2197847366333L397.93377499999997,192.11454391479492L398.551,360.3061637878418L399.9618,362.36079025268555L400.13815,215.6795425415039L400.66720000000004,259.73803424835205L401.0199,172.6483039855957L401.19625,302.6981964111328L402.4307,241.34514999389648L403.92967500000003,324.25304889678955L405.693175,215.46725463867188L407.280325,231.38580322265625L407.456675,226.67930030822754L407.633025,314.1400737762451L407.89755,135.57462501525882L408.16207499999996,-20.118244171142578L409.66105,268.49531078338623L410.630975,295.56630420684814L410.71915,211.7427635192871L411.865425,229.0265235900879L414.510675,275.03223609924316L414.687025,198.15509605407715L416.803225,222.10309410095215L417.155925,317.2479085922241L417.332275,246.46269035339355L417.86132499999997,354.37646198272705L418.12585,110.9311637878418L418.30219999999997,216.96472549438477L419.095775,366.1400957107544L419.71299999999997,302.3015184402466L420.859275,-16.967010498046875L421.564675,324.63360500335693L422.71094999999997,97.84874153137207L422.88730000000004,249.78667831420898L423.151825,247.05489349365234L424.209925,333.986909866333L424.56262499999997,188.23800659179688L425.0035,160.40121459960938L425.17985,265.14805126190186L426.0616,330.806116104126L426.41429999999997,310.7362174987793L428.97137499999997,250.473970413208L429.41225,279.23371410369873L430.02947500000005,244.04909706115723L432.23385,204.32614517211914L432.322025,153.62682723999026L433.027425,301.59029388427734L433.909175,84.28366470336914L434.614575,380.2813539505005L435.23179999999996,158.4279384613037L435.5845,219.21145248413086L436.554425,385.21786880493164L437.08347499999996,94.88115692138672L437.612525,37.236459732055664L439.552375,325.7588710784912L440.5223,186.37295722961423L440.963175,205.11137008666992L441.75675,384.37346363067627L441.844925,389.5878953933716L442.90302499999996,95.68869209289551L443.87294999999995,235.86123275756836L444.13747500000005,279.9884376525879L445.019225,134.02764701843262L445.10740000000004,165.08216285705566L449.16344999999995,279.8170852661133L449.604325,362.9447021484375L449.6925,273.50083923339844L450.57425,332.84293842315674L457.01102499999996,163.98763847351077L457.98094999999995,308.801513671875L458.069125,328.5623731613159L458.24547500000006,334.3611373901367L458.421825,240.90887832641602L458.68635,313.13807487487793L458.774525,293.02878284454346L460.9789,359.76871490478516L461.419775,141.95772171020508L461.68429999999995,296.1321716308594L462.3897,232.2198944091797L463.359625,211.54153060913086L464.15319999999997,244.55742645263672L464.41772499999996,303.492413520813L464.50590000000005,258.0088291168213L465.828525,249.03838348388672L467.239325,229.50641441345215L467.768375,279.3612871170044L468.121075,305.095627784729L468.91465000000005,274.10772228240967L469.091,331.7188539505005L469.88457500000004,213.1498317718506L470.237275,258.42733669281006L470.76632500000005,100.33619499206543L471.2072,231.60085487365723L473.49975,325.5150604248047L474.29332500000004,276.96531772613525L475.61595,290.1911144256592L476.233175,290.11693382263184L476.76222499999994,313.71159267425537L477.114925,169.08919715881348L477.2031,219.89598083496094L478.87842500000005,127.43146133422852L479.14295,100.59570693969727L479.672,150.35166549682617L482.31725000000006,-21.507087707519588L482.8463,288.46961975097656L483.199,321.4545135498047L483.463525,84.86433219909668L484.168925,215.94602394104004L484.345275,157.4326686859131L485.84425000000005,207.52384185791016L485.932425,138.99209976196286L487.60775000000007,331.16750621795654L487.69592500000005,294.14892196655273L487.96045,131.08008956909177L488.754025,327.13139247894287L489.459425,263.994366645813L489.635775,259.86873149871826L489.72395,181.90706062316895L491.928325,69.80570983886719L492.19285,186.05957221984863L493.162775,-36.51584243774414L493.4273,160.52826690673828L493.60364999999996,335.32672691345215L493.78000000000003,243.51433181762695L494.83810000000005,346.267484664917L496.33707499999997,254.44435501098633L498.18874999999997,311.88427448272705L498.805975,40.72507095336914L499.511375,296.21460342407227L499.86407499999996,323.7569160461426L500.4813,148.51012802124023L500.569475,198.68024826049805L500.65765,324.1590213775635L501.5394,275.3394527435303L503.83195,323.3927822113037L504.27282499999995,330.3527011871338L505.683625,322.358359336853L506.12449999999995,63.94712448120117L506.65355,144.7221508026123L507.00624999999997,242.80420875549316L507.09442499999994,182.21059226989746L507.799825,307.68111419677734L508.06435000000005,235.43765830993652L508.152525,120.5463638305664L508.32887500000004,-60.291486740112305L508.5934,295.5707302093506L509.386975,338.1712646484375L509.739675,142.8323879241943L510.092375,119.16885566711426L510.3569,406.3025236129761L510.445075,283.8002471923828L510.974125,261.00381088256836L511.50317499999994,443.18198919296265L511.679525,269.10187339782715L511.94405,115.87014198303223L515.030175,227.77859115600586L516.0882750000001,356.1335849761963L517.7636,419.82996940612793L517.9399500000001,229.91536903381348L519.35075,240.79460334777832L519.615275,288.17409896850586L519.7916250000001,198.11123657226562L519.8798,377.7563896179199L521.555125,259.7872610092163L523.671325,332.16079330444336L523.93585,409.9737024307251L525.082125,271.353967666626L525.7875250000001,213.2377109527588L526.5811,151.02129364013672L526.845625,384.32213401794434L527.021975,232.39813613891602L527.11015,245.00859832763672L528.3446,342.4098529815674L529.05,214.21099090576172L530.9898499999999,323.77844524383545L531.5189,323.02784729003906L531.783425,356.5551166534424L532.40065,248.62738609313965L533.546925,313.6850366592407L533.723275,375.1526985168457L533.81145,335.3409662246704L534.428675,320.8108606338501L536.015825,374.4566345214844L538.04385,402.2773447036743L538.484725,221.93598747253418L538.5729,237.91545867919922L540.248225,207.32128715515137L540.424575,313.33668422698975L540.953625,356.8121852874756L543.246175,216.11212921142578L543.68705,286.4681854248047L544.8333250000001,179.539529800415L545.186025,278.16808891296387L546.773175,377.5588216781616L547.478575,229.16959762573242L549.5065999999999,329.765344619751L549.7711250000001,299.8150463104248L549.8593000000001,218.97901725769043L550.212,249.13026809692383L550.300175,186.98382568359375L550.652875,204.19548797607422L552.5927250000001,358.88593769073486L554.62075,263.39080810546875L555.767025,276.8107681274414L557.177825,235.21996307373047L558.14775,254.40025520324707L559.5585500000001,268.3737859725952L560.793,278.1280345916748L560.881175,391.6549587249756L561.1456999999999,335.5534944534302L562.644675,305.40582847595215L562.9973749999999,300.0571746826172L564.7608749999999,197.9539031982422L564.937225,214.01820945739746L566.171675,327.5002727508545L566.6125499999999,78.54508209228516L567.847,377.29552459716797L567.935175,197.22126960754395L568.111525,58.156150817871094L568.5524,259.4315586090088L571.0213,231.90178298950195L571.8148749999999,389.8695373535156L572.4321,252.35510158538818L572.7847999999999,372.7504005432129L573.31385,303.07198333740234L573.8429,257.26832485198975L574.283775,341.5100927352905L574.5482999999999,267.8861846923828L574.72465,365.40948486328125L576.047275,205.34568786621094L576.84085,211.21464729309082L577.54625,103.39814758300781L579.045225,235.29766845703125L579.4861,366.692645072937L579.66245,313.7402515411377L580.72055,261.093692779541L580.8969000000001,165.96447944641113L581.42595,69.78644371032715L582.48405,178.74377059936523L582.924925,214.45544242858887L583.806675,259.91249084472656L584.688425,148.81758499145505L586.1873999999999,193.9435043334961L587.157325,68.63408088684082L587.333675,219.4874267578125L587.686375,270.3082094192505L589.009,178.61447525024417L592.624175,164.3664321899414L592.8887,216.5060634613037L593.2414,290.9982490539551L594.47585,287.7949848175049L595.445775,119.34309196472168L596.063,62.033729553222656L597.561975,346.82113552093506L597.8265,104.36485862731934L598.267375,243.51445198059082L598.70825,229.10911560058594L599.2373,258.9891986846924L600.2954,251.81298637390137L600.383575,297.35943603515625L601.88255,155.52508163452148L602.147075,104.16302490234375L602.7642999999999,135.7693691253662L605.145025,289.45649814605713L605.321375,394.8137626647949L605.9386000000001,371.93371295928955L606.8203500000001,345.88514614105225L607.5257499999999,236.77294921875L607.7021000000001,179.70086860656738L608.3193249999999,202.25661849975586L609.1129,182.92155647277832L609.99465,273.7285680770874L610.082825,259.82367038726807L610.964575,144.97789764404297L611.317275,276.6746635437012L611.40545,111.15282440185547L613.080775,349.1014680862427L613.52165,273.08331298828125L613.698,305.76139068603516L614.0507,156.33189582824707L614.844275,156.31026649475098L616.4314250000001,144.4672451019287L618.1949249999999,274.2683801651001L618.6358,250.85132217407227L619.429375,244.74632263183594L619.9584249999999,315.952431678772L620.0466,236.20662117004395L620.134775,182.37365341186526L620.3993,295.8252754211426L620.663825,227.15466499328613L622.603675,368.78662490844727L624.10265,95.2650375366211L624.190825,373.5108919143677L624.543525,100.09046173095703L624.9843999999999,95.67403221130371L625.601625,133.2586441040039L626.3952,166.51951217651367L626.57155,291.5098829269409L627.4533,226.91229629516602L627.98235,337.45148849487305L628.1587000000001,382.4882469177246L628.6877499999999,310.4531936645508L628.8641,301.4854917526245L629.0404500000001,336.92521476745605L630.09855,346.2669439315796L630.2749,302.48058128356934L630.45125,177.23860931396484L632.479275,304.1249113082886L633.27285,210.93078231811523L633.537375,320.17906379699707L634.948175,218.14288330078125L635.829925,241.82972717285156L635.9181,233.89316368103027L636.09445,221.0562744140625L636.6234999999999,324.5939311981201L637.15255,218.69767570495605L637.7697750000001,189.13558387756348L638.21065,229.69058418273926L638.8278750000001,345.6382112503052L639.3569249999999,311.27186393737793L640.5032,222.26763725280762L642.79575,217.99155807495117L644.55925,302.96453762054443L644.823775,273.4370527267456L645.176475,296.6437454223633L645.26465,301.8910217285156L645.881875,280.26270961761475L647.38085,168.5522689819336L648.350775,161.90557479858398L649.3207000000001,249.06457901000977L649.937925,301.22732162475586L650.466975,294.0088119506836L652.583175,264.4552116394043L656.7274,211.3136215209961L657.4328,202.97439193725586L657.7855,302.4506006240845L658.931775,170.7740020751953L659.9017,353.44263553619385L660.2544,102.83121871948242L660.9598000000001,327.99410247802734L661.0479750000001,332.6221590042114L661.400675,319.30257511138916L662.19425,370.6652727127075L662.282425,173.53542709350586L663.164175,334.67290019989014L663.25235,97.81365394592285L663.340525,317.5480556488037L664.045925,275.5021734237671L665.809425,338.2289228439331L667.925625,257.30096912384033L668.278325,369.5862693786621L668.454675,289.83805561065674L668.5428499999999,267.69834995269775L668.807375,237.6657199859619L669.60095,315.7583284378052L669.689125,142.01543998718262L670.4827,296.76521015167236L670.7472250000001,346.67115211486816L671.6289750000001,363.6943588256836L672.06985,256.0375556945801L675.24415,244.71812438964844L676.037725,267.3316125869751L676.214075,387.14488220214844L676.566775,191.60309028625488L677.095825,282.44072341918945L677.36035,185.03045654296878L677.977575,142.21455001831055L678.2421,209.92938423156738L678.682975,300.5828275680542L678.9475,283.04245948791504L679.6529,345.5516138076782L680.0056,280.7080936431885L680.3583,162.78961372375488L681.24005,171.4577693939209L681.3282250000001,336.9536933898926L682.386325,332.73144721984863L682.739025,287.6231517791748L683.35625,328.65229511260986L683.70895,313.6864986419678L684.678875,261.79101848602295L685.7369749999999,411.9325590133667L687.147775,324.0670166015625L689.35215,275.9581117630005L690.674775,222.38808059692383L691.909225,144.82961654663086L692.261925,346.2755756378174L692.6146249999999,308.98291969299316L693.320025,305.6253261566162L693.8490750000001,324.24621963500977L693.9372500000001,341.4116792678833L695.4362249999999,326.92347049713135L696.2298,377.1510486602783L696.75885,192.12696075439453L697.46425,289.0661087036133L697.728775,251.5602035522461L699.668625,219.96299171447754L699.93315,348.3885612487793L701.1676,255.407621383667L701.5203,296.6053533554077L702.2257,226.9811496734619L702.490225,307.40848445892334L703.019275,217.7347297668457L704.6064250000001,230.9739646911621L704.782775,262.68531131744385L706.3699250000001,309.0848379135132L706.546275,329.81088638305664L706.8108,209.90927696228027L708.133425,265.4263286590576L708.39795,302.4909954071045L708.75065,262.0899238586426L709.367875,234.80003356933594L710.51415,346.5053472518921L711.0432,197.8260498046875L712.27765,217.57935905456543L713.3357500000001,340.26842880249023L713.9529749999999,272.93895721435547L714.658375,311.54903984069824L715.363775,161.97118377685547L715.45195,243.28369903564453L715.892825,207.13639640808105L716.245525,171.29318618774414L717.3918,266.79907035827637L717.7444999999999,182.2334632873535L718.97895,227.6510181427002L720.03705,267.22616958618164L720.125225,198.85204124450684L720.74245,197.00986289978027L721.44785,283.874888420105L721.9769,293.1940870285034L722.50595,419.5906448364258L723.1231750000001,283.8782329559326L723.299525,270.8900785446167L724.0931,240.30261611938477L724.26945,383.30555534362793L724.357625,331.7523994445801L726.03295,351.76409912109375L726.297475,422.394006729126L727.09105,250.07839393615723L728.2373249999999,180.63565635681152L729.2072499999999,72.43860054016113L729.471775,240.47436904907227L730.353525,391.5473527908325L731.764325,302.1565217971802L732.73425,409.0164442062378L734.3214,367.863112449646L735.2031499999999,366.22058486938477L735.291325,244.79150390625L735.7322,191.59768295288086L735.820375,141.45932579040527L736.4376000000001,156.48838806152347L736.7903,141.08986473083496L736.878475,87.84881973266602L736.96665,227.88765907287598L738.2892750000001,143.7066535949707L738.9064999999999,142.68046188354492L738.9946749999999,322.6103210449219L739.347375,251.05744171142578L739.523725,231.9301414489746L740.3173,331.5484027862549L740.67,301.8297185897827L740.934525,247.21683311462402L743.227075,218.23004150390625L743.31525,353.8424777984619L744.108825,259.3296604156494L744.37335,301.66098976135254L744.72605,310.6253671646118L744.990575,301.2774295806885L745.8723249999999,140.88506698608398L745.9605,272.5832748413086L746.048675,273.97346019744873L746.13685,324.211332321167L746.577725,392.51734828948975L747.1067750000001,223.62371635437012L747.459475,275.90277671813965L747.635825,301.1839828491211L749.0466250000001,353.4372682571411L749.5756749999999,332.7523555755615L749.6638499999999,301.50205421447754L750.36925,356.0229949951172L750.8983000000001,358.53666400909424L752.044575,387.0640926361084L752.6618,307.7853355407715L753.54355,248.7209930419922L755.1307,252.06528854370117L755.8361,274.0513858795166L757.8641250000001,292.9819793701172L758.48135,292.9141273498535L759.0104,351.5862579345703L759.2749249999999,253.6534423828125L762.00835,333.9839057922363L762.0965249999999,400.58488941192627L763.507325,278.9099349975586L763.5955,376.81389141082764L764.47725,207.75351333618164L764.741775,265.0443305969238L764.918125,296.64090156555176L765.88805,313.5025291442871L766.4171,273.3425045013428L766.681625,111.79325294494629L767.034325,293.8855848312378L768.4451250000001,296.39939403533936L768.621475,187.1339092254639L768.70965,185.42587280273438L769.0623499999999,247.1440944671631L769.3268750000001,216.40961265563965L769.503225,333.4734935760498L770.737675,310.3199529647827L771.090375,335.1938066482544L772.0603,147.68396759033203L772.324825,342.70975971221924L774.088325,270.94743633270264L774.793725,344.7737789154053L775.675475,309.26776599884033L775.76365,289.15288639068604L776.733575,374.4867353439331L778.7615999999999,330.266884803772L779.202475,198.5998992919922L780.70145,287.73474311828613L782.7294750000001,140.27764320373535L782.905825,179.68564796447754L784.58115,405.6672019958496L784.6693250000001,417.983585357666L785.022025,320.6318778991699L785.374725,236.1416530609131L786.961875,130.7944622039795L787.4909250000001,205.8734836578369L787.5791,304.78865146636963L791.2824499999999,389.72474098205566L791.98785,352.77276706695557L792.69325,224.27191543579102L792.781425,309.77543449401855L794.2804,292.4691638946533L794.9857999999999,309.42139434814453L795.426675,322.4143953323364L795.779375,396.69815826416016L796.7493,331.6720905303955L797.8074,274.2722053527832L798.071925,348.6668586730957L798.248275,130.8658390045166L798.600975,416.2610893249512L799.306375,112.76977729797363L802.7452,264.2129430770874L804.596875,235.37945938110352L805.125925,271.89259815216064L805.2141,162.31873512268066L805.39045,364.1996841430664L806.713075,175.74390220642093L807.3303,283.0680341720581L809.358325,280.4804849624634L809.534675,412.01352882385254L809.711025,387.31537342071533L810.6809499999999,160.14382553100586L810.945475,289.91073417663574L812.44445,250.31267166137695L812.9735000000001,132.8554172515869L814.119775,331.86791610717773L815.883275,325.7281894683838L816.6768500000001,218.3308982849121L817.9113,356.5579605102539L818.0876499999999,334.0639944076538L818.264,271.83413887023926L819.0575749999999,208.38072395324707L819.85115,304.56937408447266L820.55655,157.23964691162112L822.32005,321.9383296966553L822.4964,344.1153259277344L822.760925,331.12038230895996L822.937275,290.87167739868164L823.466325,137.5572338104248L824.5244250000001,308.4134473800659L824.6126,322.66311264038086L825.229825,250.70977020263672L825.49435,357.74122524261475L825.935225,192.97198677062988L826.55245,373.58014583587646L826.7288,346.43571281433105L828.1396000000001,176.89354133605954" style="fill: none;" fill="none"></path></g></g></g></g></g></g><g transform="translate(34, 378)" clip-path="url(#clip_1)"><clipPath id="clip_1"><rect width="881" height="22"></rect></clipPath><g><g><line x1="0" y1="0" x2="0" y2="5" style="visibility: inherit;" fill="rgb(0, 0, 0)" stroke="rgb(204, 204, 204)" stroke-width="1px"></line><line x1="88.17500000000001" y1="0" x2="88.17500000000001" y2="5" style="visibility: inherit;" fill="rgb(0, 0, 0)" stroke="rgb(204, 204, 204)" stroke-width="1px"></line><line x1="176.35000000000002" y1="0" x2="176.35000000000002" y2="5" style="visibility: inherit;" fill="rgb(0, 0, 0)" stroke="rgb(204, 204, 204)" stroke-width="1px"></line><line x1="264.525" y1="0" x2="264.525" y2="5" style="visibility: inherit;" fill="rgb(0, 0, 0)" stroke="rgb(204, 204, 204)" stroke-width="1px"></line><line x1="352.70000000000005" y1="0" x2="352.70000000000005" y2="5" style="visibility: inherit;" fill="rgb(0, 0, 0)" stroke="rgb(204, 204, 204)" stroke-width="1px"></line><line x1="440.875" y1="0" x2="440.875" y2="5" style="visibility: inherit;" fill="rgb(0, 0, 0)" stroke="rgb(204, 204, 204)" stroke-width="1px"></line><line x1="529.05" y1="0" x2="529.05" y2="5" style="visibility: inherit;" fill="rgb(0, 0, 0)" stroke="rgb(204, 204, 204)" stroke-width="1px"></line><line x1="617.2249999999999" y1="0" x2="617.2249999999999" y2="5" style="visibility: inherit;" fill="rgb(0, 0, 0)" stroke="rgb(204, 204, 204)" stroke-width="1px"></line><line x1="705.4000000000001" y1="0" x2="705.4000000000001" y2="5" style="visibility: inherit;" fill="rgb(0, 0, 0)" stroke="rgb(204, 204, 204)" stroke-width="1px"></line><line x1="793.575" y1="0" x2="793.575" y2="5" style="visibility: inherit;" fill="rgb(0, 0, 0)" stroke="rgb(204, 204, 204)" stroke-width="1px"></line><line x1="881.75" y1="0" x2="881.75" y2="5" style="visibility: inherit;" fill="rgb(0, 0, 0)" stroke="rgb(204, 204, 204)" stroke-width="1px"></line></g><g transform="translate(0, 8)"><text x="0" y="0" dx="0em" dy="0.95em" style="text-anchor: middle; visibility: hidden; font-family: &quot;Helvetica Neue&quot;, sans-serif; font-size: 12px; font-weight: 200;" fill="rgb(50, 49, 63)" stroke="none" stroke-width="1px">-100k</text><text x="88.17500000000001" y="0" dx="0em" dy="0.95em" style="text-anchor: middle; visibility: inherit; font-family: &quot;Helvetica Neue&quot;, sans-serif; font-size: 12px; font-weight: 200;" fill="rgb(50, 49, 63)" stroke="none" stroke-width="1px">0</text><text x="176.35000000000002" y="0" dx="0em" dy="0.95em" style="text-anchor: middle; visibility: inherit; font-family: &quot;Helvetica Neue&quot;, sans-serif; font-size: 12px; font-weight: 200;" fill="rgb(50, 49, 63)" stroke="none" stroke-width="1px">100k</text><text x="264.525" y="0" dx="0em" dy="0.95em" style="text-anchor: middle; visibility: inherit; font-family: &quot;Helvetica Neue&quot;, sans-serif; font-size: 12px; font-weight: 200;" fill="rgb(50, 49, 63)" stroke="none" stroke-width="1px">200k</text><text x="352.70000000000005" y="0" dx="0em" dy="0.95em" style="text-anchor: middle; visibility: inherit; font-family: &quot;Helvetica Neue&quot;, sans-serif; font-size: 12px; font-weight: 200;" fill="rgb(50, 49, 63)" stroke="none" stroke-width="1px">300k</text><text x="440.875" y="0" dx="0em" dy="0.95em" style="text-anchor: middle; visibility: inherit; font-family: &quot;Helvetica Neue&quot;, sans-serif; font-size: 12px; font-weight: 200;" fill="rgb(50, 49, 63)" stroke="none" stroke-width="1px">400k</text><text x="529.05" y="0" dx="0em" dy="0.95em" style="text-anchor: middle; visibility: inherit; font-family: &quot;Helvetica Neue&quot;, sans-serif; font-size: 12px; font-weight: 200;" fill="rgb(50, 49, 63)" stroke="none" stroke-width="1px">500k</text><text x="617.2249999999999" y="0" dx="0em" dy="0.95em" style="text-anchor: middle; visibility: inherit; font-family: &quot;Helvetica Neue&quot;, sans-serif; font-size: 12px; font-weight: 200;" fill="rgb(50, 49, 63)" stroke="none" stroke-width="1px">600k</text><text x="705.4000000000001" y="0" dx="0em" dy="0.95em" style="text-anchor: middle; visibility: inherit; font-family: &quot;Helvetica Neue&quot;, sans-serif; font-size: 12px; font-weight: 200;" fill="rgb(50, 49, 63)" stroke="none" stroke-width="1px">700k</text><text x="793.575" y="0" dx="0em" dy="0.95em" style="text-anchor: middle; visibility: inherit; font-family: &quot;Helvetica Neue&quot;, sans-serif; font-size: 12px; font-weight: 200;" fill="rgb(50, 49, 63)" stroke="none" stroke-width="1px">800k</text><text x="881.75" y="0" dx="0em" dy="0.95em" style="text-anchor: middle; visibility: hidden; font-family: &quot;Helvetica Neue&quot;, sans-serif; font-size: 12px; font-weight: 200;" fill="rgb(50, 49, 63)" stroke="none" stroke-width="1px">900k</text></g><line x1="0" y1="0" x2="881.75" y2="0" fill="rgb(0, 0, 0)" stroke="rgb(204, 204, 204)" stroke-width="1px"></line></g></g></g></g></svg>