<svg viewBox="0 0 915.75 400" xmlns="http://www.w3.org/2000/svg"><g><g><g><g><g><line x1="58" y1="378" x2="53" y2="378" style="visibility: inherit;" fill="rgb(0, 0, 0)" stroke="rgb(204, 204, 204)" stroke-width="1px"></line><line x1="58" y1="348.9230769230769" x2="53" y2="348.9230769230769" style="visibility: inherit;" fill="rgb(0, 0, 0)" stroke="rgb(204, 204, 204)" stroke-width="1px"></line><line x1="58" y1="319.8461538461538" x2="53" y2="319.8461538461538" style="visibility: inherit;" fill="rgb(0, 0, 0)" stroke="rgb(204, 204, 204)" stroke-width="1px"></line><line x1="58" y1="290.7692307692307" x2="53" y2="290.7692307692307" style="visibility: inherit;" fill="rgb(0, 0, 0)" stroke="rgb(204, 204, 204)" stroke-width="1px"></line><line x1="58" y1="261.6923076923076" x2="53" y2="261.6923076923076" style="visibility: inherit;" fill="rgb(0, 0, 0)" stroke="rgb(204, 204, 204)" stroke-width="1px"></line><line x1="58" y1="232.61538461538447" x2="53" y2="232.61538461538447" style="visibility: inherit;" fill="rgb(0, 0, 0)" stroke="rgb(204, 204, 204)" stroke-width="1px"></line><line x1="58" y1="203.53846153846138" x2="53" y2="203.53846153846138" style="visibility: inherit;" fill="rgb(0, 0, 0)" stroke="rgb(204, 204, 204)" stroke-width="1px"></line><line x1="58" y1="174.4615384615383" x2="53" y2="174.4615384615383" style="visibility: inherit;" fill="rgb(0, 0, 0)" stroke="rgb(204, 204, 204)" stroke-width="1px"></line><line x1="58" y1="145.38461538461522" x2="53" y2="145.38461538461522" style="visibility: inherit;" fill="rgb(0, 0, 0)" stroke="rgb(204, 204, 204)" stroke-width="1px"></line><line x1="58" y1="116.3076923076921" x2="53" y2="116.3076923076921" style="visibility: inherit;" fill="rgb(0, 0, 0)" stroke="rgb(204, 204, 204)" stroke-width="1px"></line><line x1="58" y1="87.23076923076894" x2="53" y2="87.23076923076894" style="visibility: inherit;" fill="rgb(0, 0, 0)" stroke="rgb(204, 204, 204)" stroke-width="1px"></line><line x1="58" y1="58.15384615384585" x2="53" y2="58.15384615384585" style="visibility: inherit;" fill="rgb(0, 0, 0)" stroke="rgb(204, 204, 204)" stroke-width="1px"></line><line x1="58" y1="29.076923076923094" x2="53" y2="29.076923076923094" style="visibility: inherit;" fill="rgb(0, 0, 0)" stroke="rgb(204, 204, 204)" stroke-width="1px"></line><line x1="58" y1="0" x2="53" y2="0" style="visibility: inherit;" fill="rgb(0, 0, 0)" stroke="rgb(204, 204, 204)" stroke-width="1px"></line></g><g transform="translate(48, 0)"><text x="0" y="378" dx="0em" dy="0.3em" style="text-anchor: end; visibility: hidden; font-family: &quot;Helvetica Neue&quot;, sans-serif; font-size: 12px; font-weight: 200;" fill="rgb(50, 49, 63)" stroke="none" stroke-width="1px">1.14</text><text x="0" y="348.9230769230769" dx="0em" dy="0.3em" style="text-anchor: end; visibility: inherit; font-family: &quot;Helvetica Neue&quot;, sans-serif; font-size: 12px; font-weight: 200;" fill="rgb(50, 49, 63)" stroke="none" stroke-width="1px">1.16</text><text x="0" y="319.8461538461538" dx="0em" dy="0.3em" style="text-anchor: end; visibility: inherit; font-family: &quot;Helvetica Neue&quot;, sans-serif; font-size: 12px; font-weight: 200;" fill="rgb(50, 49, 63)" stroke="none" stroke-width="1px">1.18</text><text x="0" y="290.7692307692307" dx="0em" dy="0.3em" style="text-anchor: end; visibility: inherit; font-family: &quot;Helvetica Neue&quot;, sans-serif; font-size: 12px; font-weight: 200;" fill="rgb(50, 49, 63)" stroke="none" stroke-width="1px">1.2</text><text x="0" y="261.6923076923076" dx="0em" dy="0.3em" style="text-anchor: end; visibility: inherit; font-family: &quot;Helvetica Neue&quot;, sans-serif; font-size: 12px; font-weight: 200;" fill="rgb(50, 49, 63)" stroke="none" stroke-width="1px">1.22</text><text x="0" y="232.61538461538447" dx="0em" dy="0.3em" style="text-anchor: end; visibility: inherit; font-family: &quot;Helvetica Neue&quot;, sans-serif; font-size: 12px; font-weight: 200;" fill="rgb(50, 49, 63)" stroke="none" stroke-width="1px">1.24</text><text x="0" y="203.53846153846138" dx="0em" dy="0.3em" style="text-anchor: end; visibility: inherit; font-family: &quot;Helvetica Neue&quot;, sans-serif; font-size: 12px; font-weight: 200;" fill="rgb(50, 49, 63)" stroke="none" stroke-width="1px">1.26</text><text x="0" y="174.4615384615383" dx="0em" dy="0.3em" style="text-anchor: end; visibility: inherit; font-family: &quot;Helvetica Neue&quot;, sans-serif; font-size: 12px; font-weight: 200;" fill="rgb(50, 49, 63)" stroke="none" stroke-width="1px">1.28</text><text x="0" y="145.38461538461522" dx="0em" dy="0.3em" style="text-anchor: end; visibility: inherit; font-family: &quot;Helvetica Neue&quot;, sans-serif; font-size: 12px; font-weight: 200;" fill="rgb(50, 49, 63)" stroke="none" stroke-width="1px">1.3</text><text x="0" y="116.3076923076921" dx="0em" dy="0.3em" style="text-anchor: end; visibility: inherit; font-family: &quot;Helvetica Neue&quot;, sans-serif; font-size: 12px; font-weight: 200;" fill="rgb(50, 49, 63)" stroke="none" stroke-width="1px">1.32</text><text x="0" y="87.23076923076894" dx="0em" dy="0.3em" style="text-anchor: end; visibility: inherit; font-family: &quot;Helvetica Neue&quot;, sans-serif; font-size: 12px; font-weight: 200;" fill="rgb(50, 49, 63)" stroke="none" stroke-width="1px">1.34</text><text x="0" y="58.15384615384585" dx="0em" dy="0.3em" style="text-anchor: end; visibility: inherit; font-family: &quot;Helvetica Neue&quot;, sans-serif; font-size: 12px; font-weight: 200;" fill="rgb(50, 49, 63)" stroke="none" stroke-width="1px">1.36</text><text x="0" y="29.076923076923094" dx="0em" dy="0.3em" style="text-anchor: end; visibility: inherit; font-family: &quot;Helvetica Neue&quot;, sans-serif; font-size: 12px; font-weight: 200;" fill="rgb(50, 49, 63)" stroke="none" stroke-width="1px">1.38</text><text x="0" y="0" dx="0em" dy="0.3em" style="text-anchor: end; visibility: hidden; font-family: &quot;Helvetica Neue&quot;, sans-serif; font-size: 12px; font-weight: 200;" fill="rgb(50, 49, 63)" stroke="none" stroke-width="1px">1.4</text></g><line x1="58" y1="0" x2="58" y2="378" fill="rgb(0, 0, 0)" stroke="rgb(204, 204, 204)" stroke-width="1px"></line></g></g><g transform="translate(58, 0)" clip-path="url(#clip_0)"><clipPath id="clip_0"><rect width="857" height="378"></rect></clipPath><g><g><g><line x1="0" y1="0" x2="0" y2="378" fill="rgb(0, 0, 0)" stroke="rgb(60, 60, 60)" stroke-width="1px" opacity="0.25"></line><line x1="85.775" y1="0" x2="85.775" y2="378" fill="rgb(0, 0, 0)" stroke="rgb(60, 60, 60)" stroke-width="1px" opacity="0.25"></line><line x1="171.55" y1="0" x2="171.55" y2="378" fill="rgb(0, 0, 0)" stroke="rgb(60, 60, 60)" stroke-width="1px" opacity="0.25"></line><line x1="257.325" y1="0" x2="257.325" y2="378" fill="rgb(0, 0, 0)" stroke="rgb(60, 60, 60)" stroke-width="1px" opacity="0.25"></line><line x1="343.1" y1="0" x2="343.1" y2="378" fill="rgb(0, 0, 0)" stroke="rgb(60, 60, 60)" stroke-width="1px" opacity="0.25"></line><line x1="428.875" y1="0" x2="428.875" y2="378" fill="rgb(0, 0, 0)" stroke="rgb(60, 60, 60)" stroke-width="1px" opacity="0.25"></line><line x1="514.65" y1="0" x2="514.65" y2="378" fill="rgb(0, 0, 0)" stroke="rgb(60, 60, 60)" stroke-width="1px" opacity="0.25"></line><line x1="600.425" y1="0" x2="600.425" y2="378" fill="rgb(0, 0, 0)" stroke="rgb(60, 60, 60)" stroke-width="1px" opacity="0.25"></line><line x1="686.2" y1="0" x2="686.2" y2="378" fill="rgb(0, 0, 0)" stroke="rgb(60, 60, 60)" stroke-width="1px" opacity="0.25"></line><line x1="771.975" y1="0" x2="771.975" y2="378" fill="rgb(0, 0, 0)" stroke="rgb(60, 60, 60)" stroke-width="1px" opacity="0.25"></line><line x1="857.75" y1="0" x2="857.75" y2="378" fill="rgb(0, 0, 0)" stroke="rgb(60, 60, 60)" stroke-width="1px" opacity="0.25"></line></g><g><line x1="0" y1="378" x2="857.75" y2="378" fill="rgb(0, 0, 0)" stroke="rgb(60, 60, 60)" stroke-width="1px" opacity="0.25"></line><line x1="0" y1="348.9230769230769" x2="857.75" y2="348.9230769230769" fill="rgb(0, 0, 0)" stroke="rgb(60, 60, 60)" stroke-width="1px" opacity="0.25"></line><line x1="0" y1="319.8461538461538" x2="857.75" y2="319.8461538461538" fill="rgb(0, 0, 0)" stroke="rgb(60, 60, 60)" stroke-width="1px" opacity="0.25"></line><line x1="0" y1="290.7692307692307" x2="857.75" y2="290.7692307692307" fill="rgb(0, 0, 0)" stroke="rgb(60, 60, 60)" stroke-width="1px" opacity="0.25"></line><line x1="0" y1="261.6923076923076" x2="857.75" y2="261.6923076923076" fill="rgb(0, 0, 0)" stroke="rgb(60, 60, 60)" stroke-width="1px" opacity="0.25"></line><line x1="0" y1="232.61538461538447" x2="857.75" y2="232.61538461538447" fill="rgb(0, 0, 0)" stroke="rgb(60, 60, 60)" stroke-width="1px" opacity="0.25"></line><line x1="0" y1="203.53846153846138" x2="857.75" y2="203.53846153846138" fill="rgb(0, 0, 0)" stroke="rgb(60, 60, 60)" stroke-width="1px" opacity="0.25"></line><line x1="0" y1="174.4615384615383" x2="857.75" y2="174.4615384615383" fill="rgb(0, 0, 0)" stroke="rgb(60, 60, 60)" stroke-width="1px" opacity="0.25"></line><line x1="0" y1="145.38461538461522" x2="857.75" y2="145.38461538461522" fill="rgb(0, 0, 0)" stroke="rgb(60, 60, 60)" stroke-width="1px" opacity="0.25"></line><line x1="0" y1="116.3076923076921" x2="857.75" y2="116.3076923076921" fill="rgb(0, 0, 0)" stroke="rgb(60, 60, 60)" stroke-width="1px" opacity="0.25"></line><line x1="0" y1="87.23076923076894" x2="857.75" y2="87.23076923076894" fill="rgb(0, 0, 0)" stroke="rgb(60, 60, 60)" stroke-width="1px" opacity="0.25"></line><line x1="0" y1="58.15384615384585" x2="857.75" y2="58.15384615384585" fill="rgb(0, 0, 0)" stroke="rgb(60, 60, 60)" stroke-width="1px" opacity="0.25"></line><line x1="0" y1="29.076923076923094" x2="857.75" y2="29.076923076923094" fill="rgb(0, 0, 0)" stroke="rgb(60, 60, 60)" stroke-width="1px" opacity="0.25"></line><line x1="0" y1="0" x2="857.75" y2="0" fill="rgb(0, 0, 0)" stroke="rgb(60, 60, 60)" stroke-width="1px" opacity="0.25"></line></g></g></g><g><g><line x1="0" y1="2035.3846153846152" x2="857.75" y2="2035.3846153846152" fill="rgb(0, 0, 0)" stroke="rgb(153, 153, 153)" stroke-width="1.5px"></line></g></g><g><g><line x1="85.775" y1="0" x2="85.775" y2="378" fill="rgb(0, 0, 0)" stroke="rgb(153, 153, 153)" stroke-width="1.5px"></line></g></g><g><g><g><g><g><path style="fill: none;" stroke="rgb(255, 112, 67)" stroke-width="2px" d="M114.9385,-27.615331245969287L115.6247,3.3228526676683714L116.99709999999999,13.77375986584832L117.34020000000001,12.704497143880815L121.97205,15.551546372650193L122.05782500000001,14.369285248535562L123.51599999999999,11.176772165210366L123.77332500000001,9.161218979362616L124.03065000000001,24.02521067075037L125.31727500000001,48.85134457698774L125.5746,59.92484778538994L125.66037499999999,65.5989752354107L126.518125,75.44679135307064L127.9763,78.40725016978712L128.14785,96.05734992465341L129.949125,101.45233893832886L131.4073,98.84748881386321L131.836175,97.75529678707039L134.15210000000002,95.24082127693566L135.00985,99.93011616681088L135.5245,109.04180542002854L135.69605,108.56624894371868L136.12492500000002,117.53294300416746L136.2107,105.47701603976662L137.497325,109.03173999263305L139.04127499999998,125.86114424395328L139.212825,134.63762409532492L140.24212500000002,131.539165086924L140.84255000000002,131.83903369847252L140.928325,137.45634396993546L141.099875,131.5533867983353L141.3572,106.44480827351185L141.52875,105.83819478665134L142.55804999999998,81.42984660158311L143.4158,89.68814920880914L144.4451,93.90623367524029L144.873975,108.23816931376194L147.104125,115.44098130309624L147.447225,99.78739464160464L147.790325,114.21835065120212L147.8761,123.96559275416465L148.476525,121.20894894333486L149.24849999999998,131.29718888451544L149.5916,120.19958333703573L149.93470000000002,115.98729620185765L150.363575,108.66008387542138L150.706675,101.44926945449379L151.47865000000002,105.80650284246417L151.82174999999998,103.5284205526167L151.9933,105.54877457900642L152.16485,84.33623527064009L152.765275,66.79086354842855L153.19415,77.42319719618729L153.36569999999998,87.6925377522436L153.79457499999998,91.52805638654809L153.966125,88.80580811768846L154.309225,93.97340311983066L154.652325,94.81940511021634L155.166975,83.50891212550863L155.25275,77.5165826985018L157.225575,86.84825032585599L157.568675,83.70272857536264L160.39925,71.8443576310903L160.999675,73.76485688093175L161.51432499999999,64.78520842558953L162.71517500000002,63.82882073881234L163.05827499999998,81.84340332745518L163.6587,78.62728635416858L163.83025,89.40594157015954L164.3449,102.63924748734371L164.51645,95.47813325433543L165.71730000000002,92.17429564888585L165.803075,92.70319538672896L166.660825,91.38308427892565L166.91815,108.9833739574724L167.690125,131.29101896332656L168.033225,127.3290020063277L168.376325,130.1545129484988L169.14829999999998,132.52658253392903L169.234075,140.96731151261645L169.748725,132.08327879878883L169.83450000000002,136.98507145281133L170.263375,121.21686539258133L171.292675,121.34672705932945L171.807325,131.3852246917281L172.06465,143.24993773140775L172.836625,147.8074021499005L175.409875,144.54426047479473L176.52495000000002,129.0262934604976L177.0396,102.59535297040475L177.296925,105.34306229912829L177.468475,107.25015268362472L177.811575,110.45126449380365L178.326225,130.11174333420283L178.7551,142.99772766256248L179.61285,149.21808424143194L180.1275,154.1409026256299L180.556375,161.47583730969572L181.41412499999998,166.338974398267L181.843,165.23121493106257L185.016675,165.30689461925888L185.35977499999998,159.05942819109836L185.44555,159.85901240490787L185.53132499999998,170.2541295325683L187.07527499999998,174.10823816023995L188.10457499999998,176.94762233149288L188.19035000000002,169.97161725161087L188.705,156.2699128011046L189.305425,150.62016418607863L191.535575,151.35551987562465L192.564875,134.30558113936152L193.5084,142.28201956295928L193.765725,145.05347245980397L194.02305,146.97784348742164L195.73854999999998,141.27347976564695L196.2532,131.3969393247696L196.85362500000002,138.03146912546194L197.368275,135.2139817327906L198.74067499999998,141.88500893283637L198.99800000000002,127.34934912950001L199.941525,129.6199239416587L200.19885,130.34114017033L200.456175,138.64060673281153L200.54195,128.67055693657116L204.65915,133.69668304524006L204.916475,130.3732368812375L205.1738,165.68498279652835L205.259575,176.98881355840365L207.146625,171.18674482662624L208.175925,169.43904279968766L208.347475,161.92981200536173L208.690575,171.95533023569894L209.033675,161.4078915394584L209.376775,179.5548164688435L211.52115,183.81150266935046L211.606925,179.16421999640923L212.55044999999998,175.77933394339325L213.23665,176.22595258797045L213.57975,177.06389295629774L213.75130000000001,183.14843953025903L215.209475,190.4408928604953L216.4961,196.77860464324343L216.83920000000003,197.14599243324622L218.98357500000003,185.32182250040782L220.355975,174.63634296578184L220.44175,182.39627590210253L221.728375,168.4590519714917L222.07147500000002,171.044108100727L223.44387500000002,173.66298391100818L223.52965,177.90246940043647L224.64472500000002,165.6461289924427L225.4167,161.0089011170894L225.84557499999997,155.06591550543448L226.27444999999997,154.44098478170955L226.531775,137.9465672220896L226.96065000000002,114.47387904926609L227.21797500000002,109.10308946801513L228.247275,126.90251795838077L228.93347500000002,144.08537750672923L229.53390000000002,158.65113790217407L230.134325,173.99311766072242L230.9063,176.91028737770532L231.2494,184.69612127902744L231.335175,193.11477245663872L231.42094999999998,169.26690991471474L231.5925,175.29755883743292L231.84982499999998,186.24434911910248L232.45025,183.53103078749342L233.22222499999998,178.13336466954715L234.079975,165.7161170910166L234.42307499999998,160.35316568903508L234.594625,160.46825753486408L234.85195,170.26819414808102L235.280825,178.22727922731266L235.53815,184.9174527774385L235.62392499999999,184.98069813976218L235.7097,188.02376682866006L237.339425,189.78484117948193L238.1114,203.33566492431524L238.62605,214.96885298010574L239.226475,216.70605214177397L239.31225000000003,192.56279122495263L240.08422499999998,196.79555579718195L240.68465,202.11887195141645L242.485925,208.40411760834112L242.82902500000003,213.53993225106686L243.686775,211.03327229197077L244.02987499999998,208.96890937086937L244.80185,211.01632528433075L245.91692500000002,213.20763395949294L246.17424999999997,223.13190208586656L246.68890000000002,220.6709425910964L246.86045000000001,220.4251282978918L249.7768,224.07249583931755L250.29145,222.12834965973965L251.74962499999998,217.24392454881675L251.921175,221.74142821059382L252.607375,208.63616682757757L252.8647,208.03949906483803L253.03625,205.5129806830263L254.58020000000002,212.6492953684854L255.78105000000002,211.18292182931768L255.9526,216.3440999984784L257.49655,222.54496454833333L257.83965,225.25217823478357L258.52585,227.85868959232596L259.984025,223.86583792875044L260.49867500000005,230.24952941694968L262.557275,219.63848286603235L263.58657500000004,212.76350719549438L263.67235,218.24768885512552L263.929675,210.33609619435515L264.01545,210.11013416995755L264.187,212.04528204145103L264.35855,226.43652232572887L264.70165,218.20768047553193L265.04475,203.85959064912564L265.47362499999997,205.56571149875083L265.645175,199.98927703680127L266.93179999999995,203.62589363320828L269.84815,212.9263788183331L270.19125,201.07839738190893L270.3628,201.8139075039841L270.791675,201.22819376258053L271.56365,219.04128771070148L272.59295000000003,229.11384426189068L273.4507,236.86190488308807L273.62225,229.73207143004242L273.7938,216.96902236001313L273.879575,196.3223247861725L274.222675,198.18585773683313L274.48,205.81171069574177L275.1662,215.13037565287794L275.5093,208.01856081176746L276.71015,194.58700757279794L277.2248,197.91202279722282L277.65367499999996,201.4478001913279L277.73945,197.36770848795229L277.911,187.07075868070137L278.168325,195.1678204827097L278.339875,180.2357153603877L278.511425,179.59745199833532L278.5972,184.34416030526566L279.197625,185.22302676451565L279.45495,181.34408096150253L279.883825,182.56309440671308L281.51355,188.3760251326328L282.3713,175.20300641242164L282.88595,185.86268049220868L283.4006,185.69594244954283L283.7437,190.32523300351926L284.773,181.78633682956686L284.858775,178.01927259522756L287.00315,180.2418481449361L287.775125,175.9925366054651L289.2333,178.52858409472722L290.77725000000004,186.8048132434141L290.863025,203.39195152890616L291.034575,205.03201019995606L291.89232499999997,207.95731500412288L292.235425,223.7271191040799L293.86515,229.91043422094876L294.808675,231.94564231666357L295.494875,234.30057576272682L296.009525,241.74299830381202L296.0953,237.275936395659L296.26685,240.739139424806L296.4384,234.56142267297707L296.867275,231.79497187589882L299.01165000000003,232.09885108126008L299.097425,232.83789297215287L299.955175,225.161820327001L300.12672499999996,221.55427200325448L300.55559999999997,226.06079733518436L301.75645000000003,239.32991697461784L302.2711,246.64190480543598L303.043075,250.18574825339687L304.3297,255.79568228930543L304.6728,255.62273335241363L304.84435,256.8652736039211L305.959425,242.38276179194153L306.988725,247.58423036034932L308.01802499999997,246.00566246925544L308.10380000000004,244.44370211407113L308.875775,238.73222727696177L309.390425,241.06493863364446L310.8486,243.7954423893222L311.36325,243.45229569921213L311.449025,240.21092120732789L312.135225,240.89727324089444L312.649875,233.1993259081014L313.16452499999997,236.7151604213671L313.5934,242.51711563563302L315.56622500000003,252.42484963296545L316.16665,256.54086076708734L316.595525,253.9070268448022L317.7106,255.01799778538754L318.311025,242.12452576240986L319.59765,244.75428749542112L320.62695,248.24526112983037L320.884275,254.5976029420508L322.085125,246.46491800088106L322.1709,249.82503696111485L322.34245000000004,258.309632179663L325.08725,254.5666067202161L325.173025,253.362619600781L325.2588,254.67212283522895L325.85922500000004,249.66915781510076L326.80275,265.00934036724266L328.089375,270.47242254797015L328.51825,259.7754347371487L331.0915,251.8256149059298L332.206575,243.63523805431402L332.97855,251.78677586578024L333.750525,242.98999948837323L334.265175,243.7046166149425L334.608275,228.26223774969176L336.06645,231.67955675596528L336.238,238.46987790238563L336.323775,231.64458977912375L337.353075,228.0654610857702L338.897025,233.2485931583279L340.35519999999997,244.4754710409581L341.0414,253.17522760979955L343.01422499999995,263.1738691406414L343.7862,252.50284744730732L343.95775000000003,254.1965284677226L344.1293,221.75790039975675L344.4724,216.17949033766754L344.558175,233.71583775708336L345.50169999999997,243.30292490930313L345.759025,237.24673635332124L346.445225,236.3044615287424L346.70255000000003,237.67820428026357L347.474525,238.82373995466693L348.76115,241.02412722854967L349.10425,248.10792394592602L349.2758,253.75177384717097L350.562425,246.83096217439942L351.67749999999995,251.6672302222546L353.650325,243.31360858338496L354.93695,237.86285688891778L355.022725,233.03118457385582L355.62315,242.52375447052216L356.052025,239.79404247004314L356.4809,239.7035992814356L356.82399999999996,236.16247759932946L356.99555000000004,242.51173377044185L358.36795,236.29604841202033L359.9119,244.15697149410886L359.997675,242.42407076794973L360.5981,240.294177086611L360.855425,239.80879495939178L362.914025,246.39139767463888L363.17135,246.6244870798081L363.771775,244.94903195976124L364.02909999999997,253.19593442726074L364.114875,257.9701477648364L364.286425,268.0504294361066L364.3722,265.66754181772535L366.0877,257.65983377603646L366.516575,261.32782385753L367.28855000000004,259.8597642261822L369.34715,255.2204702787273L370.03335,245.12234256179107L371.2342,234.47194952573406L371.319975,245.0296578529786L371.74885,249.14771108262607L372.77815,249.6282246637533L375.265625,254.71920857566897L375.43717499999997,259.02259909643413L375.608725,261.4828980651759L376.294925,255.5508460971099L377.7531,257.14787492505144L378.181975,243.82075439157538L380.069025,248.0856254376437L380.32635,240.2140303401331L380.755225,227.7035436859016L381.35564999999997,236.3455015498422L381.69875,235.09667377527614L381.8703,233.18017315254434L382.38495,231.712933500007L382.470725,235.8696305718883L382.98537500000003,242.00995414694384L383.5858,251.33902188456267L384.10044999999997,263.0755110466325L384.357775,261.7164463801339L385.81595,266.3578011923637L386.84525,255.80615499159623L387.102575,248.21156427564435L387.70300000000003,261.99050462401516L389.0754,270.2648890133334L389.24694999999997,254.67354449975875L389.76160000000004,253.51416745107616L390.1047,237.85730567678303L390.27625,247.3060373703048L391.47709999999995,232.6369420320637L392.935275,244.2333936728034L394.650775,248.71622349996457L396.194725,244.254636430049L396.36627500000003,246.83272320648476L396.537825,238.24970281724669L396.79515000000004,238.95193224402033L397.05247499999996,234.21648443772654L398.51065,237.34566089289356L399.454175,238.64166178939493L399.53995,226.31510203317305L400.655025,227.03055437349005L403.228275,234.43806498366254L403.399825,228.221315502109L405.45842500000003,223.08189546145599L405.801525,233.17233655269925L405.973075,235.22203374899883L406.487725,239.9283151147228L406.74505,248.2187058017368L406.9166,248.46811318842953L407.688575,246.53125828813742L408.289,252.4211118647999L409.404075,247.37149477727684L410.090275,241.9374890392496L411.20535,237.1247009482602L411.37690000000003,253.85108094448773L411.634225,251.9024510246888L412.66352500000005,248.6805237610354L413.006625,251.2249687219796L413.4355,259.00644552088784L413.60705,263.837465112875L414.4648,270.7410410127579L414.80789999999996,274.05750577307674L417.295375,266.298801871818L417.72425,249.0255183195745L418.324675,255.22232930112654L420.46905000000004,250.28680587037283L420.554825,249.4974884768473L421.241025,254.6062600929593L422.098775,241.82796604918337L422.78497500000003,245.9525631235171L423.3854,236.8549876953065L423.7285,228.41056411140497L424.67202499999996,237.23664051804622L425.186675,238.99795009861396L425.701325,247.70813967003966L427.588375,241.01749354678114L428.5319,237.71788046658747L428.960775,234.91268442000958L429.73275,240.87031159747445L429.81852499999997,242.21253427267158L430.847825,242.48709375665803L431.79134999999997,250.85928761620744L432.04867500000006,237.5085929134069L432.906425,232.7600597804431L432.9922,222.55446592468493L436.93784999999997,231.80232034748335L437.36672500000003,226.49802533443054L437.4525,231.07806665589175L438.31025,236.36548817448934L444.571825,243.5424067495951L445.51534999999996,249.09996062707182L445.60112499999997,245.6092474225529L445.77267500000005,243.27861888860585L445.944225,249.36309384440975L446.20155,251.0080082779407L446.287325,243.4219623323723L448.43170000000003,251.39612554573404L448.860575,250.92161703189333L449.11789999999996,246.38488201799873L449.8041,251.51714708979586L450.74762499999997,259.7813696027836L451.51959999999997,255.49303815016515L451.77692499999995,254.60849175194699L451.8627,249.48391628362842L453.149325,241.12418704120617L454.52172500000006,248.93202328284048L455.03637499999996,252.2728170157348L455.379475,257.6912887161375L456.15145000000007,264.2162313721514L456.32300000000004,266.337498215106L457.09497500000003,271.3092688070676L457.43807499999997,271.3740433237432L457.95272500000004,262.06498454689427L458.3816,252.4755543095556L460.61175000000003,242.98706887154583L461.383725,248.59190688719266L462.67035,255.3224132293477L463.270775,246.718456423114L463.785425,240.25418025157498L464.128525,243.62943968730806L464.21430000000004,240.67418400616543L465.84402500000004,237.3588840463235L466.10134999999997,223.1057807198864L466.61600000000004,224.20972219631386L469.18925,221.98505693891585L469.7039,229.68550338069716L470.047,239.84789606586872L470.304325,231.16953758771018L470.99052500000005,236.5924235184873L471.162075,241.00124835049988L472.62025000000006,242.92386685058673L472.706025,248.98199663152192L474.33575,254.04113790576395L474.42152500000003,254.0810441297302L474.67885,253.82232938720244L475.450825,256.3953895353413L476.13702500000005,255.64558426311908L476.308575,253.6295328670007L476.39435000000003,255.44540039208582L478.53872499999994,250.86313688497685L478.79605000000004,254.26180964843496L479.739575,239.31833715606342L479.9969,234.02360929052995L480.16844999999995,229.70773481108557L480.34000000000003,237.63084547527373L481.3693,254.5706518007019L482.82747499999994,254.7146619397751L484.62874999999997,263.856372036603L485.229175,245.10620498484388L485.915375,238.3752640415187L486.258475,235.7596354962066L486.8589,232.24872975612206L486.94467499999996,230.4451500575166L487.03045,245.13699697718351L487.8882,248.86907855440754L490.11835,245.30422554360285L490.54722499999997,240.01179876050384L491.919625,239.2387760746294L492.34849999999994,232.11950756413376L492.86315,227.70509754575252L493.20624999999995,235.6267541379472L493.29202499999997,226.43417461903937L493.97822499999995,227.52221229981677L494.23555000000005,230.46266176359921L494.321325,224.7102123737852L494.492875,226.47014869951323L494.7502,237.133853356293L495.522175,239.41927697314193L495.86527499999994,241.62966063758043L496.208375,249.0953174725109L496.46569999999997,261.73512670696346L496.551475,263.4705461719226L497.066125,261.8772793290366L497.58077499999996,254.04587452828127L497.75232500000004,263.73921693828254L498.00965,259.14316056260583L501.01177499999994,255.57243474755734L502.04107500000003,259.01201995724153L503.67080000000004,261.9795864334553L503.84235,274.8344154241525L505.21475,268.97467820513896L505.472075,280.6321767243235L505.64362500000004,276.0424913251103L505.7294,273.2358259009957L507.359125,281.99167350589744L509.41772499999996,281.06663121781014L509.67504999999994,280.9953139804991L510.79012500000005,280.6110905884424L511.47632500000003,285.25163081029297L512.2483,280.1418884999088L512.505625,273.1740324860691L512.677175,270.56213229772976L512.76295,275.08294699403507L513.9638,276.5485171434288L514.65,273.7698807769631L516.5370499999999,281.711864644956L517.0517,282.79435520016665L517.309025,284.5322092269699L517.90945,278.8056153240083L519.0245249999999,289.5212337170856L519.196075,289.767015574065L519.2818500000001,286.41535838085395L519.8822749999999,287.2420077841741L521.426225,279.10772277650733L523.39905,278.41466251606255L523.827925,264.1481541854108L523.9137000000001,257.2901938952313L525.5434250000001,251.91432879818166L525.714975,252.6799886803571L526.229625,245.86973510762598L528.459775,252.06409695071463L528.88865,251.1243990775662L530.003725,252.66855636228036L530.346825,254.06325464078262L531.890775,254.09396471897213L532.5769750000001,244.9490159361314L534.5498,247.7299031999049L534.807125,244.48279992907572L534.8929,238.8049893449371L535.236,243.63488640683084L535.321775,243.60282427659186L535.664875,242.6572173781192L537.551925,249.64888430543306L539.52475,264.137532770495L540.639825,271.581540913182L542.0122250000001,277.65958220273495L542.95575,275.46943041679947L544.32815,266.2300751821146L545.529,281.2855315997555L545.614775,281.94669932351604L545.8720999999999,280.72447031250783L547.330275,289.70456550922216L547.673375,287.39200599052435L549.388875,272.03251005027363L549.560425,272.55453248934845L550.761275,275.30562344527215L551.1901499999999,262.4955417995503L552.391,263.0584615952905L552.476775,264.7865054997075L552.648325,258.0938458298227L553.0772000000001,267.756900939411L555.4789,270.90716498561966L556.250875,266.3230213021459L556.8513,265.7322495243038L557.1944,269.7260250159925L557.70905,273.2085327525416L558.2237,267.72944491771455L558.652575,274.8097557345347L558.9099,263.9012205468996L559.08145,260.91804430766257L560.368075,254.89027514582688L561.14005,245.1582552117813L561.8262500000001,245.41063702057318L563.2844249999999,256.40596512695237L563.7133,259.10879385147257L563.88485,261.22676115202853L564.91415,261.9551209252042L565.0857000000001,265.03073836747853L565.6003499999999,263.2797711789556L566.62965,262.4707021765937L567.058525,259.086482184823L567.916275,263.06912571306714L568.774025,266.33849305705644L570.2321999999999,263.60015600210426L571.175725,256.68921281790585L571.347275,254.83812536320738L571.690375,259.06062871110987L572.9770000000001,268.2771060021588L576.493775,266.2971529248192L576.7511,264.4227678831505L577.0942,269.2006870118182L578.2950500000001,277.4079418830887L579.238575,272.0968566524518L579.839,274.504231208365L581.2971749999999,262.6884054256915L581.5545000000001,252.12631199319574L581.983375,248.7484444308321L582.4122500000001,253.47104129422993L582.9268999999999,264.9750735557864L583.9562,264.74017329783334L584.041975,266.9773665306828L585.50015,261.54442244831546L585.757475,264.67613588582765L586.3579,257.2759097680769L588.673825,260.5749917964464L588.845375,250.71937468572924L589.4458000000001,258.126796568828L590.30355,254.62087836014507L590.98975,259.21665240245216L591.1613,258.1648592920874L591.761725,259.6523427461185L592.5337,261.2668691880181L593.39145,255.79363420711167L593.477225,262.6762122853769L594.334975,263.57756774889214L594.678075,268.35017929842957L594.76385,266.7409816165301L596.393575,269.45759824698183L596.82245,278.68009100043207L596.9939999999999,267.92823658944405L597.3371,275.3394863229274L598.1090750000001,278.9938268744713L599.6530250000001,261.19647292372554L601.368525,266.83103038141417L601.7974,272.72666377688887L602.569375,271.76613705702755L603.084025,266.65607441310175L603.1698,262.6314778797715L603.255575,246.04120373552269L603.5129000000001,256.1285446683221L603.770225,266.45702542109336L605.6572749999999,274.09517176987515L607.11545,279.02622572129263L607.201225,271.54008563442096L607.5443250000001,267.37135487043827L607.9732,268.7465851060507L608.573625,274.8774090856915L609.3456,265.07322891531913L609.51715,264.9055156284028L610.3749,264.69264930432735L610.8895500000001,263.22488694279957L611.0611,260.9160226048625L611.57575,266.90157461396126L611.7473,265.1610301185154L611.91885,259.03778717080365L612.94815,254.79251382012185L613.1197,250.32858976334364L613.29125,262.4824164775222L615.264075,270.2602395007731L616.0360499999999,264.36150240668684L616.293375,267.7054122922493L617.6657749999999,266.82114855525384L618.523525,252.14825664736256L618.6093,252.85192716954288L618.78085,252.63154788308128L619.2955,259.0267563270189L619.81015,261.50802626944426L620.410575,260.9195810681898L620.8394499999999,267.222267423516L621.439875,268.0509969487415L621.954525,255.8374858427286L623.0696,248.3233504034036L625.29975,252.36539914273567L627.01525,257.84651976559485L627.272575,250.3226267025157L627.615675,253.51396137541553L627.70145,254.56758277887914L628.301875,262.48086871406616L629.76005,259.3037104162681L630.703575,257.1576719984898L631.6471,262.0717828244293L632.247525,271.8266505416602L632.7621750000001,269.4773234547066L634.820775,263.21491511788423L638.8522,250.44650955680044L639.5384,263.7138069005283L639.8815,269.95171754389395L640.996575,273.64262888622886L641.9400999999999,273.5483662352908L642.2832,266.5499941628071L642.9694000000001,262.0089639625064L643.0551750000001,265.7072796698793L643.398275,271.7439885982619L644.17025,268.81851975253244L644.256025,278.4338664690141L645.113775,274.71134962370746L645.1995499999999,262.329399238985L645.285325,254.9673110152088L645.971525,249.2937808731136L647.687025,245.6888839979782L649.7456249999999,246.69559405815752L650.0887250000001,245.69234182658417L650.260275,249.1231672118907L650.34605,244.96276095711582L650.6033749999999,241.28681889243592L651.37535,240.94817159075896L651.4611249999999,240.11938028667416L652.2330999999999,238.76027304214415L652.4904250000001,236.0536647331265L653.3481750000001,251.2046184429075L653.77705,254.27413142014748L656.86495,264.106556180642L657.636925,270.721556565796L657.808475,266.0494041957247L658.151575,267.97733632462234L658.666225,275.5195180044134L658.92355,278.81015000700216L659.5239750000001,273.54903651668747L659.7813,275.9623211215023L660.210175,271.73544345913746L660.4675,269.396918206517L661.1537000000001,266.6561385662525L661.4968,268.8283223330414L661.8399,272.43300967573646L662.69765,261.4111750293744L662.7834250000001,272.82010908720576L663.812725,275.78722714371617L664.1558249999999,266.83503824942363L664.75625,266.71643225515106L665.09935,275.2205879592908L666.042875,271.95040548089946L667.0721749999999,275.732837439846L668.444575,274.82128092255886L670.5889500000001,280.9857509493052L671.875575,273.0572607159832L673.076425,279.8611356835379L673.419525,275.13193176070473L673.762625,267.1385742768198L674.4488249999999,276.6530740174821L674.963475,279.6827579475677L675.04925,279.0572734166848L676.507425,293.5114553343723L677.2794,286.4932933497597L677.79405,280.87697192998706L678.4802500000001,287.3416705209262L678.737575,291.6292946151855L680.624625,290.50399875610265L680.88195,295.4822978933954L682.0828,295.01841933188973L682.4259,294.90375662667645L683.1120999999999,306.15717346120357L683.369425,292.7683571511256L683.884075,298.10845859650493L685.428025,293.00653004287403L685.599575,290.3291290085842L687.1435250000001,294.92425251505L687.315075,281.4054921341738L687.5724,285.5631046108081L688.859025,293.04331230167077L689.11635,295.480915334293L689.45945,293.3589261273301L690.059875,295.5467506795905L691.17495,294.1775443220172L691.6896,293.9284747208476L692.89045,284.7994912157783L693.91975,289.21535277165566L694.520175,302.48327443418725L695.206375,306.0247181258054L695.892575,294.70391670019933L695.97835,293.44249484330624L696.4072249999999,295.95016339609674L696.750325,295.23317038746893L697.8654,291.38573011287275L698.2085,282.71204561925845L699.40935,286.0753219005097L700.4386499999999,276.2236315892028L700.524425,275.9413560274693L701.12485,265.4898398511564L701.81105,270.40441644724814L702.3257,273.44481784768436L702.8403500000001,277.8446793620481L703.440775,257.5901865833609L703.612325,259.01090729023576L704.3843,261.3063252439031L704.55585,269.5833036861219L704.641625,267.38635215597526L706.27135,263.5305500360751L706.528675,266.6012430855045L707.30065,269.89085131899196L708.415725,273.22890286872274L709.35925,265.8461124630959L709.616575,266.48044374895875L710.474325,261.88933162166484L711.846725,260.23184431119097L712.79025,261.3374281957541L714.3342,273.422825117196L715.19195,272.69885518441123L715.277725,275.9630754987304L715.7066,278.75932989807393L715.792375,273.3748742510189L716.3928000000001,272.93558090054785L716.7359,269.09829321178734L716.821675,267.1448706856703L716.90745,262.8581168183501L718.194075,259.98571548834167L718.7945,254.76990393606832L718.880275,260.7544983672435L719.223375,268.7038306929652L719.3949250000001,279.1861141850888L720.1669,288.2537878295164L720.51,294.0064376704389L720.767325,295.8390575426982L722.997475,291.40639589692165L723.08325,284.2059629449788L723.855225,291.7364246714394L724.1125499999999,290.2072749405248L724.45565,280.2676092315098L724.712975,274.29873377177995L725.570725,273.32769130139656L725.6564999999999,278.69698740067275L725.742275,275.68182268139617L725.82805,278.067497780112L726.256925,282.13349813766916L726.7715750000001,286.5523514993737L727.114675,288.04447652757676L727.286225,288.5580739591121L728.658625,283.9148010642034L729.173275,291.3445163217813L729.25905,300.53560064723297L729.94525,302.9817640903176L730.4599000000001,305.58236199337864L731.574975,311.7611362546742L732.1754,305.50408069535473L733.03315,303.6110871538589L734.5771000000001,314.9948208577302L735.2633,315.94414322382596L737.236125,308.3773222023363L737.83655,293.4879686367293L738.3512000000001,294.16550820455956L738.608525,295.46467682720476L741.26755,292.2409901570929L741.3533249999999,291.65808366930133L742.725725,287.98806360149126L742.8115,284.21729387241265L743.66925,275.36871093844184L743.926575,270.27069967413365L744.0981250000001,265.1312361624498L745.04165,263.2252957275273L745.5563,261.4477476710991L745.813625,267.1842846507329L746.156725,277.40967981665256L747.529125,278.92625371156L747.700675,268.57909410320235L747.7864500000001,264.13709801797194L748.12955,265.1190396300187L748.386875,255.1785881746227L748.558425,265.23861205052475L749.759275,266.7713621083072L750.102375,268.5274960584446L751.0459000000001,272.7058936758527L751.303225,271.08187401877865L753.018725,259.8402446918518L753.704925,256.1553212819199L754.562675,257.7636364145697L754.64845,248.98841764078978L755.591975,253.97116215327867L757.5648,255.77196572851238L757.993675,253.98929252317623L759.4518499999999,257.54528512164995L761.4246750000001,265.5780840457854L761.596225,274.3341868774561L763.22595,282.81442548816506L763.311725,266.591461148037L763.654825,269.2459579935617L763.997925,261.30143509600464L765.541875,264.8247993142471L766.056525,263.2191239913875L766.1423,265.6763431147941L769.7448499999999,262.7320172785156L770.43105,269.7231048014048L771.11725,275.00862631656827L771.203025,280.2939718743622L772.6612,282.51654596841763L773.3474,279.0251956758457L773.776275,283.8176702094187L774.119375,286.1112929368297L775.0629,283.77204293101295L776.0922,283.2591256108378L776.349525,281.0459919518078L776.521075,275.78039525584046L776.8641749999999,272.41615540861875L777.550375,265.0084688379471L780.8956,264.5891873709286L782.696875,270.0233482631468L783.211525,259.9430067291273L783.2973000000001,251.54606142196747L783.46885,241.20063704334638L784.755475,243.70514247995925L785.3559,254.98658446007272L787.3287250000001,258.1193264158412L787.500275,265.06237114723376L787.671825,271.08175034820533L788.61535,262.04088340916974L788.872675,257.7177636756419L790.3308499999999,257.9843113890584L790.8455,254.97314912718178L791.9605750000001,250.45818027235543L793.676075,248.61460929621214L794.44805,253.00330715336455L795.6489,250.3605733012611L795.8204499999999,264.0251163568008L795.9920000000001,265.95479934286715L796.763975,267.08396892960116L797.53595,274.9437912031765L798.2221499999999,278.3956537734211L799.93765,274.4932995061206L800.1092,278.84914535509824L800.366525,278.97617958849753L800.538075,273.34672650277093L801.052725,272.0529602817846L802.082025,271.155107157125L802.1678,273.45252982770165L802.7682249999999,266.1491801756612L803.0255500000001,270.02923414868036L803.454425,281.3948107280902L804.05485,287.2467665952542L804.2264,278.7171317206021L805.5988,273.2694255424958" fill="none"></path></g></g></g></g><g opacity="0.2"><g><g><g><path style="fill: none;" stroke="rgb(255, 112, 67)" stroke-width="2px" d="M89.463325,-377.8975241000836L89.72064999999999,125.95225370847248L90.40684999999999,-262.68146148094775L91.9508,-473.7373087956356L92.208125,154.1159683007459L93.923625,-261.6625604262721L94.609825,-776.3108869699331L94.95292500000001,67.32012198521528L96.668425,79.05559521455018L97.7835,1.3853172155525613L99.15589999999999,-188.95871015695445L99.413225,-123.53222938684331L100.1852,67.0268781368548L101.128725,-19.755276533273673L101.55760000000001,-32.83183776415325L101.72915,80.81887116798976L102.158025,-319.5307329984813L103.6162,-11.42070403465874L105.50325,198.91641855239857L105.932125,53.21200792606044L107.21875,-6.628628143897572L107.73339999999999,41.54118006045991L108.162275,194.1780693714434L108.7627,105.18584049664997L109.27735000000001,218.95700124593867L110.90707499999999,-132.3685400302595L112.27947499999999,-335.10558623533996L112.451025,116.36394243973939L113.13722499999999,165.56842308778013L114.166525,206.10626550821144L114.9385,-196.421176837041L115.6247,275.4936179747947L116.99709999999999,105.92484272443318L117.34020000000001,3.2567398364726046L121.97205,40.75417041778553L122.05782500000001,3.886208901038401L123.51599999999999,-17.173621471111687L123.77332500000001,-8.761578523195851L124.03065000000001,156.3596650270314L125.31727500000001,270.1197338104247L125.5746,158.71653446784373L125.66037499999999,116.26498130651612L126.518125,163.45055084962095L127.9763,104.88185130632826L128.14785,253.99860125321595L129.949125,149.756999015808L131.4073,75.512578670795L131.836175,87.96660331579346L134.15210000000002,72.69556595728938L135.00985,141.99106308130104L135.5245,190.79744614087605L135.69605,104.29796328911402L136.12492500000002,198.03426063977741L136.2107,-2.785608585064324L137.497325,140.96037681286137L139.04127499999998,277.053598990807L139.212825,213.49819421768174L140.24212500000002,103.69362445978004L140.84255000000002,134.5343156961293L140.928325,187.95253020066465L141.099875,78.4831457871656L141.3572,-119.31658909871044L141.52875,100.38336588786188L142.55804999999998,-138.0753564834596L143.4158,163.96112790474513L144.4451,131.84520721435536L144.873975,237.15285136149467L147.104125,180.2333884972791L147.447225,-41.03053368054918L147.790325,244.0435618620651L147.8761,211.65831437477684L148.476525,96.40741605025056L149.24849999999998,222.06413819239677L149.5916,20.34807278559748L149.93470000000002,78.08591475853541L150.363575,42.72958021897523L150.706675,36.564700236687145L151.47865000000002,145.01466365960914L151.82174999999998,83.02894537265468L151.9933,123.72935441824094L152.16485,-106.55198940863988L152.765275,-91.09914779663103L153.19415,173.10420072995686L153.36569999999998,180.10791063308704L153.79457499999998,126.04480229891251L153.966125,64.30744006083552L154.309225,140.47856954427854L154.652325,102.43295321097725L155.166975,-18.279871757213982L155.25275,23.58831332280073L157.225575,170.82948116155757L157.568675,55.39417890401978L160.39925,-34.87709228809075L160.999675,91.04878333898682L161.51432499999999,-16.02924255224383L162.71517500000002,55.221560184772045L163.05827499999998,243.97077083587632L163.6587,49.68285633967463L163.83025,186.41196012496937L164.3449,221.7369251984815L164.51645,31.029116006997754L165.71730000000002,62.44017692712623L165.803075,97.46323255392213L166.660825,79.50222015380848L166.91815,267.3843510334307L167.690125,332.0579646183893L168.033225,91.67114661290083L168.376325,155.58392066221955L169.14829999999998,153.87506466645445L169.234075,216.93341071789067L169.748725,52.127421635847725L169.83450000000002,181.10098820466246L170.263375,-20.696360514714286L171.292675,122.51547740055952L171.807325,221.73137921553376L172.06465,250.03201026182893L172.836625,188.82446270722593L175.409875,115.17606221712538L176.52495000000002,-10.635080887721244L177.0396,-135.2826074453502L177.296925,130.07239910272438L177.468475,124.41393668834965L177.811575,139.2612262872548L178.326225,307.0558069302484L178.7551,258.9714415256792L179.61285,205.20123041593098L180.1275,198.44622318561247L180.556375,227.49018925886872L181.41412499999998,210.10717226908744L181.843,155.26138709141645L185.016675,165.98801136016834L185.35977499999998,102.8322639832129L185.44555,167.05526645366947L185.53132499999998,263.8101383355946L187.07527499999998,208.7952006780183L188.10457499999998,202.50206984006428L188.19035000000002,107.18759371684138L188.705,32.95461196165803L189.305425,99.77244120377748L191.535575,157.97371937678398L192.564875,-19.143831913287954L193.5084,214.06995039719789L193.765725,169.99654384759742L194.02305,164.29717980898332L195.73854999999998,89.9342140784629L196.2532,42.5080875250008L196.85362500000002,197.74222997518672L197.368275,109.85659801042982L198.74067499999998,201.9242477416991L198.99800000000002,-3.4715773509100245L199.941525,150.05509559924772L200.19885,136.83208575615504L200.456175,213.33580090449394L200.54195,38.94011405798096L204.65915,178.93181562423695L204.916475,100.46222283289973L205.1738,483.49068238184987L205.259575,278.7232864820039L207.146625,118.96812805762642L208.175925,153.7097250498257L208.347475,94.3467367612397L208.690575,262.1849920199466L209.033675,66.48094544043892L209.376775,342.8771374775812L211.52115,222.12167776547932L211.606925,137.33867663603547L212.55044999999998,145.31535992255564L213.23665,180.24552033497724L213.57975,184.60535617975074L213.75130000000001,237.90935809795658L215.209475,256.072972187629L216.4961,253.81801018348094L216.83920000000003,200.45248251694886L218.98357500000003,78.90429386725776L220.355975,78.46702777422377L220.44175,252.2356719237106L221.728375,43.02403725110554L222.07147500000002,194.30961315448454L223.44387500000002,197.2328661038324L223.52965,216.05783866001997L224.64472500000002,55.339065698476816L225.4167,119.27385036761927L225.84557499999997,101.57904514899604L226.27444999999997,148.81660828223582L226.531775,-10.5031904807459L226.96065000000002,-96.78031407869793L227.21797500000002,60.76598332478437L228.247275,287.09737410912135L228.93347500000002,298.73111321375904L229.53390000000002,289.7429812871492L230.134325,312.070935322688L230.9063,203.16481480231639L231.2494,254.76862632311293L231.335175,268.88263298914967L231.42094999999998,-45.363852794353875L231.5925,229.5733991036047L231.84982499999998,284.76546159157374L232.45025,159.11116581696714L233.22222499999998,129.55436963301423L234.079975,53.96088893596931L234.42307499999998,112.08660309131312L234.594625,161.50408414693965L234.85195,258.4676236372726L235.280825,249.85904491864704L235.53815,245.12901471211347L235.62392499999999,185.5499064005337L235.7097,215.41138502267677L237.339425,205.63451033372132L238.1114,325.29307860594514L238.62605,319.6675454653225L239.226475,232.34084459451515L239.31225000000003,-24.726556998032947L240.08422499999998,234.89043694276063L240.68465,250.02871733445375L242.485925,264.9713285152727L242.82902500000003,259.76226403163014L243.686775,188.47333266184867L244.02987499999998,190.38964308225178L244.80185,229.44306850433335L245.91692500000002,232.92941203484153L246.17424999999997,312.45031521870527L246.68890000000002,198.52230713917646L246.86045000000001,218.212799659142L249.7768,256.8988037109374L250.29145,204.63103404411888L251.74962499999998,173.2840985518234L251.921175,262.21896116550136L252.607375,90.68881438328657L252.8647,202.66948920029847L253.03625,182.77431524716877L254.58020000000002,276.8761275364801L255.78105000000002,197.98555997701777L255.9526,262.7947035202612L257.49655,278.3527454963096L257.83965,249.61710141255293L258.52585,251.3172918099622L259.984025,187.9301729569067L260.49867500000005,287.702752810258L262.557275,124.13906390850346L263.58657500000004,150.88872616107633L263.67235,267.6053237915038L263.929675,139.13176224781904L264.01545,208.07647595038767L264.187,229.46161288481477L264.35855,355.9576848837044L264.70165,144.14810382402848L265.04475,74.72678221189045L265.47362499999997,220.9207991453316L265.645175,149.8013668793897L266.93179999999995,236.35544300079331L269.84815,296.6307454842786L270.19125,94.44656445429865L270.3628,208.43349860264692L270.791675,195.95677008995628L271.56365,379.3591332435607L272.59295000000003,319.76685322248005L273.4507,306.5944504737853L273.62225,165.5635703527009L273.7938,102.10158072985121L273.879575,10.502046621762702L274.222675,214.95765429276673L274.48,274.4443873258736L275.1662,298.99836026705213L275.5093,144.0122272418094L276.71015,73.70302842213545L277.2248,227.83715981703523L277.65367499999996,233.26979673825764L277.73945,160.64688315758326L277.911,94.39821041547322L278.168325,268.04137670076796L278.339875,45.84676925952607L278.511425,173.85308173986567L278.5972,227.0645350676315L279.197625,193.132824897766L279.45495,146.43356873438896L279.883825,193.53421541360694L281.51355,240.6924016659075L282.3713,56.64583793053248L282.88595,281.7997472102824L283.4006,184.19530006555397L283.7437,231.9888479893023L284.773,104.93627126400276L284.858775,144.11569448617774L287.00315,200.24502809231083L287.775125,137.74873275023225L289.2333,201.3530114980843L290.77725000000004,261.2908755815945L290.863025,352.6761960983275L291.034575,219.79253823940556L291.89232499999997,234.28505824162397L292.235425,365.6553560036878L293.86515,285.5602702727683L294.808675,250.2625151780934L295.494875,255.49497677729664L296.009525,308.7248011735768L296.0953,197.07237922228288L296.26685,271.9079666871289L296.4384,178.96197190651515L296.867275,206.89691470219526L299.01165000000003,234.83376392951365L299.097425,239.4892699901873L299.955175,156.0771665206321L300.12672499999996,189.08633708953846L300.55559999999997,266.6195253225472L301.75645000000003,358.7519937295179L302.2711,312.4497952828039L303.043075,282.08033928504346L304.3297,306.2850886124829L304.6728,254.06619292039125L304.84435,268.0481358674855L305.959425,112.04015548412605L306.988725,294.3974474760201L308.01802499999997,231.79855144940876L308.10380000000004,230.38605891741227L308.875775,187.32895374298084L309.390425,262.0593408437874L310.8486,268.3699761904202L311.36325,240.36397548822242L311.449025,211.03855078036955L312.135225,247.0744415429921L312.649875,163.91779991296607L313.16452499999997,268.3576710407549L313.5934,294.7347125640281L315.56622500000003,341.59445560895466L316.16665,293.58496097417964L316.595525,230.20252154423628L317.7106,265.0167362506572L318.311025,126.08327755561228L319.59765,268.4221430925221L320.62695,279.66402383951026L320.884275,311.7686792520375L322.085125,173.27075353035548L322.1709,280.06610760321973L322.34245000000004,334.67098914659925L325.08725,220.87937758519087L325.173025,242.5267355258647L325.2588,266.45765194526075L325.85922500000004,204.64247263394856L326.80275,403.07098333652186L328.089375,319.64016217451814L328.51825,163.5025444397558L331.0915,180.27723642495948L332.206575,169.9218463897704L332.97855,325.1506161689757L333.750525,163.81901209170988L334.265175,250.13617075406574L334.608275,89.28082796243507L336.06645,262.43542781242945L336.238,299.58276822016774L336.323775,170.21699666976917L337.353075,195.85330284558796L338.897025,279.89678181134724L340.35519999999997,345.51737198462837L341.0414,331.4730367293723L343.01422499999995,353.1616429182198L343.7862,156.46365220730107L343.95775000000003,269.43965765146095L344.1293,-70.18975221193767L344.4724,165.9737997788648L344.558175,391.542964531825L345.50169999999997,329.5867092792803L345.759025,182.74103934948246L346.445225,227.8239881075344L346.70255000000003,250.04188904395457L347.474525,249.1335610242989L348.76115,260.82761269349305L349.10425,311.8620944023131L349.2758,304.5464229583739L350.562425,184.54365711945738L351.67749999999995,295.1936426529516L353.650325,168.13101383355934L354.93695,188.80609163871165L355.022725,189.54613373829756L355.62315,327.95688354052015L356.052025,215.22663446573097L356.4809,238.88961058396546L356.82399999999996,204.29238246037397L356.99555000000004,299.6550393104552L358.36795,180.35488018622752L359.9119,314.90527923290534L359.997675,226.82796423251799L360.5981,221.12513395456153L360.855425,235.44035581442012L362.914025,305.63482211186323L363.17135,248.72229172633232L363.771775,229.8699358793404L364.02909999999997,327.4180566347561L364.114875,300.93806780301594L364.286425,358.77296447753895L364.3722,244.22155325229338L366.0877,185.59046140083888L366.516575,294.3397345909704L367.28855000000004,246.64722754405082L369.34715,213.46682475163374L370.03335,154.2391931093655L371.2342,138.61841220122102L371.319975,340.04903279818006L371.74885,286.21019014945387L372.77815,253.9528468938973L375.265625,300.5380637829119L375.43717499999997,297.7531137833227L375.608725,283.6255887838509L376.294925,202.16237838451664L377.7531,271.52113437652577L378.181975,123.87666959028962L380.069025,286.46946485225953L380.32635,169.36967446253837L380.755225,115.10916379781861L381.35564999999997,314.1231223253102L381.69875,223.8572238041803L381.8703,215.93166754795942L382.38495,218.50777662717366L382.470725,273.2799042188203L382.98537500000003,297.27286632244386L383.5858,335.3006315231322L384.10044999999997,368.70391350526063L384.357775,249.4848643816433L385.81595,308.1299945024342L386.84525,160.84133918468754L387.102575,179.86024783207807L387.70300000000003,386.0009677593523L389.0754,344.7343485171977L389.24694999999997,114.3514438775868L389.76160000000004,243.0797740129323L390.1047,96.94554970814619L390.27625,332.3446226119994L391.47709999999995,100.61508398789613L392.935275,348.60145843946003L394.650775,289.0616919444156L396.194725,204.10035280080928L396.36627500000003,270.03550419440626L396.537825,161.00251931410554L396.79515000000004,245.2719970849843L397.05247499999996,191.59745418108415L398.51065,265.5082489893985L399.454175,250.30566985790531L399.53995,115.37606422717738L400.655025,233.46962543634254L403.228275,301.10566047521723L403.399825,172.27057016812824L405.45842500000003,176.82711509557856L405.801525,323.9863063738895L405.973075,253.6693085156953L406.487725,282.2848474062405L406.74505,322.83222198486317L406.9166,250.71277966866114L407.688575,229.0995641855092L408.289,305.42979405476484L409.404075,201.92494098956755L410.090275,193.03143739700306L411.20535,193.80960812935447L411.37690000000003,404.38850091053877L411.634225,234.36478174649739L412.66352500000005,219.68317838815528L413.006625,274.12497337047853L413.4355,329.0397367110618L413.60705,307.3166414407582L414.4648,332.87322411170356L414.80789999999996,303.90568861594556L417.295375,196.4704667604885L417.72425,93.56596634938154L418.324675,310.9936281350941L420.46905000000004,205.8670949935912L420.554825,242.3936319351195L421.241025,300.5852046379675L422.098775,126.82331965519819L422.78497500000003,283.07393679252027L423.3854,154.97680884141172L423.7285,152.41075185629023L424.67202499999996,316.67132817781874L425.186675,254.84973632372328L425.701325,326.09984581287074L427.588375,180.80167843745292L428.5319,208.02136274484474L428.960775,209.66592000080976L429.73275,294.4889561946574L429.81852499999997,254.2925383494449L430.847825,244.95812911253694L431.79134999999997,326.20903235215394L432.04867500000006,117.35234058820271L432.906425,190.02326158376826L432.9922,130.7041212228627L436.93784999999997,315.03301015266993L437.36672500000003,178.75937021695637L437.4525,272.29843854904163L438.31025,283.9522818418648L444.571825,308.1346739255464L445.51534999999996,299.1179455243623L445.60112499999997,214.19282858188322L445.77267500000005,222.3029620830828L445.944225,304.1233684466434L446.20155,265.8122381797202L446.287325,175.1475488222561L448.43170000000003,323.1635944659892L448.860575,246.65104040732737L449.11789999999996,205.55426689294654L449.8041,297.7075327359712L450.74762499999997,334.15937221967243L451.51959999999997,216.89805507659898L451.77692499999995,246.64757416798506L451.8627,203.362737068763L453.149325,165.8866238594054L454.52172500000006,319.20254945754994L455.03637499999996,282.3399606117834L455.379475,306.4575340197635L456.15145000000007,322.94071527627784L456.32300000000004,285.4288998016943L457.09497500000003,316.0552041347209L457.43807499999997,271.9570139738228L457.95272500000004,178.28345555525544L458.3816,166.17068217350874L460.61175000000003,157.59069992945732L461.383725,299.035449028015L462.67035,315.89697030874385L463.270775,169.2828451670132L463.785425,182.07569470772364L464.128525,274.00677460890535L464.21430000000004,214.07688287588252L465.84402500000004,207.52118440774757L466.10134999999997,94.82785078195411L466.61600000000004,234.14519548416123L469.18925,201.96306962233308L469.7039,298.98952135672926L470.047,331.3094302324147L470.304325,153.0643112842852L470.99052500000005,285.3983968954818L471.162075,280.68067183861353L472.62025000000006,260.2274333513699L472.706025,303.50516465994014L474.33575,299.5734093739435L474.42152500000003,254.44020014542787L474.67885,251.49389670445356L475.450825,279.5529308685888L476.13702500000005,248.8973368131196L476.308575,235.48507030193608L476.39435000000003,271.7882081178517L478.53872499999994,209.62276532099784L478.79605000000004,284.8498645195593L479.739575,104.82708472471955L479.9969,186.37105850072993L480.16844999999995,190.8648644960842L480.34000000000003,308.9388414529652L481.3693,407.0289087295531L482.82747499999994,256.0107531914343L484.62874999999997,346.13176290805507L485.229175,76.35470151901234L485.915375,177.79679555159333L486.258475,212.21897858839753L486.8589,200.6505780953626L486.94467499999996,214.21293277006868L487.03045,377.36361925418544L487.8882,282.4578127494224L490.11835,213.2205484463617L490.54722499999997,192.37995771261347L491.919625,232.28157190176142L492.34849999999994,168.04609096967243L492.86315,187.97540738032401L493.20624999999995,306.9216634677005L493.29202499999997,143.70095894886884L493.97822499999995,237.314551426814L494.23555000000005,256.9267069376431L494.321325,172.93816786545958L494.492875,242.30957563106816L494.7502,333.1071952673104L495.522175,259.9880895247825L495.86527499999994,261.5231136175301L496.208375,316.2862289868867L496.46569999999997,375.49340981703523L496.551475,279.08932135655317L497.066125,247.53787774306062L497.58077499999996,183.56323132148142L497.75232500000004,350.9792986282934L498.00965,217.77865318151606L501.01177499999994,223.43590241212098L502.04107500000003,289.96828684440015L503.67080000000004,288.687684719379L503.84235,390.5278763404258L505.21475,216.23704323401805L505.472075,385.5496633969819L505.64362500000004,234.7353227321917L505.7294,247.9758370839631L507.359125,360.7943019500144L509.41772499999996,272.7412506250233L509.67504999999994,280.35345884469825L510.79012500000005,277.15308005993165L511.47632500000003,327.016492806948L512.2483,234.15420770645127L512.505625,210.46332836151112L512.677175,247.0550306026751L512.76295,315.770279260782L513.9638,289.7386484879712L514.65,248.76215347876902L516.5370499999999,353.1897194568926L517.0517,292.5367701970613L517.309025,300.1728954681982L517.90945,227.2662701973547L519.0245249999999,385.96179925478407L519.196075,291.97905228688154L519.2818500000001,256.2504436419559L519.8822749999999,294.68185241405763L521.426225,205.89915770750764L523.39905,272.1771201720603L523.827925,135.74957920954765L523.9137000000001,195.56855128361616L525.5434250000001,203.5315429247341L525.714975,259.57092761993397L526.229625,184.57745295304503L528.459775,307.81335353851307L528.88865,242.66711821922874L530.003725,266.56597192470826L530.346825,266.6155391473035L531.890775,254.37035542268006L532.5769750000001,162.64447689056385L534.5498,272.75788857386647L534.807125,215.25887049161457L534.8929,187.70469408768858L535.236,287.1039599638717L535.321775,243.3142651044404L535.664875,234.14675529186528L537.551925,312.57388665125904L539.52475,394.5353689560522L540.639825,338.5776141973641L542.0122250000001,332.361953808711L542.95575,255.75806434337895L544.32815,183.07587806995085L545.529,416.7846393585204L545.614775,287.8972088373623L545.8720999999999,269.72440921343275L547.330275,370.5254222796512L547.673375,266.578970322242L549.388875,133.79704658801725L549.560425,277.25273444102345L550.761275,300.0654420485862L551.1901499999999,147.20480698805574L552.391,268.1247397569508L552.476775,280.33890063946046L552.648325,197.8599088008586L553.0772000000001,354.724396925706L555.4789,299.25954140149616L556.250875,225.0657281508811L556.8513,260.41530352372376L557.1944,305.67000444118776L557.70905,304.55110238148603L558.2237,218.41765440427326L558.652575,338.5325530859139L558.9099,165.7244038581847L559.08145,234.06945815453147L560.368075,200.64035268930274L561.14005,157.57007580537046L561.8262500000001,247.68207329970124L563.2844249999999,355.3639180843645L563.7133,283.4342523721547L563.88485,280.2884668570297L564.91415,268.5103588837842L565.0857000000001,292.7112953479472L565.6003499999999,247.52106648225038L566.62965,255.18908115533668L567.058525,228.62850225888752L567.916275,298.9129174672639L568.774025,295.762799152961L570.2321999999999,238.95512250753535L571.175725,194.4907241601209L571.347275,238.17833827092085L571.690375,297.0631588422334L572.9770000000001,351.22540162159834L576.493775,248.47757522876432L576.7511,247.55330250813398L577.0942,312.20195916982783L578.2950500000001,351.27323572452235L579.238575,224.29708957672105L579.839,296.1706022115853L581.2971749999999,156.34597338162922L581.5545000000001,157.06747110073368L581.983375,218.34763636955833L582.4122500000001,295.9744130648098L582.9268999999999,368.51136390979457L583.9562,262.6260709762572L584.041975,287.1121056263262L585.50015,212.64792570701L585.757475,292.8615568234369L586.3579,190.67387470832224L588.673825,290.2667300517741L588.845375,162.01882068927458L589.4458000000001,324.79359351671644L590.30355,223.0676144819992L590.98975,300.57861878321705L591.1613,248.69872129880451L591.761725,273.03969383239735L592.5337,275.7976071651164L593.39145,206.5345193789554L593.477225,324.6194149897647L594.334975,271.68976692052973L594.678075,311.3036832442649L594.76385,252.2582024794357L596.393575,293.90714792104853L596.82245,361.6825257814846L596.9939999999999,171.16154689055207L597.3371,342.0407339242787L598.1090750000001,311.882891838367L599.6530250000001,101.02028736701362L601.368525,317.54204750061024L601.7974,325.7873643361604L602.569375,263.1213965782751L603.084025,220.66551061776954L603.1698,226.41010907980097L603.255575,96.72873643728394L603.5129000000001,346.9146130635187L603.770225,359.41335219603303L605.6572749999999,342.83848890891426L607.11545,323.4057112840504L607.201225,204.1648248525765L607.5443250000001,229.8527779945959L607.9732,281.1236572265624L608.573625,330.054824902461L609.3456,176.83560738196726L609.51715,263.3960960461542L610.3749,262.7768523876482L610.8895500000001,250.01502568905155L611.0611,240.13624356343183L611.57575,320.7715426958523L611.7473,249.49612965950584L611.91885,203.9286006413972L612.94815,216.58505366398725L613.1197,210.1532732523403L613.29125,371.8668569051301L615.264075,340.2606467100289L616.0360499999999,211.27286855991056L616.293375,297.8006012623125L617.6657749999999,258.8627749222974L618.523525,120.09222947634169L618.6093,259.1849618691663L618.78085,250.6481343049268L619.2955,316.583632322458L619.81015,283.8394557512722L620.410575,255.62357425689683L620.8394499999999,323.94644462145277L621.439875,275.50956267576936L621.954525,145.91588588861305L623.0696,180.6961314494792L625.29975,288.7438377967246L627.01525,307.1766053713284L627.272575,182.60758913480305L627.615675,282.2359734315137L627.70145,264.0501754100505L628.301875,333.7004421307489L629.76005,230.70928573608384L630.703575,237.84332623848533L631.6471,306.29878025788514L632.247525,359.6204599967368L632.7621750000001,248.3333796721237L634.820775,206.85324008648197L638.8522,135.5308595070471L639.5384,383.1194829940795L639.8815,326.0929133341861L640.996575,306.86083096724275L641.9400999999999,272.7000023768497L642.2832,203.56464551045332L642.9694000000001,221.1396921597993L643.0551750000001,298.992121036236L643.398275,326.0743689537047L644.17025,242.4893001409676L644.256025,364.9719869173489L645.113775,241.20869801594648L645.1995499999999,150.89184577648442L645.285325,188.70851700122526L645.971525,198.2320095942569L647.687025,213.24481212175797L649.7456249999999,255.75598459977357L650.0887250000001,236.66307174242448L650.260275,280.0005956796498L650.34605,207.51910466414216L650.6033749999999,208.2033403103167L651.37535,237.90034587566655L651.4611249999999,232.6602585499102L652.2330999999999,226.5283078413742L652.4904250000001,211.6941899519699L653.3481750000001,387.56320183093715L653.77705,281.8997482153084L656.86495,352.59837902509236L657.636925,330.25656003218415L657.808475,224.000032865084L658.151575,285.3287254847012L658.666225,343.399153122535L658.92355,308.42583803030146L659.5239750000001,226.19901510385353L659.7813,297.68188256483796L660.210175,233.6935444978566L660.4675,248.35019093293397L661.1537000000001,241.98912180387043L661.4968,288.37797623414247L661.8399,304.8751957599932L662.69765,162.2146632121158L662.7834250000001,375.500515607687L663.812725,302.49128965231074L664.1558249999999,186.2653382007891L664.75625,265.6489783066968L665.09935,351.7579892965462L666.042875,242.51876317537736L667.0721749999999,309.77472507036634L668.444575,266.6172722669747L670.5889500000001,336.46598119002107L671.875575,201.70084861608638L673.076425,341.09601039152864L673.419525,232.5690964552071L673.762625,195.1983569218561L674.4488249999999,362.28357168344337L674.963475,306.94991331834046L675.04925,273.42791263873744L676.507425,423.5990925935597L677.2794,223.3298354882459L677.79405,230.33007915203373L678.4802500000001,345.5239578393788L678.737575,330.2179114635173L680.624625,280.37633602435756L680.88195,340.2869901290305L682.0828,290.8435122783366L682.4259,293.87179227975685L683.1120999999999,407.43792497194715L683.369425,172.26901036042418L683.884075,346.1693716049193L685.428025,247.08917306019697L685.599575,266.2325196999768L687.1435250000001,336.2803640732397L687.315075,159.73664870628932L687.5724,322.9816169005172L688.859025,360.3651815194349L689.11635,317.419342627892L689.45945,274.26102326466474L690.059875,315.23717164993275L691.17495,281.8546871038582L691.6896,291.68684831032374L692.89045,202.6386396701518L693.91975,328.95810677455006L694.520175,421.89456939697254L695.206375,337.8977113503675L695.892575,192.81670386974614L695.97835,282.0896981312677L696.4072249999999,318.519180371211L696.750325,288.780233309819L697.8654,256.7587676415075L698.2085,204.64888517673185L699.40935,316.344808431772L700.4386499999999,187.55841878744258L700.524425,273.4008759718673L701.12485,171.42619426433842L701.81105,314.63560581207264L702.3257,300.80843045161305L702.8403500000001,317.4434329913211L703.440775,75.2997515751764L703.612325,271.7973936521089L704.3843,281.9650868269112L704.55585,344.0761096660906L704.641625,247.6137883846575L706.27135,228.82833095697242L706.528675,294.2374805303719L707.30065,299.4973254203795L708.415725,303.2713668163005L709.35925,199.40099881245527L709.616575,272.1894253217256L710.474325,220.5693224760201L711.846725,245.31445851692771L712.79025,271.2876831568203L714.3342,382.19139741017256L715.19195,266.18312578934876L715.277725,305.34105832760133L715.7066,303.9256194921639L715.792375,224.91477342752296L716.3928000000001,268.98194074630726L716.7359,234.562704012944L716.821675,249.5640679506154L716.90745,224.2773320124698L718.194075,234.13410351826582L718.7945,207.8275999656089L718.880275,314.61584824782136L719.223375,340.2478216244623L719.3949250000001,373.5266656142013L720.1669,369.8628506293662L720.51,345.78028623874354L720.767325,312.3326363930334L722.997475,251.51244108493498L723.08325,219.4020663774929L723.855225,359.5105802095852L724.1125499999999,276.4449273622952L724.45565,190.81061785037687L724.712975,220.57885463421147L725.570725,264.58830906794606L725.6564999999999,327.0206522941588L725.742275,248.54534020790672L725.82805,299.5385736685531L726.256925,318.7275013556846L726.7715750000001,326.32203175471363L727.114675,301.4736017814048L727.286225,293.18045084293055L728.658625,242.12534501002372L729.173275,358.211953639984L729.25905,383.2553595762985L729.94525,324.9972350780779L730.4599000000001,328.98774312092695L731.574975,367.37010460633485L732.1754,249.1905806614801L733.03315,286.5741452803977L734.5771000000001,417.44842419257515L735.2633,324.4880445186907L737.236125,240.27593300892744L737.83655,159.48378654626686L738.3512000000001,300.26336431503285L738.608525,307.15719443101136L741.26755,263.2278101260844L741.3533249999999,286.411925279177L742.725725,254.95788299120375L742.8115,250.28036631070637L743.66925,195.7314645327053L743.926575,224.38859829535838L744.0981250000001,218.87606455729545L745.04165,246.07183181322526L745.5563,245.44981516324543L745.813625,318.81311746743995L746.156725,369.4382363099317L747.529125,292.57541876572816L747.700675,175.45465762798588L747.7864500000001,224.15913325089662L748.12955,273.95651413844166L748.386875,165.71452507605906L748.558425,355.7788269336406L749.759275,280.56611262834974L750.102375,284.3327016096847L751.0459000000001,310.31147223252503L751.303225,256.46569710511415L753.018725,158.6655807495116L753.704925,222.99101059253385L754.562675,272.23847260841944L754.64845,170.0114486767694L755.591975,298.81586276567884L757.5648,271.97919790561366L757.993675,237.94523367514964L759.4518499999999,289.54921850791334L761.4246750000001,337.8732743630041L761.596225,353.1391123624947L763.22595,359.1365729845486L763.311725,120.58478208688575L763.654825,293.1364296032831L763.997925,189.80072901799116L765.541875,296.5350772784305L766.056525,248.76804608565095L766.1423,287.79131522545435L769.7448499999999,236.23308475200932L770.43105,332.64289250740626L771.11725,322.578319953038L771.203025,327.86208189450764L772.6612,302.5197128149178L773.3474,247.6030430426963L773.776275,326.94994101157545L774.119375,306.7538974835321L775.0629,262.7187928786643L776.0922,278.642869729262L776.349525,261.1277890205382L776.521075,228.39002499213572L776.8641749999999,242.1379967836232L777.550375,198.3392897019018L780.8956,260.81565416776203L782.696875,318.9307962931118L783.211525,169.21993292295002L783.2973000000001,175.97355365753162L783.46885,148.09181763575614L784.755475,266.2456914094777L785.3559,356.5195622810949L787.3287250000001,286.31400401775636L787.500275,327.54977372976435L787.671825,325.2561631569494L788.61535,180.67308095785273L788.872675,218.80968607388996L790.3308499999999,260.38324080980726L790.8455,227.87268877029405L791.9605750000001,209.82346057891834L793.676075,232.0224705109228L794.44805,292.5015878677367L795.6489,226.57596863233113L795.8204499999999,387.0060038566588L795.9920000000001,283.3219462174634L796.763975,277.2464952102073L797.53595,345.68219166535584L798.2221499999999,309.46241690562306L799.93765,239.3721111004168L800.1092,318.05175799589875L800.366525,280.11948768909144L800.538075,222.68164873123155L801.052725,260.4090642929076L802.082025,263.07442903518665L802.1678,294.12933386289143L802.7682249999999,200.41903330729545L803.0255500000001,304.94971990585316L803.454425,383.6849999427794L804.05485,339.91436939973084L804.2264,201.95041784873362L805.5988,224.24006993953984" fill="none"></path></g></g></g></g></g></g><g transform="translate(58, 378)" clip-path="url(#clip_1)"><clipPath id="clip_1"><rect width="857" height="22"></rect></clipPath><g><g><line x1="0" y1="0" x2="0" y2="5" style="visibility: inherit;" fill="rgb(0, 0, 0)" stroke="rgb(204, 204, 204)" stroke-width="1px"></line><line x1="85.775" y1="0" x2="85.775" y2="5" style="visibility: inherit;" fill="rgb(0, 0, 0)" stroke="rgb(204, 204, 204)" stroke-width="1px"></line><line x1="171.55" y1="0" x2="171.55" y2="5" style="visibility: inherit;" fill="rgb(0, 0, 0)" stroke="rgb(204, 204, 204)" stroke-width="1px"></line><line x1="257.325" y1="0" x2="257.325" y2="5" style="visibility: inherit;" fill="rgb(0, 0, 0)" stroke="rgb(204, 204, 204)" stroke-width="1px"></line><line x1="343.1" y1="0" x2="343.1" y2="5" style="visibility: inherit;" fill="rgb(0, 0, 0)" stroke="rgb(204, 204, 204)" stroke-width="1px"></line><line x1="428.875" y1="0" x2="428.875" y2="5" style="visibility: inherit;" fill="rgb(0, 0, 0)" stroke="rgb(204, 204, 204)" stroke-width="1px"></line><line x1="514.65" y1="0" x2="514.65" y2="5" style="visibility: inherit;" fill="rgb(0, 0, 0)" stroke="rgb(204, 204, 204)" stroke-width="1px"></line><line x1="600.425" y1="0" x2="600.425" y2="5" style="visibility: inherit;" fill="rgb(0, 0, 0)" stroke="rgb(204, 204, 204)" stroke-width="1px"></line><line x1="686.2" y1="0" x2="686.2" y2="5" style="visibility: inherit;" fill="rgb(0, 0, 0)" stroke="rgb(204, 204, 204)" stroke-width="1px"></line><line x1="771.975" y1="0" x2="771.975" y2="5" style="visibility: inherit;" fill="rgb(0, 0, 0)" stroke="rgb(204, 204, 204)" stroke-width="1px"></line><line x1="857.75" y1="0" x2="857.75" y2="5" style="visibility: inherit;" fill="rgb(0, 0, 0)" stroke="rgb(204, 204, 204)" stroke-width="1px"></line></g><g transform="translate(0, 8)"><text x="0" y="0" dx="0em" dy="0.95em" style="text-anchor: middle; visibility: hidden; font-family: &quot;Helvetica Neue&quot;, sans-serif; font-size: 12px; font-weight: 200;" fill="rgb(50, 49, 63)" stroke="none" stroke-width="1px">-100k</text><text x="85.775" y="0" dx="0em" dy="0.95em" style="text-anchor: middle; visibility: inherit; font-family: &quot;Helvetica Neue&quot;, sans-serif; font-size: 12px; font-weight: 200;" fill="rgb(50, 49, 63)" stroke="none" stroke-width="1px">0</text><text x="171.55" y="0" dx="0em" dy="0.95em" style="text-anchor: middle; visibility: inherit; font-family: &quot;Helvetica Neue&quot;, sans-serif; font-size: 12px; font-weight: 200;" fill="rgb(50, 49, 63)" stroke="none" stroke-width="1px">100k</text><text x="257.325" y="0" dx="0em" dy="0.95em" style="text-anchor: middle; visibility: inherit; font-family: &quot;Helvetica Neue&quot;, sans-serif; font-size: 12px; font-weight: 200;" fill="rgb(50, 49, 63)" stroke="none" stroke-width="1px">200k</text><text x="343.1" y="0" dx="0em" dy="0.95em" style="text-anchor: middle; visibility: inherit; font-family: &quot;Helvetica Neue&quot;, sans-serif; font-size: 12px; font-weight: 200;" fill="rgb(50, 49, 63)" stroke="none" stroke-width="1px">300k</text><text x="428.875" y="0" dx="0em" dy="0.95em" style="text-anchor: middle; visibility: inherit; font-family: &quot;Helvetica Neue&quot;, sans-serif; font-size: 12px; font-weight: 200;" fill="rgb(50, 49, 63)" stroke="none" stroke-width="1px">400k</text><text x="514.65" y="0" dx="0em" dy="0.95em" style="text-anchor: middle; visibility: inherit; font-family: &quot;Helvetica Neue&quot;, sans-serif; font-size: 12px; font-weight: 200;" fill="rgb(50, 49, 63)" stroke="none" stroke-width="1px">500k</text><text x="600.425" y="0" dx="0em" dy="0.95em" style="text-anchor: middle; visibility: inherit; font-family: &quot;Helvetica Neue&quot;, sans-serif; font-size: 12px; font-weight: 200;" fill="rgb(50, 49, 63)" stroke="none" stroke-width="1px">600k</text><text x="686.2" y="0" dx="0em" dy="0.95em" style="text-anchor: middle; visibility: inherit; font-family: &quot;Helvetica Neue&quot;, sans-serif; font-size: 12px; font-weight: 200;" fill="rgb(50, 49, 63)" stroke="none" stroke-width="1px">700k</text><text x="771.975" y="0" dx="0em" dy="0.95em" style="text-anchor: middle; visibility: inherit; font-family: &quot;Helvetica Neue&quot;, sans-serif; font-size: 12px; font-weight: 200;" fill="rgb(50, 49, 63)" stroke="none" stroke-width="1px">800k</text><text x="857.75" y="0" dx="0em" dy="0.95em" style="text-anchor: middle; visibility: hidden; font-family: &quot;Helvetica Neue&quot;, sans-serif; font-size: 12px; font-weight: 200;" fill="rgb(50, 49, 63)" stroke="none" stroke-width="1px">900k</text></g><line x1="0" y1="0" x2="857.75" y2="0" fill="rgb(0, 0, 0)" stroke="rgb(204, 204, 204)" stroke-width="1px"></line></g></g></g></g></svg>